<?xml version="1.0" encoding="utf-8"?>
<!-- Generator: Adobe Illustrator 22.0.1, SVG Export Plug-In . SVG Version: 6.00 Build 0)  -->
<svg version="1.1" id="Layer_1" xmlns="http://www.w3.org/2000/svg" xmlns:xlink="http://www.w3.org/1999/xlink" x="0px" y="0px"
	 viewBox="0 0 256 256" style="enable-background:new 0 0 256 256;" xml:space="preserve">
<style type="text/css">
	.st0{fill:#FFFFFF;}
</style>
<g>
	<g>
		<g>
			<path class="st0" d="M31.5,122.4c0.3,0.3,0.7,0.7,1.4,1c0,0.2-0.1,0.3-0.4,0.3c-0.2,0-0.3,0-0.4,0c0,0.3,0.2,0.5,0.6,0.6
				c0-0.3,0.2-0.4,0.5-0.5c0.8,0.6,2.1,1.4,3.8,2.4c0.3-0.2,0.3-0.3,0.2-0.5c-0.1-0.2-0.2-0.3-0.2-0.4c0.3,0.1,0.6,0.3,0.9,0.6
				c0.3,0.3,0.6,0.6,0.8,0.6c0.1,0.2,0.1,0.3,0,0.4c-0.1,0.1-0.1,0.2-0.1,0.3c0.1,0.1,0.2,0,0.4-0.2c0.2-0.2,0.3-0.2,0.5-0.1
				c0.1,0.2,0.1,0.4,0,0.6c-0.1,0.2-0.1,0.4,0,0.6c0.3,0,0.4-0.2,0.4-0.6c0.1,0.2,0.4,0.5,1.1,0.9c0.6,0.4,1,0.9,1.1,1.4
				c0.3,0.1,0.8,0.3,1.3,0.6s0.8,0.6,1,0.6c0,0.1,0,0.2-0.1,0.3c-0.1,0.1-0.1,0.2-0.1,0.3c0,0.1,0.3,0.1,0.8,0.1
				c1.7,2,2.9,3.5,3.8,4.5c0.8,1,1.8,2.4,2.9,4.4c1.1,2,2,3.9,2.6,5.9l-0.1-0.1c-0.1-0.1-0.2-0.1-0.3-0.1c0.9,4.8,1.2,8.4,0.9,10.7
				c-0.1,0.7-0.3,1.3-0.6,1.9c-0.3,0.6-0.7,1.2-1.3,1.9c-0.6,0.7-1,1.2-1.2,1.7c-0.6,0.1-1.1,0.6-1.7,1.4c-0.2,0.2-0.4,0.2-0.6,0
				c0.2,0.4,0,0.8-0.6,1.1c-0.6,0.3-0.8,0.6-0.8,0.9c-0.4,0.1-0.9,0.3-1.5,0.6c-0.6,0.3-1,0.5-1.5,0.6c-0.1,0-0.1,0.1-0.1,0.4
				c0,0.3-0.1,0.4-0.3,0.5c-0.5-0.1-1.1,0.1-1.7,0.5c-0.6,0.4-1.1,0.6-1.3,0.6c-0.6,0.5-1.7,1-3.4,1.4c-1.7,0.4-2.7,0.8-3.2,1
				c-0.4,0-0.7,0-0.9-0.1c-0.3,0.2-0.6,0.3-0.9,0.3c-0.6,0-1,0.1-1.3,0.4c-0.3,0-1.1,0-2.5,0c-1.4,0-2.4,0.1-2.8,0.3
				c-5.4-0.8-8.9-2.3-10.3-4.4c-0.5-1.9-0.3-4.7,0.5-8.4c0.3-0.3,0.5-0.6,0.8-0.9c0.3-0.3,0.5-0.7,0.8-1.2c0.3-0.5,0.5-0.8,0.6-1
				c4.1-2.6,8.1-4.4,12.2-5.2c-0.1,0.1-0.3,0.2-0.5,0.3c-0.3,0.1-0.5,0.2-0.7,0.3c-0.2,0.1-0.4,0.2-0.6,0.3c0.1,0.3,0.2,0.3,0.4,0.1
				c0.2-0.1,0.3-0.1,0.4-0.1c-0.2,0.5-0.6,0.8-1.1,0.8c-0.1,0.1-0.1,0.2-0.1,0.3c0,0.1,0,0.2-0.1,0.3c-1.3,0.8-2.9,2-5,3.6
				c-2,1.7-3.3,2.6-3.7,3c0.1,0.2,0.1,0.3,0.1,0.5c0,0.2,0,0.3,0,0.4c0,0.1,0.1,0.1,0.3,0.1l-1.9,3.1c3.2,1.4,5.6,2.2,7.2,2.2
				c0.3,0,0.4,0.1,0.4,0.3c6.3,0,11.3-0.9,15-2.8c0.3,0,0.5,0,0.8-0.1c0.3,0,0.5-0.1,0.6-0.1c0.2-0.3,0.6-0.5,1.1-0.8
				c0.6-0.3,0.9-0.5,0.9-0.6l0.4,0.1c0.1-0.1,0.7-0.6,1.9-1.5c1.2-0.9,1.9-1.6,2.3-2c0.3-0.4,0.9-1,1.7-1.8c0.8-0.8,1.3-1.7,1.6-2.4
				c0.3-0.8,0.4-1.6,0.4-2.5c0.1-0.4,0.1-1,0-1.6c-0.1-0.6-0.1-1.1-0.1-1.5c-0.1-0.2-0.2-0.4-0.4-0.7c-0.2-0.3-0.3-0.6-0.3-0.9
				c0-0.3-0.1-0.7-0.1-1.1c-0.1-0.1-0.2-0.1-0.4-0.1c-1.8-4-5-8.1-9.7-12.3c0-0.3-0.1-0.5-0.3-0.6c-0.2-0.2-0.3-0.3-0.3-0.5
				c-0.1,0-0.1,0.1-0.2,0.2c0,0.1-0.1,0.2-0.2,0.2c-0.7-0.8-1.7-1.6-3.2-2.5c-1.4-0.9-2.5-1.7-3.1-2.4c-0.3,0.1-0.5,0.1-0.8,0
				c-0.2-0.1-0.3-0.2-0.4-0.4c-0.1-0.2-0.2-0.3-0.3-0.4c-0.1-0.1-0.2-0.2-0.4-0.3c-0.2-0.1-0.3-0.1-0.4-0.1c-0.1,0-0.3,0-0.4,0.1
				c0-0.2,0-0.3,0.1-0.4c-0.8,0-1.4-0.4-1.5-1.1c-0.1,0-0.2,0.1-0.3,0.3l-0.3-0.1l-3.8-1.9c0-0.2-0.1-0.3-0.3-0.4
				c-0.2-0.1-0.3-0.2-0.3-0.3c-0.7-0.2-1.6-0.6-2.7-1.3c-1.1-0.7-2-1.1-2.8-1.3c-1.5-0.8-2.5-1.4-3.1-1.5c-0.3-0.3-0.9-0.7-1.8-1.1
				c-1-0.4-1.6-0.8-1.8-1.3c-0.2,0.2-0.4,0.2-0.6,0.1c-0.3-0.1-0.5-0.1-0.6-0.1c-0.3-0.3-1.6-1.1-3.9-2.7c-2.2-1.5-3.9-2.8-4.9-3.7
				c0.1-0.3,0-0.5-0.1-0.8C3.1,109.2,3,109,3,108.9H2.6v-0.1l0.1-0.3c-0.1,0-0.2-0.1-0.4-0.3c-0.2-0.2-0.4-0.3-0.8-0.4
				c-2-3.7-2.1-8-0.5-12.7c0.8-1.3,1.5-2.5,2-3.8c0.8-0.3,1.1-0.8,1-1.5c0.5-0.5,1.6-1.5,3.2-2.9c1.6-1.4,2.8-2.6,3.6-3.4
				c0.9-0.4,2.3-1.3,4.1-2.7c1.8-1.4,3.3-2.3,4.5-2.8c0.6-0.5,1.8-1.2,3.5-2.2c1.7-0.9,2.9-1.8,3.6-2.5c1.4-0.4,3.3-1.3,5.8-2.7
				c2.5-1.4,4.5-2.3,6-2.8c0.4-0.3,1.1-0.8,2.2-1.3c1-0.5,1.7-0.9,2.2-1.1c0.8,0,1.7-0.3,2.9-0.8c1.1-0.5,2.1-0.8,3-0.9
				c1.3-0.9,3.5-1.8,6.7-2.7c3.2-0.8,5.1-1.4,5.7-1.7c5.4-1.1,8.4-1.7,8.9-1.8c0.2,0.2,0.3,0.3,0.3,0.4c1.6-0.5,3.6-0.7,6-0.6
				c2.4,0.1,4.5,0.6,6.3,1.3c0,0.2,0.1,0.4,0.4,0.6c0.3,0.2,0.4,0.4,0.4,0.7c0.2,0.1,0.3,0.1,0.4,0.1c0.1,0,0.2,0,0.3,0.1
				c0.1,0.2,0.5,0.9,1.3,2.1c0.8,1.2,1.3,2.1,1.6,2.7c0.3,0.6,0.6,1.4,1,2.5c0.4,1.1,0.6,2.1,0.4,3.1c-0.1,1-0.4,1.9-1,2.9
				c0,0.1-0.1,0.2-0.3,0.3c-0.2,0.1-0.3,0.3-0.4,0.4c-0.1,0.1-0.2,0.3-0.3,0.5c-0.1,0.2,0,0.4,0.1,0.7c-2,1.6-3.6,3.2-4.8,4.8
				c-0.6,0.5-2.2,1.6-5,3.3c-0.9,0.1-2.1,0.7-3.6,1.8c-0.8,0-1.9,0.2-3.4,0.5c-1.5,0.3-2.6,0.6-3.4,0.6c-0.8,0.1-1.8-0.1-3.1-0.6
				c0.8-1.1,1.8-2.1,3.1-2.9c1.3-0.8,2.9-1.6,4.7-2.5c1.8-0.8,3.2-1.6,4.1-2.2c0.3-0.3,1.2-0.9,2.5-1.8c1.4-0.8,2.2-1.7,2.7-2.4
				c0.3,0.1,0.6,0,0.8-0.1c0.3-0.3,0.8-0.9,1.3-1.7c0.6-0.8,1-1.4,1.5-1.8c0-0.3,0.2-0.9,0.6-1.8c0.4-1,0.6-1.8,0.4-2.4
				C81,63.6,74.8,62.8,66.7,64c-0.9,0.1-2.5,0.4-4.6,1c-2.1,0.6-3.7,0.9-4.8,1c-0.1,0-0.1,0.1-0.1,0.4c-0.7,0.1-2.1,0.4-4.2,0.9
				l-1.5,0.8c-0.6,0.3-1.2,0.5-1.8,0.7c-0.6,0.2-1.3,0.4-2.1,0.6c-0.8,0.2-1.4,0.4-1.8,0.6c-0.3,0.1-0.8,0.3-1.4,0.6
				c-0.6,0.3-1,0.5-1.1,0.6c-0.2,0-0.4,0-0.6-0.2c-0.1,0.3-0.3,0.5-0.6,0.4c-0.3-0.1-0.6,0-0.8,0.1c0,0.2,0.1,0.2,0.2,0.1
				c0.1-0.1,0.2,0,0.3,0.3c0,0.1-0.3,0.1-0.9,0.1c-0.5,0.4-1.4,0.9-2.7,1.3c-1.3,0.5-2.2,1-2.6,1.5c-0.2,0.1-0.3,0.1-0.4-0.1
				c-0.1-0.1-0.2-0.2-0.3-0.2c-0.2,0.1-0.2,0.2-0.1,0.4c0.1,0.2,0.1,0.3,0,0.4c-3,1.1-6.6,3-10.9,5.6c-0.1,0-0.2-0.1-0.4-0.3
				c-0.2,0.1-0.2,0.2-0.1,0.3c0.1,0.2,0.1,0.3,0.1,0.4c-2.6,1.4-7.1,4.4-13.4,8.8c-0.1,0.3-0.4,0.7-1,1c-0.6,0.3-0.8,0.7-0.8,1.1
				c-4.2,3.6-6.1,7.3-5.6,11.2c0.6,1.1,1.3,2.1,2.2,2.9c0.9,0.8,2.1,1.7,3.5,2.7c1.4,1,2.4,1.7,2.9,2.1c0.9,0.3,2.1,0.8,3.6,1.7
				c1.4,0.9,2.6,1.5,3.6,1.7v0.4c0.4-0.1,0.9,0,1.4,0.4c0.5,0.3,0.9,0.6,1.3,0.6c0,0.3-0.1,0.4-0.3,0.5c-0.2,0.1-0.3,0.2-0.3,0.3
				c0.2,0.3,0.5,0.5,1,0.6c0.5,0.2,0.8,0.3,1,0.5c0-0.1,0-0.2-0.1-0.4c-0.1-0.2-0.1-0.4-0.1-0.6c2.2,1,3.6,1.7,4.2,2.2
				c0,0.3-0.1,0.5-0.4,0.4c-0.2-0.1-0.3-0.1-0.5-0.1v-0.5l-0.3,0.1c-0.2,0.1-0.3,0.1-0.5,0c-0.3-0.7-1-1-2-1
				c1.6,1.3,3.4,2.3,5.5,3.1v0.5c0.3-0.2,0.7-0.1,1.3,0.2c0.6,0.3,0.8,0.6,0.6,1l-0.3-0.3c0.1-0.2,0.1-0.3,0-0.3
				c-0.1,0-0.1,0.1-0.1,0.3l-0.1,0.1c0.8,1.1,1.6,1.6,2.4,1.4c-0.1-0.3-0.3-0.5-0.8-0.6c-0.4-0.2-0.7-0.3-0.8-0.5
				c0-0.1,0-0.1,0.1-0.1c0.1,0,0.2,0.1,0.3,0.1C31,122.5,31.2,122.5,31.5,122.4z M4.5,94.2h0.3v-0.4H4.5V94.2z M5.7,90
				c0-0.2,0.1-0.4,0.3-0.6c0.2-0.2,0.2-0.4-0.1-0.4c0,0.1-0.1,0.2-0.3,0.3c-0.2,0.1-0.3,0.2-0.3,0.3C5.3,89.7,5.4,89.8,5.7,90z
				 M5.4,93.3h0.3v-0.4H5.4V93.3z M6.3,89.1c0-0.1,0.1-0.2,0.3-0.3c0.2-0.1,0.3-0.3,0.3-0.4c-0.3,0-0.5,0.2-0.6,0.5
				C6.2,89,6.2,89.1,6.3,89.1z M7.3,88.1c0-0.1,0.1-0.2,0.3-0.3c0.2-0.1,0.3-0.3,0.4-0.4c-0.3-0.1-0.6,0.1-0.8,0.5
				C7.2,88,7.2,88.1,7.3,88.1z M7.2,90.3c0,0.1,0,0.1,0.1,0.1c0-0.1,0-0.2,0.1-0.3l0.1-0.1H7.2V90.3z M9.5,86.1
				c-0.5,0.3-0.7,0.5-0.6,0.6C9.3,86.6,9.5,86.4,9.5,86.1z M8.9,89.1h0.3v-0.3H8.9V89.1z M10.4,85.4l-0.6,0.3
				C10.2,85.6,10.4,85.6,10.4,85.4c0.3,0,0.5-0.1,0.5-0.4C10.6,85,10.5,85.1,10.4,85.4z M10.1,88.7v0.3h0.3c0.2-0.2,0.1-0.3-0.1-0.4
				C10.2,88.6,10.2,88.7,10.1,88.7z M11,84.9c0.3,0,0.6-0.2,0.6-0.5c0.1-0.1,0-0.2-0.1-0.3c0,0.1-0.1,0.2-0.3,0.3
				C11,84.4,10.9,84.6,11,84.9z M11.9,86.4c-0.3,0-0.4,0-0.4,0.1C11.8,86.5,11.9,86.5,11.9,86.4z M11.6,84c0.5,0.4,1.1,0.2,1.7-0.8
				c-0.3,0.1-0.6,0.2-0.9,0.4C12.1,83.8,11.8,83.9,11.6,84z M11.6,85.4c0.3,0,0.5-0.1,0.5-0.4C11.8,85,11.6,85.1,11.6,85.4z
				 M12,86.9c0.3,0.2,0.5,0.1,0.8-0.1c-0.2,0-0.3,0-0.5-0.1C12.2,86.6,12.1,86.7,12,86.9z M12.5,112.3c-0.1,0.2,0,0.3,0.3,0.3
				c0.4,0,0.6,0,0.6-0.1C13,112.2,12.7,112.2,12.5,112.3z M13.4,86.8c-0.1,0-0.2,0-0.3,0H13.4z M14.4,113c-0.3,0.1-0.4,0.1-0.6-0.1
				c-0.1-0.1-0.3-0.2-0.4-0.2c0.2,0.6,0.4,0.8,0.8,0.5C14.4,113.2,14.4,113.1,14.4,113z M13.8,82.7c0.6-0.3,0.8-0.6,0.6-0.8
				c0,0.1-0.1,0.2-0.4,0.4C13.7,82.4,13.6,82.5,13.8,82.7z M14.8,113.4c-0.1-0.1-0.1-0.1-0.2,0c0,0.1-0.1,0.2-0.1,0.3l0.3,0.1
				C15.1,113.6,15.1,113.4,14.8,113.4z M14.7,82.2c0.4-0.4,1.1-0.9,2.2-1.5c1-0.6,1.7-1.1,2.2-1.7C16.8,80.1,15.4,81.2,14.7,82.2z
				 M16.2,114c-0.1-0.1-0.3-0.1-0.6-0.1c-0.1,0.1,0,0.2,0.1,0.3C16,114.3,16.1,114.2,16.2,114z M16,82.3c-0.3,0-0.4,0-0.4,0.1
				c0-0.1,0.1-0.1,0.3-0.1H16z M16.4,116.5h0.4c0-0.3-0.1-0.5-0.4-0.5V116.5z M16.6,84.4c0.2,0.1,0.3,0,0.4-0.1
				c0.1-0.2,0.1-0.3-0.1-0.4L16.9,84C16.6,84,16.5,84.1,16.6,84.4z M16.6,81.9c0.3,0,0.5-0.1,0.5-0.4C16.8,81.6,16.6,81.7,16.6,81.9
				z M18,117.2l0.1-0.1c0.2-0.3,0.1-0.5-0.1-0.5c-0.1,0.1-0.2,0.1-0.4,0C17.6,116.8,17.8,117,18,117.2z M18.8,117.8
				c0.3-0.1,0.3-0.2,0-0.4c-0.3-0.2-0.4-0.2-0.5-0.1c0.2,0,0.3,0.1,0.3,0.3C18.6,117.7,18.7,117.8,18.8,117.8z M18.8,115.6
				c0-0.2-0.1-0.3-0.4-0.4L18.8,115.6z M18.5,158.1c0-0.2,0-0.3,0.1-0.3c0-0.3-0.1-0.3-0.3-0.3C18.4,157.9,18.4,158.1,18.5,158.1z
				 M18.6,83c0.2,0.1,0.3,0,0.5-0.4C19.1,82.6,18.9,82.7,18.6,83z M18.9,82.1H19l0.1,0.1c0-0.1,0-0.1,0.1-0.1c0,0,0.1,0,0.1-0.1
				c-0.1,0-0.1,0-0.1-0.1c0,0,0-0.1-0.1-0.1l-0.1,0.1V82.1z M19.8,158.5c0.1-0.3,0.1-0.5-0.1-0.6c-0.1,0-0.4-0.1-0.8-0.1
				C18.9,158.3,19.2,158.5,19.8,158.5z M19,80.3c0,0.1,0.1,0.1,0.3,0.1c0.1-0.2,0.1-0.3,0-0.5c0,0.1,0,0.1-0.1,0.2
				C19.1,80.1,19,80.2,19,80.3z M19.9,79.1c0.1-0.3,0.1-0.4-0.1-0.4c-0.1,0-0.4-0.1-0.7-0.1C19.2,79,19.4,79.1,19.9,79.1z
				 M19.3,116.2c0.3-0.2,0.5-0.1,0.6,0.1c0.2,0.3,0.3,0.4,0.4,0.4c0-0.3,0-0.4-0.1-0.6c-0.1-0.1-0.3-0.2-0.5-0.3
				c-0.3-0.1-0.4-0.1-0.5-0.1c0,0.1,0,0.2,0,0.3L19.3,116.2z M19.2,117.3h0.6c0.1-0.3,0-0.4-0.3-0.5c-0.2,0-0.3,0.1-0.4,0.3
				C19.2,117.1,19.2,117.2,19.2,117.3z M20,165.5c0-0.3-0.3-0.5-0.9-0.5C19.2,165.2,19.4,165.3,20,165.5z M24.7,75.7
				c-1.1,0.2-2.1,0.8-3.1,1.9c-0.1,0-0.2,0-0.3-0.1c-0.2,0.2-0.4,0.4-0.8,0.6c-0.4,0.2-0.6,0.4-0.7,0.6l0.1,0.1
				c0.1,0.1,0.2,0.1,0.3,0.1c0.1-0.1,0.1-0.2,0.1-0.4c0-0.2,0.1-0.3,0.3-0.3c0.1,0.1,0.3,0.1,0.5,0c0.3-0.1,0.4,0,0.5,0.1v-0.8h0.4
				c0.3,0,0.4,0,0.4-0.1c0.2-0.3,0.5-0.5,1-0.8l0.1,0.3c0.3-0.2,0.7-0.4,1.3-0.8c0.6-0.4,1-0.7,1.3-0.8c0.4-0.2,1.2-0.6,2.3-1.4
				c0.2,0,0.3-0.1,0.3-0.4c-0.5,0.1-1.3,0.4-2.3,1c-1,0.6-1.6,0.9-1.7,1V75.7z M20.4,118.6c0-0.2-0.1-0.4-0.4-0.6
				C20,118.3,20.2,118.5,20.4,118.6z M20.3,117.6c0.1,0,0.2,0.1,0.4,0.2c0.2,0.1,0.3,0.1,0.4-0.1c-0.1,0-0.2-0.1-0.4-0.3
				C20.5,117.3,20.4,117.3,20.3,117.6z M20.7,80.9c-0.2,0-0.3,0.1-0.3,0.3C20.6,81.2,20.7,81.1,20.7,80.9z M20.6,118.7
				c0.3,0,0.5-0.1,0.5-0.4h-0.4c0,0.1,0,0.2,0,0.3L20.6,118.7z M21.4,155.8c-0.3,0-0.5,0.1-0.5,0.4c-0.1,0-0.2,0-0.3,0.1
				c0.2,0,0.3,0,0.3-0.1C21.3,156.2,21.4,156.1,21.4,155.8c0.4,0.1,0.8,0,1.1-0.4C22.5,155.4,22.1,155.5,21.4,155.8z M21.1,116
				c0.7,0.2,1,0.4,1,0.6c-0.4,0.2-0.8,0.1-1.1-0.1C21,116.5,21.1,116.3,21.1,116z M21.4,118.8c-0.3,0-0.4,0-0.4,0.1
				C21.3,119,21.4,118.9,21.4,118.8z M21.2,117.9h0.3v-0.3h-0.3V117.9z M21.8,80.3c-0.3,0-0.4,0-0.4,0.1
				C21.7,80.4,21.8,80.4,21.8,80.3z M22.7,120.2c0.3-0.2,0.7-0.1,1,0.1c0.3,0.2,0.5,0.2,0.6,0.1c-0.9-0.6-1.4-1-1.5-1.3
				c-0.2,0.2-0.4,0.1-0.6-0.1c-0.3-0.2-0.5-0.3-0.6-0.2c0.1,0.3,0.3,0.6,0.6,0.7C22.4,119.7,22.6,119.9,22.7,120.2z M21.8,167.8
				c-0.3,0-0.4,0-0.4,0.1C21.7,167.9,21.8,167.9,21.8,167.8z M21.8,118.3h0.3c0.1-0.1,0.1-0.2,0-0.3c-0.2,0-0.3,0-0.4,0.1
				C21.8,118.2,21.8,118.2,21.8,118.3z M21.9,78.6h0.3v-0.3h-0.3V78.6z M22.2,81.3c0.2,0.1,0.3,0,0.4-0.1c0.1-0.2,0.1-0.3-0.1-0.4
				c0,0.2-0.1,0.3-0.2,0.3C22.3,81.1,22.2,81.1,22.2,81.3z M22.5,77.5c-0.1-0.1-0.1-0.2,0-0.4V77.5z M22.6,78.4
				c0.3,0,0.5-0.1,0.6-0.3c0.2-0.2,0.2-0.3,0-0.5c-0.1,0.2-0.2,0.3-0.4,0.5C22.7,78.2,22.6,78.3,22.6,78.4z M22.8,155.4
				c0-0.1,0.1-0.3,0.3-0.5c0.2-0.2,0.2-0.3,0-0.4c0,0.1-0.1,0.2-0.3,0.4C22.6,155.2,22.6,155.4,22.8,155.4z M22.8,80.4h0.4V80h-0.4
				V80.4z M24.7,119.3c-0.8-0.3-1.4-0.5-1.5-0.5C23.6,119.7,24.2,119.8,24.7,119.3z M23.6,120.7c-0.2,0-0.3,0-0.3,0.1
				C23.5,120.9,23.6,120.8,23.6,120.7z M23.9,154.4c0.4-0.1,0.6-0.2,0.6-0.3C24.1,154.2,23.9,154.3,23.9,154.4z M24.2,77.1
				c0.7-0.2,1-0.3,1-0.4C25.1,76.7,24.7,76.9,24.2,77.1z M24.2,79.3v0.3c0.1,0.1,0.2,0.1,0.3,0.1c0-0.1,0.1-0.2,0.3-0.3l0.1-0.1
				H24.2z M29.3,167.8c0,0.3,0,0.4-0.1,0.4v-0.4c-0.3,0.1-1,0.1-2.3,0c-1.3-0.1-2.2,0.1-2.7,0.6c4.2,0.2,7,0,8.4-0.6
				c0,0.3,0.1,0.4,0.3,0.4c0.1-0.3,0.3-0.5,0.6-0.4c0.3,0,0.7,0,1-0.1c-0.1,0-0.1-0.2-0.1-0.6c-0.7,0-1.6,0.1-2.7,0.4
				C30.5,167.8,29.7,167.9,29.3,167.8z M26.7,121.5l-0.9-0.5c-0.5-0.3-0.8-0.3-1-0.1c0,0.3,0.3,0.5,0.8,0.7
				C26.1,121.8,26.5,121.7,26.7,121.5z M25,154.2c0.3,0,0.4-0.1,0.4-0.3h-0.3c0,0.1,0,0.1-0.1,0.1C25,154,25,154.1,25,154.2z
				 M25.4,79.7h0.3v-0.4h-0.3V79.7z M26.4,77.5c-0.2,0-0.3,0-0.3,0.1C26.3,77.6,26.4,77.6,26.4,77.5z M26.3,76.4
				c0.1,0,0.2-0.1,0.4-0.3C26.3,76.1,26.2,76.2,26.3,76.4z M26.7,120.9c0-0.2-0.1-0.3-0.3-0.5C26.4,120.5,26.5,120.7,26.7,120.9z
				 M26.5,119.2c0.6,0,1.4,0.3,2.4,1c1,0.7,1.8,1.1,2.3,1.3c0,0.1-0.1,0.1-0.4,0.2c-0.3,0-0.5,0-0.7-0.1c-0.2-0.1-0.3-0.3-0.2-0.4
				c-0.3,0.1-0.5,0.1-0.6,0c-0.2-0.1-0.2-0.3-0.1-0.6c-0.3,0.2-0.6,0.1-0.9-0.1c-0.3-0.3-0.6-0.3-0.8-0.1
				C27.5,119.7,27.2,119.4,26.5,119.2z M26.9,121.6c-0.1,0.2,0,0.4,0.1,0.6c0.6-0.4,1.3-0.4,2.2,0.1c0-0.3-0.1-0.4-0.2-0.6
				c-0.1-0.1-0.4-0.2-0.7-0.3c-0.3-0.1-0.6-0.2-0.6-0.3c0.1,0.3,0.1,0.4-0.1,0.4c-0.1,0-0.3,0-0.4-0.1
				C27.1,121.6,27,121.6,26.9,121.6z M27.5,152.9c-0.3,0-0.4,0-0.4,0.1C27.4,153,27.5,153,27.5,152.9z M27.7,122.5h0.3
				c0.1-0.1,0.1-0.2,0-0.3c-0.2,0-0.3,0-0.4,0.1C27.6,122.4,27.7,122.4,27.7,122.5z M27.9,152.8c0.5,0,0.8-0.1,1-0.4
				c0-0.1-0.1-0.2-0.3-0.3c0,0.2-0.1,0.3-0.4,0.4C28.1,152.6,27.9,152.7,27.9,152.8z M28.4,123c0-0.1,0-0.1,0.1,0
				c0-0.3-0.1-0.5-0.3-0.5C28.3,122.9,28.3,123,28.4,123z M28.7,75h0.4v-0.4h-0.4V75z M29.1,77.4c-0.3,0-0.4,0-0.4,0.1
				C28.9,77.5,29.1,77.5,29.1,77.4z M28.7,122.8c1,1.3,1.9,1.7,2.5,1.1C30.4,123.3,29.5,122.9,28.7,122.8z M28.9,73.4
				c0.3,0.6,0.8,0.4,1.5-0.5c0.9,0,1.5-0.3,1.7-1C30.6,72.7,29.5,73.2,28.9,73.4z M29.2,74.6c0.3,0,0.5-0.1,0.5-0.3h-0.4
				c0,0.1,0,0.1-0.1,0.1C29.2,74.4,29.2,74.5,29.2,74.6z M34.8,126.6c-1.4-1.3-2.6-2.1-3.6-2.4C31.7,124.8,32.8,125.6,34.8,126.6z
				 M31.5,122.4v-0.5c0.9,0.3,1.9,1,3.1,1.9c-0.4,0.1-1-0.1-1.6-0.7C32.3,122.5,31.8,122.3,31.5,122.4z M32.6,125.7
				c-0.4,0-0.6,0-0.6,0.1c0.1,0.2,0.2,0.2,0.4,0.2C32.5,126,32.6,125.9,32.6,125.7z M32.5,72.4c0.1-0.4,0.4-0.7,1-0.9
				c0.6-0.2,0.9-0.4,1.1-0.6c-0.4-0.1-0.9,0.1-1.5,0.4C32.5,71.7,32.3,72.1,32.5,72.4z M33.1,168.7c0-0.1-0.1-0.1-0.2-0.1
				c-0.1,0-0.2,0-0.2,0.1c0,0.1,0,0.1,0.1,0.1C33,168.8,33.1,168.8,33.1,168.7z M36.6,125.2c-0.3-0.1-0.7-0.3-1.2-0.5
				c-0.5-0.3-0.7-0.4-0.8-0.5C35,123.7,35.7,124,36.6,125.2z M38.4,166.3c-0.3-0.3-0.5-0.4-0.6-0.4c-0.2,0.3-0.7,0.4-1.6,0.6
				c-0.9,0.1-1.4,0.4-1.5,0.8c0.7,0.4,1.4,0.3,2.2-0.4c-0.1,0-0.2,0-0.3-0.1c-0.2,0-0.3,0-0.3-0.1c0.4-0.2,0.9-0.2,1.4,0
				c-0.2-0.3,0-0.4,0.6-0.3h0.1c0.8-0.3,1-0.6,0.8-0.9C38.9,165.6,38.6,165.8,38.4,166.3z M36.1,70.2l-0.1-0.1c0-0.2,0-0.3-0.1-0.3
				c0,0.2-0.1,0.3-0.4,0.4c-0.3,0.1-0.5,0.3-0.6,0.6c0.3,0,0.6-0.1,0.9-0.3c0.3-0.2,0.6-0.2,0.9-0.1c0-0.3,0.2-0.5,0.6-0.6
				c0.4-0.2,0.6-0.4,0.6-0.6C37.2,69.3,36.7,69.7,36.1,70.2z M35.7,127.3c0.1-0.2,0.1-0.2,0.1,0c0.2,0.4,0.3,0.6,0.5,0.4
				c0.2-0.3,0.1-0.5-0.1-0.6c-0.3-0.2-0.6-0.3-1-0.4c0,0.2,0.1,0.3,0.3,0.4C35.6,127.2,35.7,127.3,35.7,127.3z M36.3,73.8
				c-0.2,0-0.3,0-0.3,0.1C36.2,73.9,36.3,73.9,36.3,73.8z M36.6,128c0.3,0,0.5-0.1,0.5-0.4C36.7,127.6,36.6,127.7,36.6,128z
				 M37.2,127.2c0.1-0.2,0-0.3-0.1-0.3c-0.2,0-0.3-0.1-0.3-0.2C36.7,127,36.9,127.2,37.2,127.2z M37.7,127.7l-0.1-0.1
				c-0.1,0-0.2,0-0.4,0c0,0.1,0.1,0.2,0.2,0.4c0.1,0.2,0.1,0.4-0.2,0.6c0.3,0,0.5,0.1,0.8,0.2c0.3,0.1,0.4,0.2,0.5,0.2
				c0,0.2,0,0.3,0,0.4c0.2,0.2,0.3,0.1,0.5-0.3c0-0.1,0-0.2,0-0.3c-0.1,0-0.2,0-0.3,0.1c-0.1,0-0.2,0.1-0.3,0.1
				c0-0.2-0.1-0.4-0.4-0.6C37.7,128.2,37.6,128,37.7,127.7c0.1,0,0.3,0.1,0.6,0.3c0-0.3-0.1-0.4-0.3-0.5
				C37.8,127.3,37.7,127.4,37.7,127.7z M38.1,165.5c-0.2,0-0.3,0-0.3,0.1C38,165.6,38.1,165.6,38.1,165.5z M38.4,127.2
				c0-0.6-0.1-0.9-0.4-1C37.8,126.5,37.9,126.8,38.4,127.2z M38.5,69.2c-0.3,0-0.4,0.1-0.5,0.3C38.3,69.5,38.5,69.4,38.5,69.2
				c0.2,0.2,0.6,0,1.1-0.6C39,68.8,38.6,69,38.5,69.2z M38.4,128.2c0.2,0.1,0.3,0,0.3-0.3c0-0.3-0.1-0.3-0.3-0.3V128.2z M38.7,165.6
				v-0.5c-0.3,0-0.4,0-0.4,0.1c0.1,0,0.1,0.1,0.2,0.2C38.6,165.6,38.6,165.6,38.7,165.6z M38.7,127.7c0.3,0.1,0.5,0,0.6-0.4
				C38.9,127.2,38.7,127.3,38.7,127.7z M41.1,131c0-0.1,0-0.2-0.1-0.3c-0.1-0.1-0.1-0.2,0-0.4c-0.3,0.1-0.6,0-0.9-0.3
				c-0.3-0.3-0.5-0.4-0.8-0.4C39.9,130.5,40.5,130.9,41.1,131z M40,71.3c0.1-0.2,0-0.3-0.1-0.4c-0.2-0.1-0.3,0-0.4,0.1l0.3,0.1
				C39.8,71.2,39.9,71.3,40,71.3z M39.8,68.6c0.2,0.3,0.4,0.2,0.6-0.3C40.1,68.3,39.9,68.4,39.8,68.6z M40.6,128.6
				c0.1-0.2,0-0.3-0.3-0.4c-0.3-0.1-0.5-0.1-0.6,0.1C40.3,128.5,40.6,128.6,40.6,128.6z M40.6,71.5h0.3c0.1-0.3,0-0.4-0.3-0.4
				l-0.3,0.1C40.6,71.3,40.6,71.4,40.6,71.5z M40.6,68.6c0.3-0.1,0.6-0.3,0.9-0.5c0.3-0.3,0.5-0.4,0.4-0.5c-0.1,0.1-0.3,0.2-0.7,0.3
				C40.8,68,40.6,68.3,40.6,68.6z M40.9,166.3h0.3v-0.4h-0.3V166.3z M41.3,130.5c0.3,0,0.5-0.1,0.4-0.4c-0.2-0.1-0.3,0-0.4,0.1
				V130.5z M42.3,132c0.8,1.2,1.7,1.8,2.7,1.8c-0.2-0.1-0.6-0.4-1.1-0.8C43.2,132.5,42.7,132.2,42.3,132c-0.4-0.8-0.8-1.1-1-0.9
				C41.6,131.7,42,132,42.3,132z M41.5,165.7c0-0.1,0.1-0.2,0.2-0.2c0.1,0,0.2-0.1,0.2-0.3c-0.2-0.1-0.3,0-0.4,0.1
				C41.3,165.5,41.4,165.7,41.5,165.7z M41.4,70.5c0.2,0.1,0.3,0,0.4-0.1c0.1-0.2,0-0.3-0.1-0.4c0,0.2,0,0.3-0.1,0.3
				C41.4,70.3,41.4,70.4,41.4,70.5z M42,168.2c-0.1,0-0.2,0-0.3-0.1c-0.1,0-0.2-0.1-0.3-0.1c-0.1,0.2,0,0.3,0.2,0.3
				C41.9,168.4,42,168.3,42,168.2z M42.9,164.9c-0.3,0-0.4,0-0.4,0.1C42.8,165,42.9,164.9,42.9,164.9z M42.7,67.6h0.3v-0.3h-0.3
				V67.6z M43.4,164.6h0.1v-0.4h-0.1V164.6z M44.2,66.6c0,0.3,0.2,0.4,0.5,0.1c0.2-0.1,0.3-0.1,0.4-0.1c-0.1-0.2-0.2-0.2-0.4,0
				C44.4,66.7,44.3,66.7,44.2,66.6z M45,134.7c0.3,0,0.4,0,0.5-0.1C45.1,134.6,45,134.6,45,134.7z M45.1,163.6
				c0.4,0,0.6-0.2,0.6-0.5C45.3,163.1,45.1,163.2,45.1,163.6z M46.2,135.7v-0.5c-0.1,0-0.2-0.1-0.3-0.2c-0.1-0.1-0.2-0.2-0.3-0.2
				C45.6,135.3,45.8,135.6,46.2,135.7z M45.9,162.8v0.3h0.4v-0.1v-0.3H46C46,162.8,45.9,162.8,45.9,162.8z M47.8,137.1
				c-0.3-0.6-0.8-1-1.4-1.1C46.5,136.6,47,137,47.8,137.1z M47.1,162.3c0-0.1-0.1-0.1-0.2-0.1c-0.1,0-0.2,0-0.3,0.1H47.1z
				 M47.5,161.6h0.3v-0.3h-0.3V161.6z M48.4,137.5c-0.3,0-0.4,0-0.4,0.1C48.3,137.6,48.4,137.6,48.4,137.5z M48.9,65.3h0.3v-0.5
				h-0.3V65.3z M50.1,66.9h0.3v-0.3h-0.3V66.9z M54,156.3c0.1,0.1,0.1,0.1,0,0.1V156.3z M54.4,147.8c0.3,0.1,0.5,0.5,0.5,1.3
				C54.8,149.1,54.6,148.7,54.4,147.8z M54.6,149.9c0.1-0.1,0.2-0.1,0.3-0.1c0.1,0,0.2,0,0.2,0.1c0.1,0.2,0,0.3-0.2,0.3
				C54.7,150.1,54.6,150,54.6,149.9z M55,154.8h0.3v0.4h-0.4v-0.3C55,154.9,55,154.9,55,154.8z M55,150.6c0.2-0.1,0.3,0,0.3,0.1
				c0,0.3,0,0.4-0.1,0.5C55.1,151.2,55,151,55,150.6z M55.1,152c0.1,0,0.1,0.1,0.2,0.3c0,0.2,0,0.3,0,0.5c0,0.2-0.1,0.3-0.3,0.3
				c0-0.2,0-0.3,0-0.5C55,152.4,55.1,152.2,55.1,152z M55,154h0.3v0.3H55V154z"/>
		</g>
		<g>
			<path class="st0" d="M63.9,138.1c-0.2-0.1-0.3-0.3-0.5-0.6c-0.1-0.3-0.2-0.6-0.2-0.6c2.8-3.4,5.6-5.4,8.7-6.1
				c0.8,0.3,1.2,0.7,1.4,1c0.9,0.2,1.8,0.5,2.7,0.8c0.8,0.4,1.7,0.9,2.6,1.6c0.9,0.6,1.6,1.1,2.1,1.4c0.5,1.3,0.8,2.6,0.8,3.9
				c0,1.3-0.1,2.5-0.4,3.6c-0.3,1-0.7,2.2-1.4,3.6c-0.7,1.3-1.3,2.4-1.8,3.2c-0.5,0.8-1.2,1.8-2.2,3.1c-0.9,1.3-1.6,2.2-1.9,2.7
				c-0.5,0.2-1.3,0.5-2.5,0.8c-1.1,0.4-2,0.7-2.6,0.8c-0.6,0.2-1.4,0.3-2.3,0.3c-0.9,0-1.7-0.1-2.5-0.5
				C59.6,152.5,59.6,146.2,63.9,138.1z M73.8,136.8c-2.8,1-5.1,3-6.7,5.8c-1.6,2.8-2.4,6.1-2.5,9.8c0.3,0.1,0.8,0.1,1.4,0
				c0.6-0.1,0.9-0.1,1.1-0.1c5.3-4,8.4-9,9.3-15.3c-0.4-1.1-0.7-1.7-0.8-1.8c-0.4-0.1-0.7-0.1-0.9,0.1c-0.2,0.1-0.3,0.4-0.5,0.8
				C74,136.5,73.9,136.7,73.8,136.8z M76.2,140.9c0-0.1,0-0.2,0.1-0.4c0.2-0.3,0.1-0.5-0.1-0.5c0,0.1,0,0.3-0.1,0.5
				C75.9,140.7,76,140.8,76.2,140.9z"/>
			<path class="st0" d="M123.7,134.8c-0.4,0.7-1.3,1.5-2.7,2.5c-1.4,0.9-2.3,1.8-2.7,2.6c-0.3-0.6-0.6-0.6-0.8,0
				c-0.9,0.4-2.3,1.3-4,2.6c-1.7,1.3-3.1,2.2-4.1,2.7c0,0.2,0,0.3,0.1,0.4c-0.2,0.1-1,0.6-2.4,1.7c-1.4,1-2.7,1.6-3.8,1.7
				c0.1,0.3,0,0.5-0.3,0.8c-0.3,0.3-0.7,0.5-1.2,0.8c-0.5,0.3-0.8,0.5-1,0.7c0.8-0.2,1.9-0.7,3.4-1.7c1.5-0.9,2.5-1.6,3-1.8
				c-0.2,0.4-0.6,0.8-1.3,1.2c-0.7,0.3-1.1,0.6-1.3,0.9l-0.1,0.1h-0.4c0.1,0.1,0.2,0.1,0.4,0c0.1,0,0.1,0,0.1-0.1
				c0.5,0,1-0.1,1.5-0.3c0.5-0.2,1-0.5,1.6-0.9c0.6-0.4,1.1-0.7,1.5-0.8c-0.3,0.5-1,1.1-2.1,1.9c-1.2,0.7-1.9,1.4-2.3,2
				c-0.1-0.3-0.4-0.3-0.9-0.1c-0.5,0.2-0.8,0.3-0.9,0.3c0.2,0,0.3,0.2,0.3,0.5c0,0.3-0.1,0.5-0.3,0.5c-0.2,0-0.3-0.1-0.3-0.3
				c0-0.2-0.1-0.4-0.3-0.5c-0.2,0-0.2,0.3,0,0.8c-0.1-0.1-0.4,0-0.8,0.1c-0.5,0.2-0.8,0.1-0.8-0.3c-0.3,0.2-0.3,0.4,0,0.6
				c0.3,0.3,0.3,0.4,0.1,0.5c-3.2,2.2-6,3.4-8.4,3.6c-3.5,1.5-5.4,2.3-5.6,2.5c-0.2,0-0.3,0-0.3-0.1c-0.6,0.7-1.8,1-3.5,1
				c-1.7,0-2.8-0.3-3.2-0.7c-0.1,0.2-0.2,0.3-0.5,0.4c-0.2,0.1-0.4,0.2-0.5,0.3c-4.7-2.1-6.8-5.3-6.5-9.6V151
				c-0.1-0.1-0.2-0.3-0.4-0.5c0.8-3.4,2.2-6.5,4.2-9.6c2-3,3.7-5.2,5.1-6.5c1.4-1.3,3.7-3.4,7.1-6.3c2.6-0.6,4.5-0.8,5.7-0.6
				c1.7,0.7,2.9,1.3,3.5,1.9c0.3,0.4,0.4,0.7,0.5,0.8c-0.3,1-0.5,1.9-0.8,2.5c-0.3,0.6-0.7,1.2-1.3,1.7c-0.6,0.5-1.4,0.7-2.3,0.6
				c-0.2-0.3-0.3-0.7-0.3-1.2c0-0.6,0-1-0.1-1.2c-3.2,2.1-5.7,3.9-7.6,5.4c-1.9,1.6-3.8,3.8-5.7,6.8c-1.9,3-3.1,6.3-3.6,9.9
				c0.1,0.4,0.5,1,1.2,1.7c2.2,0.3,4.5-0.1,7-1.3c4.6-1.5,9-3.5,13.2-5.8c4.3-2.3,9.1-5.3,14.5-8.9c5.4-3.7,9.3-6.2,11.6-7.6
				c0.3,0.3,0.2,0.6-0.1,1C123.6,134.2,123.5,134.6,123.7,134.8z M99,153.7c-0.9,0.1-2.2,0.5-3.7,1.2c-1.6,0.7-2.8,1.2-3.6,1.4
				C93.6,156.2,96.1,155.4,99,153.7z M93.7,153.8c0.9-0.3,1.5-0.6,1.7-0.9C94.5,152.9,94,153.2,93.7,153.8z M94.8,156.3
				c0.4,0.2,0.6,0.1,0.6-0.1C95.2,156.3,95,156.3,94.8,156.3z M99,154.6c-0.1,0-1,0.4-2.8,1.2c-0.3,0-0.4,0.1-0.4,0.3
				c0.3,0,0.4-0.1,0.4-0.3c0.3,0,0.7-0.1,1-0.2c0.3-0.1,0.7-0.3,1-0.5C98.6,154.9,98.9,154.7,99,154.6c0.2,0,0.3-0.1,0.5-0.4
				c0.1-0.1,0-0.2-0.1-0.3c0,0.1,0,0.1-0.1,0.1C99,154.3,98.9,154.5,99,154.6z M98.3,150.5c-0.2,0.1-0.2,0.2-0.1,0.5
				c0.1,0.2,0.2,0.4,0.2,0.6c0.5-0.2,1-0.6,1.4-1.2c-0.3,0.1-0.5,0-0.8-0.1c-0.1,0.3-0.2,0.6-0.3,0.6
				C98.6,151,98.4,150.8,98.3,150.5z M99.8,153.1v0.3c0.1,0.1,0.2,0.1,0.3,0.1l-0.1-0.5C99.9,153,99.9,153.1,99.8,153.1z
				 M99.9,153.8c0.2,0.1,0.3,0,0.5-0.3C100.1,153.5,99.9,153.6,99.9,153.8z M100.2,151.8c0-0.1,0.1-0.1,0.3-0.1
				c-0.2-0.3-0.3-0.4-0.4-0.5C100.1,151.5,100.1,151.7,100.2,151.8z M100.2,150.2h0.5c0-0.3-0.2-0.3-0.5-0.3V150.2z M101.7,150
				c0.1,0,0.1,0,0.1,0.1l0.3,0.1v-0.4l-0.1-0.1c-0.1-0.1-0.2-0.1-0.3-0.1V150z M102.4,149.7c0.3,0,0.5-0.2,0.5-0.5L102.4,149.7z
				 M104.1,151.9c0.1,0.2,0,0.3-0.3,0.3c-0.1,0-0.1,0-0.1,0.1c-0.3-0.1-0.3-0.2,0-0.4C103.9,151.9,104,151.9,104.1,151.9z
				 M112.3,141.8c-0.1-0.1-0.1,0-0.1,0.1c-0.2,0-0.3,0.1-0.5,0.3c-0.3,0-0.7,0.2-1.1,0.5c-0.4,0.3-0.7,0.5-0.8,0.6
				c0-0.2,0.1-0.3,0.2-0.4c0.1-0.1,0.2-0.2,0.2-0.3c-0.2-0.1-0.3,0-0.5,0.2c-0.1,0.2-0.1,0.4,0.1,0.5c-0.1,0.2-0.3,0.1-0.6-0.3
				c0.2,0.4,0,0.8-0.5,1c-0.5,0.3-0.8,0.5-0.9,0.6c-0.3,0-0.4,0-0.5,0.1c-0.2,0-0.3,0.2-0.5,0.5c-0.5,0.1-0.9,0.3-1,0.6l-0.1-0.1
				c-0.1,0-0.3,0.2-0.8,0.6c0.3,0,0.6-0.2,0.8-0.6l0.1,0.1c0.5-0.1,0.9-0.3,1-0.6c0.2,0,0.3-0.2,0.5-0.5c0.2,0.1,0.3,0,0.5-0.1
				c0.9-0.2,2.2-1,4-2.5c0.3,0.1,0.5,0,0.5-0.3L112.3,141.8z M105.9,150.4c-0.1,0-0.1-0.1-0.1-0.3l-0.1-0.1c0.3-0.1,0.4,0,0.4,0.3
				L105.9,150.4z M107.9,147.4c-0.2,0.3-0.3,0.5-0.5,0.5C107.6,147.6,107.8,147.4,107.9,147.4z M109.1,147.4c-0.2,0-0.3,0-0.5,0
				c-0.2,0-0.3,0-0.3-0.1V147L109.1,147.4z M108.6,143.4l-0.1,0.1C108.5,143.6,108.6,143.6,108.6,143.4z M108.7,145.6
				c0-0.2-0.1-0.3-0.3-0.5C108.5,145.4,108.5,145.6,108.7,145.6z M109.1,147.4c0,0.1,0.1,0.2,0.2,0.3c0.1,0.1,0.1,0.2,0.1,0.3
				c-0.1,0-0.2-0.1-0.3-0.3V147.4z M109.8,146.5c-0.2,0.2-0.3,0.3-0.5,0.3C109.2,146.6,109.4,146.5,109.8,146.5z M110.1,146.6
				c0.1,0.3,0.1,0.4-0.1,0.5c-0.1,0-0.4,0.1-0.7,0.1C109.7,146.8,110,146.6,110.1,146.6z M109.8,146.5c0.3-0.4,0.5-0.6,0.8-0.6
				C110.1,146.3,109.8,146.5,109.8,146.5z M110.7,146.7c0-0.1,0-0.1,0.1-0.1C110.8,146.7,110.7,146.7,110.7,146.7z M112.5,146
				c-0.2,0.5-0.4,0.8-0.6,0.8c0.2-0.1,0.3-0.2,0.3-0.4C112.1,146.1,112.2,146,112.5,146z M112.2,144.7c0-0.1,0-0.1,0.1-0.1
				C112.3,144.7,112.3,144.8,112.2,144.7z M114.9,140.3l-0.1,0.1c-0.4,0-0.8,0.2-1,0.6c-0.1,0-0.2,0.1-0.4,0.3
				c-0.1-0.1-0.1,0-0.1,0.1c-0.3,0-0.4,0.1-0.4,0.3c0.3,0,0.4-0.1,0.4-0.3l0.1-0.1c0.1,0,0.2-0.1,0.4-0.3c0.5-0.1,0.9-0.3,1-0.6
				C114.9,140.5,114.9,140.4,114.9,140.3c0.2,0,0.4-0.1,0.6-0.4C115.4,139.8,115.2,139.9,114.9,140.3z M113.6,143.9
				c-0.1,0-0.2,0.1-0.3,0.3c-0.1,0.2-0.2,0.3-0.4,0.3C113,144.1,113.2,143.9,113.6,143.9z M116.1,142.7c0-0.1,0-0.1-0.1-0.1
				c-0.1,0-0.2,0-0.3,0C115.7,142.7,115.8,142.7,116.1,142.7c0,0.3-0.2,0.3-0.6,0.3c-0.4-0.1-0.6,0-0.6,0.4c-0.2-0.1-0.3,0-0.5,0.1
				c-0.2,0.2-0.3,0.3-0.5,0.3c2-1.4,3.5-2.2,4.7-2.6C117.5,142,116.7,142.6,116.1,142.7z M114.8,143.8c0-0.2,0-0.3,0.1-0.3
				C114.9,143.7,114.9,143.8,114.8,143.8z M114.9,143.5v-0.1h0.4C115.1,143.6,115,143.6,114.9,143.5z M115.6,143.8
				c0-0.2,0-0.3,0.1-0.3C115.7,143.7,115.7,143.8,115.6,143.8z M116.1,139.5c0.3,0.3,0.4,0.3,0.4,0
				C116.2,139.2,116.1,139.2,116.1,139.5z M118,142c0.2,0.1,0.2,0.2,0.1,0.3c-0.2,0.1-0.3,0.2-0.3,0.3c-0.3-0.1-0.3-0.2,0-0.4
				L118,142z"/>
			<path class="st0" d="M124.9,157.1c-0.2,0.1-0.3,0.1-0.4,0h-0.1c0,0.1,0.1,0.2,0.3,0.4c0.2,0.2,0.4,0.3,0.5,0.5
				c0.1,0.2,0.2,0.3,0.1,0.5c0,0.2-0.1,0.3-0.4,0.3c-0.3,0-0.4,0.1-0.4,0.3c-2.2-0.5-3.6-2.1-4.1-4.8c-0.5-2.7-0.3-5.3,0.6-7.7
				c-0.1-0.2,0-0.3,0.1-0.4c0.2-0.1,0.3-0.2,0.3-0.3c0.4-1.7,1.1-4.2,2-7.4c0.9-3.2,1.6-5.7,2-7.4c0.8-0.6,2.4-0.5,4.9,0.4
				c0.4,0.6,0.6,1.3,0.6,2.1c0,0.8-0.1,1.5-0.3,2.2c-0.2,0.6-0.5,1.4-0.8,2.4c-0.3,0.9-0.6,1.7-0.8,2.2c-0.3,0.8-0.7,2.1-1.3,3.9
				c-0.6,1.8-1.1,3.2-1.4,4.2c-0.3,1-0.6,2.3-0.9,3.9C125.2,154,125,155.5,124.9,157.1z M136.1,108c0,3.8-1,6.2-3.1,7.1
				c-2.2-0.6-3.1-2-2.7-4.3c0.3-0.2,1.2-0.7,2.5-1.6C134.2,108.4,135.3,108,136.1,108z"/>
			<path class="st0" d="M140.4,142.7v0.1l-0.1,0.1c0,0.1,0,0.2-0.1,0.3c0.1,0,0.2-0.1,0.3-0.4V142.7c-2.5,3.8-4.2,7.2-5.2,10.2
				c0.1,0,0.2-0.1,0.4-0.3v0.5c2.3-1.6,4.5-3.4,6.5-5.3c2-1.9,4.4-4.5,7.2-7.8c2.8-3.3,4.7-5.4,5.4-6.1c1.4-0.3,2.3,0.3,2.7,1.9
				l0.3-0.3v-0.3l-0.1-0.1c1.3,0.3,2,1,2.3,2.1c0.2,1,0.1,2.5-0.2,4.5c-0.3,1.9-0.5,3.4-0.5,4.3c-0.3,0-0.3-0.2-0.1-0.5
				c-0.2,0.2-0.3,0.5-0.3,1c0,0.5,0,0.9,0.2,1.2v0.1c-0.1,0.5-0.2,1.3-0.5,2.3c-0.2,1-0.4,1.9-0.5,2.5c-0.1,0.6-0.1,1.3-0.1,2.1
				c0,0.8,0.1,1.5,0.3,2.1h-0.4c0,0.9,0,1.3,0.1,1.3c0,0.2-0.1,0.3-0.3,0.3c-0.1,0-0.1,0-0.1,0.1c0.3,0.2,0.6,0.6,0.6,1.4
				c0.1,0.8,0.3,1.3,0.5,1.6c-0.1,0-0.3,0-0.5-0.1c-0.3,0-0.4,0-0.4,0.1c0,0.1,0,0.2,0,0.4c-0.4-0.2-0.9-0.2-1.3,0
				c-0.1-0.1-0.3-0.3-0.6-0.7c-0.3-0.4-0.7-0.6-1.1-0.7c-0.6-1.1-1-2.5-1.2-4.1c-0.2-1.6-0.3-3-0.3-4.1c0-1.1,0.2-2.7,0.4-4.8
				c0.2-2.1,0.4-3.6,0.5-4.6c-1.3,1-3,2.8-5.1,5.4c-2.1,2.6-4.2,4.7-6.3,6.3c-2.1,1.6-4.4,2.7-7,3.1c-0.1-0.1-0.5-0.3-1.2-0.5
				c-0.7-0.3-1.3-0.5-1.6-0.8c0.1-0.3-0.1-0.6-0.5-0.8c-0.1-1.4-0.5-2.5-1.3-3.4c1-8.4,5.7-16.2,14-23.3c1.2,0,2.1-0.2,2.6-0.5
				c0.3,0.2,0.8,0.5,1.6,0.8c0.8,0.4,1.4,0.7,1.7,1c0.3,0.3,0.8,0.7,1.2,1.3c0.5,0.6,0.5,1.2-0.1,1.9c-0.1-0.2-0.2-0.2-0.3-0.1
				c-0.1,0.1-0.2,0.2-0.3,0.2c-0.2,0.1-0.4,0-0.6-0.1c-0.2-0.2-0.4-0.3-0.6-0.3c-1,0.3-2.2,1.2-3.6,2.6c-1.4,1.4-2.3,2.2-2.8,2.5
				c-0.3,0.4-0.3,0.7-0.3,0.9c-0.4,0.1-0.8,0.3-1.2,0.7c-0.3,0.4-0.7,0.9-1.2,1.5C141,142,140.6,142.5,140.4,142.7z M133.1,148.3
				h0.3v-0.4h-0.3V148.3z M136.5,149.8c0.2,0.2,0.1,0.6-0.2,1.2c-0.3,0.6-0.5,1.1-0.5,1.2c-0.1-0.3,0-0.7,0.3-1.3
				C136.4,150.4,136.5,150,136.5,149.8z M137,148.5c0.3,0.1,0.4,0.3,0.1,0.6c-0.2,0.2-0.3,0.3-0.3,0.5c-0.2-0.1-0.2-0.3-0.1-0.6
				C137,148.8,137,148.6,137,148.5z M138.2,147.1c0,0.1-0.1,0.2-0.2,0.3c-0.1,0.1-0.2,0.2-0.2,0.3c-0.2-0.1-0.2-0.2-0.1-0.4
				C137.9,147.1,138,147,138.2,147.1z M138.6,145.7c0.3,0.1,0.3,0.3,0,0.8c-0.1,0.1-0.2,0.1-0.3,0.1c-0.1-0.2-0.1-0.3,0.1-0.5
				C138.5,145.9,138.6,145.8,138.6,145.7z M143.2,147.9l0.8-0.1c-0.2,0-0.3,0-0.5,0L143.2,147.9z M144,151.1
				c0.1-0.5-0.2-0.8-0.8-0.8c0,0.1,0.1,0.2,0.3,0.3C143.8,150.8,143.9,151,144,151.1z M144,147.3c-0.1,0.2-0.1,0.3,0,0.4l0.1,0.1
				c0-0.1,0.1-0.3,0.3-0.5c0.2-0.3,0.3-0.4,0.3-0.5c0-0.1,0-0.3-0.2-0.5c-0.1,0.1-0.2,0.4-0.3,0.9
				C144.3,147.5,144.2,147.5,144,147.3z M144,150.1h0.1v-0.3H144V150.1z M146.8,145.7c0,0.3,0,0.6-0.1,0.7c-0.1,0.1-0.2,0.2-0.5,0.3
				c-0.2,0.1-0.4,0.2-0.4,0.3c0.5,0,0.9,0,1,0.1c-1.2,0.8-2.1,1.7-2.7,2.8c0.1,0,0.2,0,0.4,0c0.2,0,0.3,0,0.3,0.1c0,0,0,0.2-0.1,0.3
				c0.4,0,0.6-0.2,0.6-0.6h-0.6c0-0.3,0.2-0.4,0.5-0.5s0.5-0.2,0.5-0.3c0.1,0,0.2,0.1,0.2,0.3c0,0.2,0.1,0.3,0.3,0.2
				c0.3-0.2,0.3-0.4,0-0.6c0.4-0.2,0.9-0.5,1.3-0.9c0.4-0.4,0.5-0.7,0.1-0.9h1c0.4-0.9,1.5-2.2,3.1-3.6c0.1,0,0.1,0,0.1-0.1
				c0,0,0-0.1,0.1-0.1c0.1-0.3,0.4-0.8,1-1.5c0.6-0.7,1-1.3,1.1-1.7c0.1-0.4,0.1-1.1-0.1-2.1c-0.1,0.2-0.4,0.2-0.9,0
				c0,0.2,0,0.3,0.1,0.3c0.1,0.1,0.1,0.2,0.1,0.3c-0.2,0-0.4,0.2-0.6,0.6c-0.3,0.4-0.6,0.6-0.9,0.7c0.1,0.3,0,0.7-0.3,1
				c-0.3,0.3-0.7,0.5-1.1,0.5c-0.1,0.2-0.2,0.5-0.3,0.8c-0.1,0.4-0.3,0.7-0.5,0.8l-0.3-0.3l0.4-0.3c0.2-0.2,0.2-0.3,0-0.5
				c-1.4,0.8-3,2.2-4.8,4.4c0.1,0,0.2,0.1,0.4,0.3c0.2,0.2,0.3,0.1,0.4-0.1c0.1-0.2,0-0.3-0.1-0.3c-0.2-0.1-0.2-0.2-0.1-0.3
				c0.2-0.1,0.4,0,0.6,0.3c0.2,0.3,0.4,0.3,0.5,0c-0.3,0-0.3-0.1,0-0.4C146.7,145.7,146.8,145.7,146.8,145.7z M144.1,151.1h0.4v-0.5
				h-0.4V151.1z M145.3,147.5c0.4,0,0.6-0.1,0.6-0.4C145.5,147.1,145.3,147.3,145.3,147.5z M146.8,145.7c0-0.3-0.2-0.3-0.5-0.2
				c-0.3,0.1-0.5,0.2-0.5,0.1c0.2-0.3,0.6-0.4,1.3-0.4v-0.9l0.5,0.5c-0.2,0.3-0.2,0.5,0,0.6c-0.2,0-0.3,0.1-0.4,0.2
				C147.2,145.8,147,145.8,146.8,145.7z M147.8,145.6c0.1,0.3,0,0.6-0.3,0.6c-0.2,0-0.3,0-0.4,0.1
				C147.2,146.2,147.4,145.9,147.8,145.6z M147.6,150.4h0.1v0.3h-0.1V150.4z M147.8,145.6c0.1,0,0.2-0.1,0.3-0.2
				c0.1-0.1,0.2-0.2,0.4-0.2C148.1,145.4,147.9,145.6,147.8,145.6z M149.9,143.4c0,0.3-0.1,0.5-0.4,0.4
				C149.6,143.5,149.7,143.4,149.9,143.4z M149.8,144.7c0,0.3-0.1,0.4-0.3,0.3v-0.3H149.8z M150.7,142.6c0,0.2-0.1,0.3-0.3,0.3
				C150.5,142.7,150.6,142.6,150.7,142.6z M152.4,141.4c-0.2,0.1-0.3,0.2-0.5,0.4c-0.2,0.2-0.3,0.3-0.5,0.4
				C151.5,141.7,151.8,141.4,152.4,141.4z M151.9,140.8h0.3v0.4h-0.3V140.8z M152.7,140.8c0-0.1-0.1-0.2-0.2-0.3
				c-0.1-0.1-0.2-0.2-0.1-0.4c0.3-0.1,0.4,0,0.5,0.4C152.9,140.7,152.8,140.8,152.7,140.8z M153.4,140.4v0.4h0.5v-0.4H153.4z
				 M157.6,135.5c0.1,0,0.1,0,0.1,0.1C157.6,135.6,157.6,135.6,157.6,135.5z M158.9,147.9c0.1,0.2,0.1,0.5,0.1,0.9
				C158.9,148.8,158.9,148.5,158.9,147.9z M159,146.3c0.1,0,0.1,0.2,0.1,0.5c-0.1-0.1-0.1,0-0.1,0.1V146.3z"/>
			<path class="st0" d="M204.1,88.1c0-0.1,0-0.2-0.1-0.3v-0.1C203.7,87.9,203.8,88.1,204.1,88.1c-0.3,0.9-0.9,2.4-1.6,4.5
				c-0.7,2.2-1.4,3.9-1.9,5.2c-0.5,1.3-1.2,2.8-2,4.5c-0.8,1.7-1.6,3.2-2.4,4.4c0.1,0.1,0.1,0.3,0.1,0.8c-0.2,0.5-0.7,1.9-1.7,4.2
				c-0.9,2.3-1.6,3.7-1.9,4.4c-0.3,0.6-0.9,1.9-1.7,3.9c-0.9,1.9-1.5,3.3-1.9,4.2c-0.4,0.9-1.1,2.1-1.9,3.7c-0.8,1.6-1.6,3-2.2,4
				c-0.6,1-1.4,2.2-2.2,3.6c-0.8,1.3-1.7,2.6-2.5,3.7c0,0.1,0.1,0.2,0.2,0.3c0.1,0.1,0.2,0.3,0.2,0.4c-0.2,0.1-0.3,0-0.5-0.1
				l-0.1-0.3c-0.5,1.5-1,4.1-1.6,7.8c-0.3,0-0.4,0-0.5-0.1c-0.1,0.3,0,0.6,0.1,0.9c0.2,0.3,0.3,0.6,0.3,0.9c-0.3,0.1-0.4,0-0.4-0.4
				c-0.2,0.2-0.2,0.4,0.1,0.8c0.2,0.3,0.2,0.7,0.1,1c-0.5,0-0.7,0.2-0.5,0.5c0,0.1,0.1,0.1,0.2-0.1c0.1-0.1,0.2-0.1,0.3,0.1
				c0,0.1,0,0.3-0.1,0.5c0,0.3-0.1,0.5-0.1,0.6c-0.2,0.1-0.3,0-0.4-0.1c-0.1-0.2-0.2-0.2-0.4-0.1c0,0.6,0.2,0.9,0.5,0.8
				c-0.3,0.5-0.6,0.9-0.9,1.3c0.1,0.3,0.2,0.4,0.4,0.3c0.2,0,0.3,0,0.5,0.1c0.1,0.2,0,0.3-0.3,0.3c-0.3,0-0.4,0.1-0.4,0.2
				c0,0.3,0,0.6,0.1,0.6c-0.2,0-0.3,0.1-0.3,0.3c0.2,0.4,0.4,0.6,0.6,0.5c-0.2,0.3-0.3,0.7-0.5,1.3c-0.2,0.2-0.3,0.3-0.3,0.4
				c0.2,0,0.3-0.1,0.3-0.4l0.3,0.3c0,0.2-0.3,0.3-0.8,0.5c0.1,0.3,0.1,0.5,0.1,0.8c0,0.3,0,0.6,0,0.9c0,0.3,0.2,0.5,0.5,0.6
				c0.1,0.3,0,0.5-0.3,0.7c-0.3,0.2-0.4,0.4-0.4,0.5c0,0.1,0.1,0.3,0.3,0.5c0.2,0.3,0.3,0.6,0.2,0.9h-0.5v1h0.5
				c0,0.4-0.1,0.8-0.3,1.1c-0.2,0.3-0.3,0.6-0.3,1c0,0.1,0.1,0,0.3-0.1c0.2-0.1,0.3-0.1,0.4-0.1v1.4c-0.3,0-0.4,0-0.4,0.1h-0.3
				c0.2,0.6,0.1,1-0.1,1.3l0.1,0.1c0.3,0.3,0.3,0.4,0,0.5c0,0.1,0.1,0.1,0.3,0.1c0.2,0,0.3,0,0.4,0.1c0,0.2,0,0.4,0.1,0.8
				c0,0.3,0,0.5-0.1,0.5l-0.6-0.3c-0.1,0.3-0.1,0.5,0.1,0.6c0.1,0.1,0.2,0.3,0.2,0.5h-0.8c0.5,0.3,0.9,0.3,1.2,0.1
				c0.1,0.3,0.1,0.8,0.1,1.2c0,0.5,0,0.9,0,1.4h-0.5c0.2,0.3,0.3,0.7,0.5,1.4c0.2,0.6,0.4,1.1,0.8,1.4c-0.2,0.6-0.1,1.2,0.3,1.7
				c0.4,0.5,0.6,1.1,0.6,1.7c-0.3-0.1-0.5-0.1-0.8,0.1c-0.3,0.1-0.5,0.2-0.6,0.2c-0.2-0.2-0.6-0.5-1.3-0.9c-0.7-0.4-1.1-0.9-1.2-1.4
				c-0.2,0-0.3,0-0.5,0.1c-0.1,0.1-0.3,0.1-0.5,0.1c-2.8-6.1-3.1-16.1-0.9-30c-0.3-0.3-0.3-1.3,0.3-2.8c-0.1-0.9,0-2.3,0.2-4.2
				c0.2-1.9,0.3-3.2,0.3-4.1c0.1,0,0.3-0.1,0.6-0.3c-0.3-0.1-0.4-0.2-0.3-0.5c0-0.2,0.2-0.3,0.6-0.3c0.2-1.7,0.6-4.3,1.2-7.6
				c0.6-3.4,1.1-5.6,1.2-6.6c0.1,0,0.1-0.2,0.1-0.5c-0.1,0.1-0.1,0.3-0.1,0.5c-0.4,0-0.5-0.2-0.3-0.5c0.2-0.2,0.4-0.2,0.6-0.1
				c-0.1-0.4,0-1.1,0.1-1.9c0.2-0.9,0.2-1.4,0-1.6c0.8-2.1,1.2-3.8,1.2-5.3c0-0.3,0.1-0.3,0.3-0.1c0.1,0.1,0.2,0.1,0.3,0.1
				c0.2-0.2,0.2-0.4,0.1-0.8c-0.1-0.3,0-0.6,0.1-0.6h-0.4c0.3-0.4,0.6-1.2,0.8-2.5c0.2-1.2,0.5-2,1-2.5c0-2.2,0.2-3.3,0.6-3.5
				c0.3-1,0.6-1.6,0.6-1.6c0-0.1-0.2-0.1-0.5-0.1c0.2-0.3,0.3-0.6,0.4-1.2c0.1-0.5,0.2-1,0.3-1.4c0.1-0.4,0.2-0.8,0.5-1.2
				c0.2-0.4,0.5-0.6,1-0.6c-0.2-0.1-0.2-0.4,0-0.9c-0.2,0-0.3,0.1-0.3,0.4c0,0.3-0.1,0.4-0.2,0.4c-0.3-0.3-0.3-0.9,0.2-1.6
				c0.5-0.7,0.5-1.3,0.2-1.7l0.3-0.5c0.1-0.3,0.3-0.3,0.5-0.3c-0.5-1.6-0.2-2.8,1-3.6c0.1-0.2,0.1-0.4,0-0.6
				c-0.1-0.2-0.1-0.4-0.1-0.5c0.5-1.2,1.3-3.3,2.4-6.1c1.1-2.9,2.1-5.4,3-7.4c0.9-2.1,2-4,3.1-5.7c0.1-0.2,0.3-0.6,0.7-1.3
				c0.4-0.7,0.6-1.2,0.8-1.4c0.1-0.3,0.4-0.7,0.7-1.3c0.3-0.6,0.6-1.1,0.8-1.4c0.2-0.3,0.5-0.7,0.9-1.1c0.4-0.4,0.8-0.8,1.1-1.1
				c0.3-0.3,0.7-0.6,1.2-0.9c0.4-0.3,0.9-0.5,1.4-0.7c-0.1,0.2-0.1,0.3,0,0.5c0.1,0.1,0.1,0.2,0.1,0.3c0.2,0,0.2-0.1,0.1-0.4
				c-0.1-0.3-0.1-0.4-0.1-0.5c1.6-0.3,3.1-0.1,4.6,0.5c1.5,0.6,2.6,1.4,3.2,2.5H209c0.3,0,0.5,0.1,0.6,0.3c0.2,0.2,0.3,0.4,0.3,0.6
				c0,0.2,0.1,0.5,0.2,0.9c0.1,0.4,0.1,0.7,0.1,0.8c-0.4,0-0.6,0.1-0.6,0.3c0,0.1,0.2,0.1,0.6,0.1v1.9c-0.1,0.1-0.2,0.2-0.3,0.3
				c-0.1,0.1-0.2,0.1-0.3,0.1c0.3,1,0.3,2,0.1,3l-0.3,0.1c-0.2,0-0.3,0-0.4,0.1c0.3,1.8-0.5,5-2.5,9.6c0.3,1-0.1,2.2-1.4,3.5
				c0.3,0.5,0.3,0.8-0.3,0.9C205.3,86,205,87,204.1,88.1z M172.7,166.3c0-0.3,0.1-0.7,0.2-1.3c0.1-0.6,0.1-0.9-0.2-1
				C172.4,164.9,172.4,165.6,172.7,166.3z M172.7,162.6c0.3-0.5,0.4-1.2,0.1-1.9c0-0.3-0.1-0.3-0.3-0.3c0.3,0.2,0.3,0.5,0.1,1.1
				C172.5,162.1,172.5,162.5,172.7,162.6z M173.2,157.5c0-0.2,0.1-0.5,0.2-0.9c0.1-0.4,0.1-0.7-0.2-0.8c0,0.2-0.1,0.5-0.2,1
				C172.9,157.2,173,157.5,173.2,157.5z M173.3,155l0.1-1.3l-0.1-0.1c0.1,0.3,0.1,0.6-0.1,0.9C173.1,154.8,173.2,155,173.3,155z
				 M173.5,162.9v-0.6c-0.1,0-0.2,0-0.3,0.1C173.2,162.7,173.3,162.9,173.5,162.9z M173.3,165.1c0.1-0.2,0.1-0.4,0.1-0.6
				s-0.1-0.4-0.3-0.5c0.1,0.1,0.1,0.2,0.1,0.4c0,0.2-0.1,0.3-0.1,0.5C173.2,165,173.3,165.1,173.3,165.1z M173.3,160.8
				c0.3,0.1,0.4,0,0.4-0.3c0-0.3-0.1-0.3-0.4-0.3V160.8z M173.7,152.6c0.1-0.1,0.1-0.3,0.1-0.6c0-0.3,0-0.5-0.1-0.5
				c0,0.1-0.1,0.3-0.2,0.6C173.4,152.4,173.5,152.6,173.7,152.6z M173.9,151.1c0.2-0.3,0.1-0.6-0.1-0.6
				C173.7,150.9,173.8,151.1,173.9,151.1z M174,150.2v-0.9c0,0.1,0,0.3-0.1,0.5C173.8,150,173.8,150.1,174,150.2z M174.1,148.8
				c0-0.2,0-0.4,0.1-0.6c0.1-0.2,0.1-0.4,0.1-0.5c0-0.1-0.1-0.2-0.3-0.4c0,0.2,0,0.4-0.1,0.6c0,0.2-0.1,0.4-0.1,0.5
				C173.9,148.5,173.9,148.6,174.1,148.8z M174.1,153.6l0.1-0.6l-0.1-0.1c0,0.1,0,0.2-0.1,0.4C173.9,153.4,173.9,153.5,174.1,153.6z
				 M174.2,146.2c0.2,0,0.3-0.1,0.3-0.2c0-0.1,0.1-0.3,0.1-0.5c0-0.2,0.1-0.4,0.2-0.4C174.6,145.1,174.4,145.4,174.2,146.2z
				 M174.6,151.1c-0.2,0.1-0.3,0.2-0.3,0.4c0,0.2,0,0.3,0.2,0.4C174.6,151.8,174.6,151.6,174.6,151.1h0.1c0-0.5-0.1-0.7-0.3-0.6
				C174.4,150.7,174.5,151,174.6,151.1z M174.8,148.9c0-0.1,0-0.2,0.1-0.4l-0.3-0.1C174.6,148.8,174.7,148.9,174.8,148.9z
				 M176.1,134.8h-0.3c0.1,0.2,0.1,0.3-0.1,0.5c-0.1,0.2-0.1,0.3,0.1,0.3C176,135.5,176.1,135.2,176.1,134.8
				c0.6-1.2,0.7-2.2,0.4-3.1c-0.1,0.3-0.2,0.7-0.2,1.2c0,0.6-0.2,1-0.5,1.2c0.1,0.1,0.1,0.2,0.1,0.4
				C176,134.7,176.1,134.8,176.1,134.8z M176.6,167.5c0.3,0.1,0.4,0.2,0.4,0.4h-0.4V167.5z M177.3,127.6c0,0.3-0.1,0.8-0.3,1.4
				c-0.2,0.6-0.3,1.1-0.3,1.4c0,0.3,0,0.7,0.1,1.2c0-0.2,0.1-0.5,0.2-1.1c0.1-0.6,0.2-1.1,0.3-1.6
				C177.3,128.4,177.3,128,177.3,127.6c0.8-2.1,1-3.6,0.8-4.5C177.6,125.8,177.3,127.3,177.3,127.6z M176.8,159.7
				c0.3,0,0.4,0.2,0.4,0.5C176.9,160.2,176.7,160,176.8,159.7z M177.3,131.9c-0.1-0.2,0-0.3,0.1-0.3c0.2,0,0.3-0.1,0.3-0.2
				c-0.3,0-0.3-0.1-0.1-0.3h-0.4c0,0.1,0,0.3,0,0.5L177.3,131.9z M177.9,128.8c-0.2,0.1-0.3,0.3-0.3,0.6c0,0.3,0,0.6,0.2,0.8
				c-0.1-0.2-0.1-0.4,0-0.6C177.8,129.3,177.9,129,177.9,128.8z M177.7,172.6h0.3v0.3h-0.3V172.6z M178.6,129.8h0.3v0.3h0.4
				c0-0.2-0.1-0.3-0.4-0.3C178.8,129.8,178.7,129.8,178.6,129.8c-0.2-0.3-0.3-0.4-0.5-0.1c-0.1,0.3-0.1,0.5,0.2,0.6
				c0-0.1,0.1-0.1,0.2-0.2C178.7,130.1,178.7,130,178.6,129.8z M178.6,121.7c-0.4,0.7-0.5,1.1-0.1,1.3c0-0.2,0-0.4,0.1-0.6
				C178.7,122.2,178.7,121.9,178.6,121.7z M178.8,123.9c0.2-0.5,0.2-0.8,0-0.9c0,0.1,0,0.3-0.1,0.5
				C178.6,123.6,178.6,123.8,178.8,123.9z M178.8,121.4c0-0.2,0.1-0.6,0.3-1.3c0.2-0.7,0.2-1.2,0.1-1.7c0,0.3-0.1,0.7-0.3,1.4
				C178.6,120.5,178.6,121.1,178.8,121.4z M178.9,122.4c0.3,0.1,0.5,0,0.5-0.4c0-0.1-0.1-0.2-0.3-0.3c0,0.2,0,0.3-0.1,0.4
				C178.9,122.3,178.9,122.4,178.9,122.4z M179.3,121.4h0.1c0.5-0.5,0.5-0.8,0-0.8C179.2,120.8,179.2,121.1,179.3,121.4z
				 M180.4,113.3c-0.2,0.3-0.6,1.9-1.2,4.9C179.5,117.7,179.8,116.1,180.4,113.3z M179.3,145.8h0.3v0.4h-0.3V145.8z M179.5,123.9
				c0-0.1,0-0.2,0.1-0.4c0.1-0.2,0-0.3-0.1-0.4c0,0.1,0,0.2-0.1,0.5C179.3,123.8,179.4,123.9,179.5,123.9z M179.5,125.9
				c0.2,0,0.2,0,0.1,0.1h0.4c0-0.3,0-0.5-0.1-0.5c0,0.1-0.1,0.2-0.2,0.2C179.6,125.8,179.5,125.8,179.5,125.9z M180.1,118.4h-0.1
				c0,0.1,0,0.2-0.1,0.3c-0.1,0.1-0.1,0.2-0.1,0.3C179.9,119.1,180.1,118.9,180.1,118.4z M179.7,142.6h0.4v0.4h-0.4V142.6z
				 M180.1,117.4c0.2,0,0.3-0.1,0.5-0.3c0.1-0.2,0.2-0.5,0.1-0.7c0-0.3-0.2-0.4-0.3-0.4C180.3,116.1,180.2,116.6,180.1,117.4z
				 M180.1,124.8c0.2,0.1,0.3,0,0.3-0.3c0-0.3,0-0.5-0.2-0.5c0.1,0.2,0.1,0.3,0,0.5C180.1,124.6,180.1,124.7,180.1,124.8z
				 M180.2,127.7l0.1,0.9L180.2,127.7z M181,126.1c-0.2-0.2-0.2-0.6,0-1.3c-0.3-0.1-0.5,0.1-0.5,0.5
				C180.4,125.8,180.6,126.1,181,126.1z M180.8,115.5c0-0.1,0-0.2,0.1-0.5c0.1-0.2,0-0.3-0.1-0.3
				C180.3,115.2,180.3,115.5,180.8,115.5z M180.7,114.4h0.3c0.1-0.3,0-0.4-0.1-0.5c0,0.1,0,0.2-0.1,0.3V114.4z M181,111.6
				c0-0.2,0.1-0.5,0.3-1.1c0.2-0.6,0.2-0.9-0.1-1.1c0,0.3-0.1,0.6-0.3,1.2C180.7,111.1,180.7,111.4,181,111.6z M180.8,122.2h0.8
				c-0.1-0.2-0.1-0.4,0.1-0.6c0.1-0.3,0.2-0.4,0.3-0.5c0-0.1-0.1-0.2-0.3-0.4c0,0.3,0,0.5-0.1,0.6c-0.1,0.2-0.2,0.3-0.3,0.5
				C181,122,180.9,122.1,180.8,122.2z M181.2,124.5c0.1-0.2,0.1-0.3,0-0.5c-0.1-0.1-0.2-0.1-0.4-0.1
				C180.8,124.1,181,124.2,181.2,124.5z M181.1,113.6h0.1c-0.1-0.2-0.1-0.3,0.1-0.5c0.1-0.1,0.2-0.2,0.2-0.3
				C181.2,113,181.1,113.2,181.1,113.6z M181.6,117.8h-0.4c0,0.5,0.1,0.8,0.4,0.9V117.8z M181.2,123c0.4-0.4,0.4-0.6,0-0.6V123z
				 M181.2,126.3c0.2,0,0.4-0.1,0.6-0.4C181.4,125.9,181.2,126.1,181.2,126.3z M181.6,108.5c0.3-0.6,0.4-1,0.1-1.2
				c0,0.1-0.1,0.3-0.3,0.6C181.3,108.3,181.4,108.5,181.6,108.5z M181.6,110.5c0.2,0.1,0.3,0,0.3-0.1c0.1-0.3,0-0.5-0.1-0.5
				c0,0.1,0,0.2-0.1,0.3C181.5,110.2,181.5,110.4,181.6,110.5z M181.9,119.3c0.2,0,0.3-0.1,0.4-0.3c0.1-0.2,0.1-0.4,0.1-0.6
				c0-0.2-0.2-0.3-0.3-0.3c0,0.1,0,0.3-0.1,0.5C181.8,118.9,181.8,119.2,181.9,119.3z M195.1,76.8c0.1,0,0.2,0,0.3-0.1
				c0.1-0.1,0.2-0.1,0.3-0.1c0.3,0.7,0.2,1.3-0.4,1.8c-0.3,0.3-0.6,0.3-0.8,0c-0.1,1.1-0.6,2.2-1.5,3.1c0.3-0.1,0.5,0.1,0.8,0.6
				c-0.1,0.1-0.1,0.2-0.1,0.4c-0.1,0.3-0.3,0.3-0.6,0.3c-0.7,4.1-1.9,6.8-3.5,8.3c0.1,0,0.2-0.1,0.4-0.3c0.3-0.2,0.6-0.2,0.6,0
				c-2.8,9.6-4.4,14.7-4.7,15.5c0.1,1-0.2,2.5-0.7,4.5c-0.6,1.9-0.8,3.4-0.8,4.3c-0.3,0.1-0.4,0.5-0.3,1.3c-0.1-0.1-0.3-0.1-0.6-0.1
				c-0.3,0-0.6,0-0.8-0.1c0,0.2,0.2,0.3,0.7,0.3c0.5,0,0.7,0.2,0.7,0.5c-0.4,0.3-0.7,0.8-0.7,1.6c0,0.8-0.2,1.3-0.6,1.7
				c0.1,0.4,0.1,1.1,0,2.1c-0.1,0.9-0.3,1.7-0.8,2.2c0.2-0.1,0.3,0,0.3,0.3c0.1,0.2,0.2,0.3,0.3,0.3c0.5-0.8,1.2-2.2,2.2-4.1
				c0.9-2,1.8-3.5,2.6-4.5c-0.3,1-1.1,2.6-2.2,4.7c0.1,0,0.2,0,0.5,0.1c0.2,0.1,0.4,0.2,0.5,0.3c0.3-0.3,0.5-0.9,0.4-1.6
				c0.8,0,1.2-0.8,1.4-2.3c0.3,0,0.4-0.1,0.5-0.2c0.1-0.1,0.2-0.3,0.3-0.5c0.1-0.2,0.2-0.4,0.3-0.5l0.1,0.3c0.1,0.3,0.3,0.3,0.5,0.3
				c-0.3-0.3-0.4-0.5-0.1-0.8c0.3-0.3,0.3-0.7,0.3-1.1c0.2,0,0.3-0.1,0.5-0.4c0.2-0.3,0.3-0.4,0.5-0.4c-0.3-0.3-0.3-0.6-0.1-0.9
				c0.2-0.3,0.6-0.3,1.1-0.1c-0.1-0.2,0-0.4,0.1-0.6c-0.1,0-0.2,0-0.4,0.1c-0.2,0.1-0.3,0-0.3-0.3c0.1,0,0.2,0,0.3-0.1
				c0.7-0.3,0.9-0.6,0.8-1.2l-0.5,0.5c2-1.8,3.3-4.2,4-7.2c0,0.2-0.1,0.3-0.4,0.3c0-0.5,0.1-0.9,0.3-1.3c0.2-0.3,0.5-0.7,0.9-1.1
				c0.4-0.4,0.7-0.6,0.8-0.7c-0.1,0-0.2,0.1-0.4,0.2c-0.2,0.1-0.3,0.1-0.3-0.2c0-0.3,0.1-0.6,0.3-1c0.2-0.4,0.3-0.7,0.3-0.8
				c0.1-0.1,0.2-0.1,0.3,0c0.2,0.1,0.3,0.1,0.4,0.1c0-0.2,0.1-0.4,0.3-0.6c0.2-0.3,0.2-0.4-0.1-0.5c0,0.2-0.1,0.3-0.3,0.4
				c-0.2,0.1-0.3,0-0.3-0.1c0.3-0.8,0.8-1.2,1.3-1.2c-0.1-0.3,0-0.5,0.3-0.8c0.3-0.3,0.4-0.5,0.4-0.7c-0.1,0-0.2,0-0.4,0.1
				c-0.2,0.1-0.3,0-0.4-0.1c0.1-0.3,0.5-0.9,1.2-2c0.7-1.1,1-2,0.7-2.8c0.2-0.1,0.4-0.2,0.6-0.5c0.2-0.2,0.4-0.4,0.5-0.5
				c0.1-0.2,0-0.3-0.2-0.3c-0.2,0-0.3-0.1-0.3-0.2c0.1-0.2,0.2-0.3,0.3-0.3c0.1,0,0.3,0,0.4,0c0.1,0,0.3,0,0.4-0.1
				c0.1-0.1,0.2-0.3,0.2-0.6c-0.4,0-0.6,0-0.6-0.1c0-0.3,0.3-0.7,0.8-1l0.8,0.4c0.1-0.3,0-0.4-0.3-0.5c-0.3-0.1-0.5,0-0.5,0.1
				c-0.2-0.5,0.2-1.4,1-2.7c-0.1-0.2-0.1-0.5,0.1-0.9c0.1-0.4,0.3-0.8,0.6-1.1c0.3-0.3,0.5-0.4,0.6-0.3c0-1.3,0.6-4,1.9-8
				c1.3-4,1.8-7.6,1.5-10.6c-0.8,2-0.9,3.6-0.5,4.8c-0.4,0.3-0.8,0.4-1,0.3c0.1,0.3,0.1,0.5-0.1,0.7c-0.1,0.2-0.2,0.4-0.2,0.6
				c0.1,0.1,0.3,0.1,0.5,0.1h0.4c-0.2,0.6-0.5,0.7-1,0.4c-0.7,2.2-1,3.4-0.9,3.6c0.3,0,0.5,0.1,0.5,0.3v0.1
				c-0.1,0.1-0.2,0.1-0.3,0.1c-0.1,0-0.3-0.2-0.6-0.5c-1,3.7-3.2,9.1-6.6,16.3c-0.4,1.9-1,3.6-1.6,5.2c-0.6,1.6-1.5,3.4-2.5,5.6
				c-1,2.2-1.7,3.6-2.1,4.3c0.1,0.2,0.2,0.2,0.5,0.2c0.2,0,0.4,0,0.5,0.1c-0.1,0.2-0.1,0.3-0.1,0.5c0,0.1,0.1,0.3,0.1,0.5
				c0,0.2,0,0.3-0.1,0.3c-0.1-0.1-0.2-0.1-0.4-0.1c-0.4-0.2-0.6-0.3-0.6-0.5c0.2-0.1,0.3-0.1,0.4,0.1c0.1,0.1,0.2,0.2,0.3,0.2
				c0.1-0.3,0-0.4-0.4-0.5c-0.2,0.1-0.3,0.2-0.3,0.3H192c-1.8,4.5-3.4,7.6-4.9,9.4c0.5-1.6,1.7-4.3,3.6-8c1.9-3.7,3-6.5,3.4-8.5
				c1.1-2,2.2-4.2,3.3-6.8c1.1-2.5,1.9-4.6,2.5-6.2c0.6-1.6,1.5-4.1,2.6-7.4c1.2-3.4,1.9-5.6,2.3-6.6c-0.1-0.5,0.1-2.2,0.6-5
				c0.5-2.8,0.4-4.7-0.4-5.6c-2.1,1.1-3.8,2.7-5.3,4.7l0.4,0.8c-0.1,0.1-0.5,0.4-1.3,0.9c0.3,0.1,0.3,0.2,0,0.4c-0.1,0-0.2,0-0.3,0
				c-0.1,0.8-0.6,2.1-1.7,3.9C195.8,74.5,195.2,75.9,195.1,76.8z M181.9,108.9c0.3,0,0.5-0.1,0.6-0.3c0.1-0.2,0.2-0.4,0.2-0.6
				c0-0.2-0.1-0.4-0.3-0.5C182.4,107.9,182.2,108.4,181.9,108.9z M182,106.3h0.3c0.5-1,0.6-1.9,0.4-2.6
				C182.6,104.5,182.3,105.3,182,106.3z M182.4,117.7c0-0.1,0-0.2,0.1-0.3c0.1-0.1,0.1-0.3,0.1-0.5l-0.1-0.1c-0.1-0.1-0.2-0.1-0.3,0
				c0,0.2,0,0.4,0,0.6C182.3,117.5,182.3,117.7,182.4,117.7z M183,105.8c-0.3,0.2-0.5,0.5-0.6,0.8c-0.1,0.4-0.1,0.7,0.2,0.8
				c-0.1-0.3,0-0.5,0.1-0.8C182.9,106.3,183,106,183,105.8c0.2-0.3,0.3-0.6,0.4-0.6c-0.2-0.1-0.3-0.1-0.4,0.1
				C182.9,105.3,182.9,105.5,183,105.8z M182.6,100.6h0.1c0-0.2,0-0.4,0.1-0.6c0.1-0.2,0-0.3-0.1-0.4l-0.1,0.4
				C182.6,100.2,182.6,100.4,182.6,100.6z M182.8,116c0.3-0.3,0.3-0.6-0.1-0.8c0,0.1,0,0.2,0,0.4C182.6,115.8,182.7,116,182.8,116z
				 M185,98.4h-0.1c-0.2,0.7-0.3,1.1-0.4,1.1c-0.1,0-0.3,0-0.5-0.2c-0.3,1.1-0.4,1.6-0.4,1.6h-0.1c0,0.3-0.1,0.6-0.3,1
				c-0.2,0.4-0.2,0.8-0.1,1.2c0.2-0.3,0.3-1,0.5-2.2c0.3-0.7,0.7-1.1,1.4-1.3V98.4z M183.2,104.5h0.3v-0.3h-0.3V104.5z M183.6,104
				c0-0.1,0-0.2,0.1-0.3c0.2-0.3,0.1-0.4-0.1-0.5c0,0.1,0,0.2-0.1,0.4C183.3,103.7,183.4,103.9,183.6,104z M184.1,102.1
				c0-0.2,0.1-0.4,0.2-0.6c0.1-0.3,0.2-0.5,0.3-0.6c0-0.1,0-0.3-0.2-0.5c-0.1,0.1-0.2,0.4-0.3,0.8C184,101.8,184,102.1,184.1,102.1z
				 M184.2,99.2c0-0.2,0.1-0.5,0.3-0.9c0.2-0.4,0.2-0.7,0.1-0.9c0,0.2-0.1,0.5-0.3,0.9C184,98.7,184,99,184.2,99.2z M184.3,95.3
				c0-0.1,0.1-0.1,0.3-0.1c-0.2-0.2-0.3-0.3-0.4-0.3C184.2,95.2,184.2,95.3,184.3,95.3z M185.1,95.7c-0.3,0.1-0.4,0.4-0.4,0.9
				C185,96.6,185.1,96.3,185.1,95.7h0.3c0-0.1,0-0.3,0.1-0.5c0-0.3,0.1-0.5,0.1-0.6c0-0.1,0-0.2-0.1-0.3
				C185.2,94.5,185.1,95,185.1,95.7z M185.4,98c0.2-0.1,0.2-0.3,0.1-0.5c-0.1-0.3-0.2-0.3-0.3,0c0.2,0,0.2,0.1,0.1,0.2
				C185,97.8,185.1,97.9,185.4,98z M186.3,92.3c0.2-0.2,0.4-0.3,0.8-0.3c-0.3,0-0.4-0.1-0.4-0.3c0-0.2,0-0.3,0.1-0.5
				c0-0.2,0-0.4-0.1-0.6L186.3,92.3z M186.5,87.5c0.4-0.3,0.7-0.6,0.8-1.2c-0.3,0-0.5,0.2-0.7,0.5C186.4,87.1,186.4,87.4,186.5,87.5
				z M187,117c0.3,0,0.5,0.2,0.4,0.5H187V117z M187.2,98.4h0.3v-0.3h-0.3V98.4z M187.4,86c0.2-0.3,0.1-0.6-0.1-0.6
				C187.3,85.8,187.3,86,187.4,86z M187.7,96.5v0.3c0.2,0.1,0.3,0,0.3-0.2c0-0.2,0-0.3-0.2-0.3C187.8,96.4,187.8,96.5,187.7,96.5z
				 M187.8,87.3v0.3c0.1,0.1,0.2,0.1,0.3,0c0-0.2,0-0.3-0.1-0.4C187.9,87.2,187.9,87.3,187.8,87.3z M187.9,90.4h0.3V90h-0.3V90.4z
				 M188.5,83h-0.3c0.2,0.2,0.1,0.3-0.1,0.3v0.3c0.2,0.1,0.3,0,0.3-0.3C188.4,83.2,188.5,83.1,188.5,83z M188.9,114.7
				c0.1,0,0.2,0.2,0.4,0.5h-0.1c-0.1-0.1-0.2-0.1-0.3-0.1V114.7z M189.4,114.4h0.3v0.3h-0.3V114.4z M189.8,82.5h0.4v-0.4h-0.4V82.5z
				 M190.8,81.5c0-0.2-0.1-0.3-0.3-0.4h-0.3c-0.1,0.2,0,0.3,0.3,0.3C190.6,81.4,190.7,81.5,190.8,81.5z M191,76.7h-0.1
				c-0.3,0.3-0.3,0.4,0,0.5l0.1-0.3C191,76.9,191,76.8,191,76.7z M190.9,110.8c0.3,0,0.5,0.2,0.4,0.5h-0.4V110.8z M191.3,76
				c0-0.1,0-0.2,0.1-0.3c0.1-0.1,0-0.2-0.1-0.2C191,75.9,191,76,191.3,76z M191.6,109.9c0.2-0.1,0.3,0,0.3,0.3
				c-0.1,0.1-0.2,0.2-0.3,0.3V109.9z M192,82.2h0.4V82H192V82.2z M192.7,75.7h0.4v-0.4C192.9,75.3,192.7,75.4,192.7,75.7z
				 M193.5,105h0.4v0.5h-0.4V105z M194,103.2c0.1,0,0.2,0,0.3,0.1l0.1,0.1c0,0.2-0.1,0.3-0.3,0.5C194,103.9,193.9,103.6,194,103.2z
				 M194.3,102.8c0.1-0.3,0.3-0.3,0.5-0.1c0.2,0.1,0.2,0.2,0.1,0.4c-0.2,0.1-0.3,0-0.4-0.1C194.5,102.8,194.4,102.8,194.3,102.8z
				 M195.2,104.5c-0.2,0-0.3,0-0.3,0.1C195,104.6,195.1,104.6,195.2,104.5z M196.3,99.3c-0.1,0.3-0.3,0.4-0.6,0.3
				c0-0.2,0.1-0.3,0.3-0.3C196.1,99.2,196.3,99.2,196.3,99.3z M195.8,103.7c0.1,0,0.2,0,0.4,0.1v-0.1l0.1-0.1h-0.1l-0.3-0.1
				c0,0.1,0,0.1-0.1,0.1C195.9,103.6,195.8,103.6,195.8,103.7z M197.8,96.5c0,0.2-0.1,0.3-0.3,0.4c-0.2,0.1-0.3,0-0.4-0.1
				C197.1,96.4,197.3,96.3,197.8,96.5z M198.3,96.7h0.5c0,0.2,0,0.3-0.1,0.4c-0.1,0.1-0.1,0.2-0.1,0.4
				C198.5,97.5,198.4,97.2,198.3,96.7z M198.8,92.6c0.3-0.1,0.5,0,0.5,0.4C199,93,198.8,92.8,198.8,92.6z M199.6,90.3
				c0.2,0,0.2,0.1,0.1,0.4h-0.3v-0.3L199.6,90.3z M199.7,89.2h0.6v0.4c-0.1,0-0.1,0-0.1,0.1l-0.3-0.1
				C199.7,89.6,199.6,89.5,199.7,89.2z M201.8,84.8c0-0.1,0.1-0.1,0.2-0.1c0.1,0,0.2,0,0.2,0.1c0,0.1,0,0.1-0.1,0.1
				C201.9,85,201.9,84.9,201.8,84.8z M202.4,83h0.3v0.4h-0.3V83z M203.2,81.2c0.3,0,0.4,0.2,0.4,0.5c0-0.1-0.1-0.1-0.3-0.2
				C203.2,81.5,203.1,81.4,203.2,81.2z M204.4,78.4h0.5c0,0.3,0,0.5-0.1,0.6c-0.1,0.1-0.2,0.2-0.4,0.1V78.4z M205.1,76.4
				c0.3,0,0.4,0.1,0.4,0.4C205.3,76.9,205.1,76.8,205.1,76.4z M206.7,72.9c-0.1,0.1-0.3,0-0.6-0.1c0.1-0.3,0.3-0.3,0.5-0.3
				C206.7,72.6,206.8,72.8,206.7,72.9z M207.2,71.3c0.4,0.2,0.5,0.4,0.1,0.6c-0.2,0-0.3-0.1-0.3-0.2C207,71.6,207,71.4,207.2,71.3z
				 M207.6,76c0.2,0,0.3-0.1,0.5-0.3C207.9,75.8,207.8,75.9,207.6,76z"/>
		</g>
		<g>
			<path class="st0" d="M229.6,116.6h-0.1h-0.4c0.1,0.1,0.2,0.1,0.3,0.1c0.1,0,0.1,0,0.1-0.1H229.6c-0.3,0.7-0.8,1.6-1.7,2.5
				c-0.9,1-1.4,1.8-1.5,2.4c-0.3,0.1-0.6,0.3-0.9,0.7c0,0.4,0.1,0.7,0.4,0.7c-0.1,0-0.2,0.1-0.3,0.3c-0.1,0.2-0.3,0.4-0.5,0.5v-0.5
				l0.1-0.1c0.2,0,0.3,0,0.3-0.1c-0.3-0.1-0.4,0-0.4,0.3c-0.2,0.1-0.4,0.4-0.7,0.8c-0.3,0.4-0.7,0.7-1.1,0.7c0,0.2,0.1,0.3,0.3,0.3
				c-2.8,4-4.2,6.1-4.3,6.3c-1.1,1.2-1.9,2.5-2.5,3.9c-2.2,2.9-4.3,6.3-6.3,10.3c0,0.2,0.1,0.2,0.2-0.1c0.1-0.2,0.2-0.2,0.2,0.1
				c-0.2,0.4-0.2,0.7-0.1,0.9c-0.2,0.1-0.3,0-0.3-0.3l-0.1-0.3c-1.4,1.9-2.8,4.5-4,7.8c0,0.1,0.2,0.1,0.5,0.1
				c-1.3,0.8-1.9,1.8-1.6,3.1c-0.2-0.6-0.4-0.4-0.8,0.5c-0.2,0.3-0.3,0.4-0.3,0.5c0,0.1,0,0.1,0.1,0.1c0.1,0,0.1,0,0.1,0.1
				c-0.1,0.4-0.3,0.9-0.6,1.5c-0.3,0.7-0.4,1.3-0.3,1.9c-0.3,0-0.4,0-0.5,0.1c0,0.1-0.1,0.2-0.1,0.4c0.1,0.4,0,0.5-0.4,0.5
				c0.2,0.4,0.3,0.7,0.3,0.8c-0.4,0.7-0.6,2.2-0.7,4.4c-0.1,2.2-0.4,3.8-0.9,4.6c-0.1,0-0.2-0.1-0.5-0.2c-0.2-0.1-0.5-0.2-0.7-0.1
				c-0.2-0.4-0.4-1.3-0.7-2.5c-0.3-1.2-0.5-2-0.8-2.5c0.1-0.3,0.1-0.6,0.1-0.9c0-0.4,0-0.7,0.1-1c0.1-0.3,0.3-0.5,0.5-0.5
				c-0.1-1.2-0.1-2.4,0.1-3.7c0.1-1.3,0.3-2.4,0.6-3.2c0.3-0.9,0.6-2,1.1-3.4c0.4-1.4,0.8-2.5,0.9-3.1l0.9-0.9
				c0-0.4,0.2-0.8,0.5-1.3c0.3-0.5,0.4-1,0.3-1.5c0.5-0.6,1.4-2.2,2.5-4.6c1.2-2.5,2.3-4.2,3.4-5.2c0.7-1.9,2-4.3,4-7.2
				c1.9-2.9,3.1-4.8,3.6-5.6c0.3-0.1,0.5-0.1,0.8,0c0.3-1.5,1.2-2.9,2.7-4c0.2-0.8,0.8-1.9,1.9-3.2c1.1-1.3,1.8-2.3,2.1-2.8
				c0.1,0,0.2,0.1,0.3,0.3c0.1,0.2,0.2,0.4,0.4,0.5c-0.1-0.2-0.1-0.4-0.1-0.8s0.1-0.6,0.1-0.8c0.3-0.4,2.2-2.8,5.8-7.3
				c3.6-4.5,6.4-7.7,8.6-9.6c0.9-1.2,1.9-2.5,3-3.7c1.1-1.2,2.5-2.6,4-4.3c1.6-1.7,2.7-2.8,3.3-3.4c0.2-0.2,0.4-0.6,0.8-1.3
				c0.4-0.7,0.8-1.1,1.2-1.1c0-0.6,0.1-1,0.3-1.2c-4.8-0.2-11.6,0.4-20.2,1.8c-8.6,1.4-14.6,2.1-17.9,2.2c-0.6,0-1.3-0.1-2.1-0.4
				c-0.1-0.2-0.2-0.6-0.5-1.3c-0.2-0.7-0.5-1.2-0.7-1.3c0.4-1.4,0.8-2.3,1.2-2.5c0.4,0.3,0.8,0.2,1.2-0.1c2.1,0.1,3.5,0.2,4.2,0.3
				c0.8,0.1,2.2,0,4.4-0.3c2.1-0.3,3.6-0.4,4.4-0.5c0.8-0.1,2.3-0.3,4.4-0.6c2.1-0.3,3.5-0.5,4.1-0.6h2c3.3-0.8,8.4-1.1,15.3-0.9
				c1.6,0.3,2.8,0.9,3.6,2c-0.4,0.7-0.3,1.2,0.3,1.3c0,0.1-0.1,0.1-0.4,0.1c0.1,0.4,0.4,0.9,0.8,1.3c-0.2,0-0.2,0.4,0,1.2
				c-0.1,0.4-0.3,1.1-0.7,2.1c-0.4,1-0.7,1.7-0.9,2.1c-0.2,0.4-0.5,1-0.9,1.7c-0.4,0.7-0.8,1.3-1.3,1.8c-0.4,0.5-1,0.9-1.6,1.3
				c0.1,0.8-0.4,1.3-1.5,1.5c0,0.5,0,0.9-0.1,0.9c-0.4-0.1-0.7,0.1-0.9,0.5c-0.3,0.4-0.5,0.6-0.8,0.6c0,0.1,0.1,0.2,0.2,0.3
				c0.1,0.1,0.2,0.3,0.1,0.5c-0.2,0-0.4,0.1-0.7,0.3c-0.3,0.2-0.6,0.2-0.9,0.1c-0.1,0.4-0.1,0.9,0,1.3c-0.6,0.4-1.3,0.8-1.9,1.3
				c-0.6,0.5-0.9,0.9-0.8,1.3c-0.1,0.2-0.4,0.4-1.1,0.8c-0.6,0.4-0.9,0.8-0.7,1.3c-0.4,0.1-0.8,0.6-1.3,1.6c-0.7,0-1.1,0.3-1.1,0.8
				c-0.4-0.3-1-0.1-1.9,0.4c0.1,0.2,0.2,0.2,0.3,0.1c0.3-0.1,0.4-0.1,0.5-0.1c0,0.3-0.2,0.6-0.6,0.9c-0.4,0.4-0.6,0.8-0.5,1.3
				c-0.1,0-0.2,0-0.3-0.1h-0.3c0,0.4-0.1,0.8-0.2,1.1c-0.1,0.3-0.3,0.6-0.5,0.9c-0.2,0.3-0.4,0.6-0.5,0.7c-0.3-0.1-0.3-0.2-0.1-0.5
				c0.2-0.2,0.2-0.4,0.1-0.5c-0.5,0.3-0.8,0.9-0.8,1.9c-0.3,0-0.4-0.1-0.4-0.4c-0.5,0.4-1.3,1.3-2.1,2.4
				C231,115.3,230.2,116.1,229.6,116.6z M199,165.9c0-0.5,0-0.8-0.1-0.8l0.1,1.2C199,166.2,199,166.1,199,165.9z M204.5,148.9
				c-0.3,0-0.4,0-0.4,0.1C204.4,149,204.5,149,204.5,148.9z M204.8,148.6c0.5-0.5,0.5-0.9,0-1.1V148.6z M205.5,148.1
				c0.3,0.1,0.4,0,0.4-0.4l-0.1-0.3c0,0.1,0,0.2-0.1,0.3C205.5,147.9,205.5,148,205.5,148.1z M205.7,152.4c0-0.1,0-0.1-0.1-0.1
				c-0.1,0-0.1,0-0.1,0.1H205.7z M205.6,146.3c0.2,0,0.4-0.2,0.5-0.7c-0.2-0.1-0.3,0-0.3,0.3C205.7,146.2,205.7,146.3,205.6,146.3z
				 M205.7,154.6h0.4c0,0.1-0.2,0.2-0.5,0.4v-0.1L205.7,154.6z M207.1,143.8c0.2,0,0.3-0.2,0.4-0.5c0.1-0.3,0-0.5-0.1-0.6
				c0,0.2-0.1,0.3-0.2,0.5C207,143.3,207,143.5,207.1,143.8z M207.9,150.2h0.3v0.5h-0.3V150.2z M208.5,149.1v0.8
				C208,149.9,208,149.7,208.5,149.1z M208.1,141.8c0.3-0.3,0.8-1.1,1.6-2.5C209.1,139.6,208.6,140.4,208.1,141.8z M208.5,143v-0.7
				l-0.1,0.5L208.5,143z M208.8,148.3c0.2,0.1,0.3,0.2,0.3,0.4c0,0.2,0,0.3-0.1,0.4C208.7,148.9,208.6,148.6,208.8,148.3z
				 M209.5,141h-0.4v0.4C209.3,141.4,209.5,141.2,209.5,141z M209.1,143.1c0.1,0,0.2,0,0.3,0l0.1,0.1c0-0.4-0.1-0.5-0.4-0.5V143.1z
				 M210.1,141.6c-0.1,0-0.2,0-0.4,0H210.1z M210.6,139.1c-0.7,0.4-0.8,0.6-0.3,0.8c0-0.1,0.1-0.2,0.2-0.3
				C210.6,139.4,210.6,139.3,210.6,139.1h0.1c0.4-0.4,0.4-0.7,0-0.7v0.3C210.6,138.9,210.6,139,210.6,139.1z M210.1,138.7
				c0-0.1,0.1-0.3,0.3-0.5c0.2-0.3,0.2-0.4-0.1-0.5C210.1,138.2,210,138.6,210.1,138.7z M210.4,143.5c0-0.1,0-0.1-0.1-0.1
				c-0.1,0-0.1,0-0.1,0.1H210.4z M210.3,142.2v0.3c0.2,0.1,0.3,0,0.3-0.2c0-0.2,0-0.3-0.2-0.3C210.4,142.1,210.4,142.2,210.3,142.2z
				 M211.5,136h-0.1c0,0.1,0,0.2-0.1,0.3c-0.1,0.1-0.1,0.3-0.1,0.5c0.3,0,0.4-0.2,0.4-0.5C211.5,136.2,211.5,136.1,211.5,136
				c0.2,0,0.4-0.1,0.5-0.4c0.1-0.1,0-0.2-0.1-0.3c0,0.1-0.1,0.2-0.2,0.3C211.6,135.7,211.5,135.8,211.5,136z M211.5,143.8
				c0.2-0.1,0.3-0.1,0.4,0l-0.1-0.1C211.7,143.6,211.6,143.7,211.5,143.8z M211.9,138.7c0.3-0.4,0.3-0.5,0-0.5
				C211.6,138.5,211.6,138.7,211.9,138.7z M212.2,136.5c0-0.2,0.1-0.4,0.4-0.5c0.3-0.2,0.4-0.4,0.4-0.7c-0.3,0-0.5,0.2-0.7,0.5
				C212.1,136.1,212.1,136.4,212.2,136.5z M212.7,138.5c0-0.1,0-0.2,0.1-0.3c0.2-0.4,0.2-0.6,0-0.7c0,0.4-0.2,0.4-0.5,0
				C212.5,138.2,212.6,138.5,212.7,138.5z M212.3,140c0.3,0.1,0.4,0,0.5-0.4l-0.1-0.3c0,0.1-0.1,0.2-0.2,0.3
				C212.4,139.7,212.3,139.8,212.3,140z M212.8,134.1h0.5c0-0.1,0-0.2,0-0.4c0-0.1,0-0.2-0.1-0.2c0,0-0.2-0.1-0.3-0.1l-0.1,0.3
				C212.8,133.8,212.8,133.9,212.8,134.1z M213.9,133.6c-0.7,0.7-1,1.3-0.8,1.6c0.1-0.1,0.3-0.3,0.5-0.7
				C213.9,134.2,214,133.9,213.9,133.6c1.1-0.6,1.5-1.3,1.3-2.1l-0.5,0.8C214.3,132.8,214,133.2,213.9,133.6z M213.6,132.8l0.3,0.1
				c0-0.4-0.1-0.5-0.3-0.4V132.8z M214.2,132.2c0.2,0.1,0.3,0,0.3-0.3c0-0.2,0-0.3,0.1-0.3C214.3,131.6,214.2,131.8,214.2,132.2z
				 M215,131.3v-0.8c0,0.1,0,0.2-0.1,0.3C214.7,131,214.7,131.2,215,131.3z M215.2,130.2h0.3v-0.4h-0.3V130.2z M215.5,132.5h0.4
				c0.1-0.3,0-0.4-0.1-0.5C215.8,132.2,215.7,132.3,215.5,132.5z M215.5,133.5c0.3-0.1,0.4,0,0.5,0.1c0.1,0.1,0.2,0.1,0.3,0.1
				c-0.2-0.2-0.2-0.4-0.1-0.6c0.1-0.2,0-0.4-0.1-0.5c0.1,0.2,0,0.3-0.2,0.4C215.6,133.1,215.5,133.3,215.5,133.5z M216.6,129.7
				c-0.2,0-0.4,0.2-0.7,0.7C216.4,130.4,216.6,130.1,216.6,129.7z M216.6,135.9c-0.2,0.4-0.4,0.7-0.5,0.7
				C216,136.3,216.2,136,216.6,135.9z M216.6,130.9v0.3c0.2,0.1,0.3,0,0.3-0.2c0-0.2,0-0.3-0.2-0.3
				C216.7,130.8,216.7,130.9,216.6,130.9z M216.6,135.1h0.5c0,0.2-0.2,0.4-0.5,0.8V135.1z M217,128c0.5-0.8,0.8-1.3,0.7-1.5
				c0,0.1-0.1,0.3-0.3,0.6C217.1,127.4,217,127.7,217,128z M217.5,130.1c0-0.2,0-0.3,0.1-0.3c0-0.3-0.1-0.4-0.3-0.3
				C217.4,129.8,217.4,130,217.5,130.1z M217.7,133.9v-0.1l0.1-0.3c0.3,0,0.3,0.1,0,0.4H217.7z M218.6,130.1c-0.2,0.1-0.3,0-0.4-0.1
				c-0.2-0.1-0.3-0.1-0.4-0.1c-0.1,0.2,0,0.4,0.4,0.5C218.4,130.3,218.5,130.2,218.6,130.1c0.4,0,0.5-0.1,0.5-0.3l-0.1-0.1
				c-0.1-0.1-0.2-0.1-0.4-0.1V130.1z M218.5,126.9l-0.3,0.1c-0.2,0-0.3,0.1-0.3,0.3C218.3,127.3,218.5,127.2,218.5,126.9z
				 M218.6,126.1c0-0.4-0.1-0.5-0.3-0.5C218.3,125.9,218.4,126.1,218.6,126.1z M219,128.5c0-0.4-0.1-0.5-0.4-0.5
				c0,0.4,0.1,0.9,0.4,1.3c0-0.2,0.1-0.5,0.4-1c0.3-0.5,0.2-0.8-0.1-0.9c-0.1,0.1-0.1,0.3-0.1,0.5
				C219.1,128.2,219.1,128.4,219,128.5z M218.7,125.4c0.3,0.1,0.5,0,0.7-0.4c-0.1-0.2-0.2-0.3-0.3-0.4c0,0.1-0.1,0.2-0.2,0.3
				C218.8,125.1,218.7,125.2,218.7,125.4z M219.1,131.2c0.2,0,0.3,0,0.3-0.1c0.3,0.1,0.3,0.3,0,0.5c-0.1,0.1-0.1,0.2-0.1,0.3
				C219.2,131.8,219.1,131.6,219.1,131.2z M219.4,124.5h0.5c0-0.4,0-0.7-0.1-0.7c0,0.1,0,0.1-0.1,0.1
				C219.4,124.1,219.3,124.3,219.4,124.5z M220.2,124.7c-0.3,0-0.4,0.1-0.4,0.3C220.1,125,220.2,124.9,220.2,124.7
				c0.3,0.1,0.5,0,0.6-0.3c0.1-0.3,0.1-0.6-0.1-0.7c0,0.2-0.1,0.3-0.3,0.5C220.2,124.3,220.1,124.5,220.2,124.7z M220.2,126.1
				c0,0.1-0.1,0.1-0.4,0.1c0,0.1,0.1,0.4,0.4,0.9c0-0.1,0-0.2,0.1-0.5c0.1-0.2,0.1-0.4,0.1-0.6c0-0.2-0.1-0.3-0.3-0.4V126.1z
				 M220.3,128.1c-0.2,0-0.3,0-0.3,0.1C220.2,128.2,220.3,128.2,220.3,128.1z M220.6,127.7c-0.1-0.1-0.2-0.1-0.4,0
				c0.1-0.1,0.2-0.1,0.3-0.1L220.6,127.7z M220.3,121.7h0.4v-0.3h-0.4V121.7z M220.3,129.7c0.1-0.1,0.2-0.1,0.4-0.1
				C220.7,129.7,220.6,129.7,220.3,129.7z M220.6,123.3c-0.1-0.1,0-0.2,0.1-0.4c0.2-0.2,0.2-0.3,0-0.4c0,0.1,0,0.2-0.1,0.3
				C220.3,123,220.3,123.2,220.6,123.3z M220.7,126.5c0.1-0.1,0.2-0.3,0.2-0.5c0-0.3,0-0.4-0.2-0.4c0,0.1,0,0.2-0.1,0.3
				C220.4,126.2,220.5,126.4,220.7,126.5z M221,123.1v0.5c0.2-0.1,0.3-0.2,0.5-0.3c0.1-0.1,0.2-0.2,0.3-0.2H221z M224.4,117.8
				c-0.1,0-0.1,0.1-0.1,0.3c-1.5,1.3-2.3,2.4-2.4,3.5c0.2-0.4,0.6-1,1.2-1.7c0.6-0.7,1-1.3,1.2-1.7
				C224.3,118,224.4,117.9,224.4,117.8c0.4,0.2,0.5,0,0.5-0.5c0-0.2,0-0.3-0.1-0.3c0,0.1-0.1,0.2-0.3,0.3
				C224.3,117.4,224.3,117.6,224.4,117.8z M221.9,121.7c0.2,0,0.3,0,0.3,0.1h0.3v-0.1l0.1-0.3C222.3,121.2,222.1,121.3,221.9,121.7z
				 M222.6,123l-0.1,0.3c0,0.2,0,0.3-0.1,0.4c0-0.4,0-0.5-0.1-0.5c-0.2,0.2-0.3,0.4-0.3,0.7c0,0.3,0.1,0.4,0.4,0.4
				c0.4-0.7,0.8-1.1,0.9-1.2H222.6z M223,126.3c0,0.1-0.1,0.2-0.3,0.3c-0.2,0.1-0.3,0.3-0.3,0.5c-0.4-0.1-0.4-0.3,0-0.7
				C222.7,126.4,222.8,126.3,223,126.3z M223.2,120.9c0-0.1,0.1-0.2,0.3-0.4c0.2-0.2,0.3-0.3,0.3-0.4c0-0.1,0-0.2-0.2-0.4
				c0,0.1-0.1,0.2-0.2,0.4c-0.1,0.2-0.2,0.3-0.3,0.5C223,120.6,223.1,120.8,223.2,120.9z M223.4,121.7c0.1,0,0.2,0,0.4,0.1
				c0.1,0.1,0.2,0.1,0.4,0c-0.1-0.3,0-0.7,0.1-1.2H224c0.1,0.3,0,0.5-0.2,0.6C223.5,121.3,223.4,121.5,223.4,121.7z M224.4,120.4
				h0.5c0-0.4,0-0.5-0.1-0.5c0,0.1-0.1,0.2-0.2,0.3C224.4,120.3,224.4,120.4,224.4,120.4z M224.6,119c0.1-0.3,0.3-0.6,0.7-1
				c0.4-0.4,0.7-0.8,0.9-1.1c0.2-0.3,0.2-0.6,0.1-0.9c-0.1,0.4-0.4,0.9-1,1.5C224.8,118.1,224.5,118.6,224.6,119z M225,119.6
				c-0.2,0-0.3,0-0.3,0.1h0.1C225,119.8,225,119.7,225,119.6z M224.8,122.1c0.3,0,0.4-0.2,0.5-0.5c0.1-0.4,0-0.6-0.1-0.7
				C225.1,120.9,224.9,121.3,224.8,122.1z M229.1,111.9h-0.1c-1,1.3-1.5,2-1.6,2.3c-0.4,0.3-0.8,0.7-1.3,1.3c-0.5,0.6-0.8,1-1,1.2
				c0.4-0.2,1.2-1,2.3-2.5c0.2-0.3,0.5-0.6,0.9-1.1C228.7,112.6,229,112.2,229.1,111.9c0.5-0.4,0.7-0.7,0.5-0.8l-0.4,0.1
				C229,111.4,229,111.6,229.1,111.9z M225.8,118.3c0.1,0.3,0.1,0.5-0.1,0.7c-0.1,0.2-0.2,0.5-0.2,0.7c0.2,0,0.3-0.1,0.5-0.3
				c0.1-0.2,0.2-0.4,0.3-0.5c0-0.1,0.2-0.1,0.5,0.1l-0.3-0.8c0,0.2,0,0.3-0.1,0.4C226.1,118.7,225.9,118.6,225.8,118.3z
				 M226.2,113.3h0.3v-0.4h-0.3V113.3z M226.4,121.5h0.3c0,0.4-0.1,0.5-0.4,0.5c0-0.1,0-0.2,0.1-0.3
				C226.3,121.7,226.4,121.6,226.4,121.5z M226.6,115.9c0.2,0,0.4-0.1,0.5-0.2c0.2-0.1,0.4-0.4,0.5-0.7c0.2-0.4,0.3-0.6,0.4-0.7
				C227.7,114.5,227.2,115,226.6,115.9z M226.8,116.8c0.1,0.1,0.1,0.1,0,0.1V116.8z M227.8,117.2c0.8-0.4,0.9-1.1,0.4-2.1
				C228,115.5,227.8,116.2,227.8,117.2z M228.4,114.1c0-0.1,0.1-0.2,0.3-0.4c0.1-0.1,0.1-0.2,0.1-0.4c-0.3-0.1-0.4,0-0.5,0.3
				C228.2,113.9,228.2,114.1,228.4,114.1z M228.9,113.2c0.2,0,0.3-0.1,0.4-0.3c0.1-0.2,0.2-0.3,0.3-0.3
				C229.4,112.4,229.2,112.7,228.9,113.2z M229.2,115.1h0.4v-0.3h-0.4V115.1z M229.7,115.8h0.3c0.1-0.1,0.1-0.2,0-0.3
				c-0.2,0-0.3,0-0.4,0.1C229.7,115.6,229.7,115.7,229.7,115.8z M230,114.5c0.4-0.5,0.3-0.9-0.3-1.1c-0.1,0.2-0.1,0.4-0.1,0.6
				C229.7,114.3,229.8,114.5,230,114.5z M229.9,110.9c0.1,0,0.3-0.2,0.5-0.7C230.2,110.3,230,110.5,229.9,110.9z M230,111.9
				c1.2-0.8,1.7-1.6,1.6-2.3c-0.2,0.4-0.5,0.8-0.9,1.2C230.3,111.2,230.1,111.6,230,111.9z M230.3,113.5c0-0.3,0.1-0.4,0.4-0.3
				c0.3,0.1,0.4,0,0.4-0.4c-0.7,0.3-1,0.4-0.9,0.3C230,113.2,230.1,113.3,230.3,113.5z M231.2,112.1c0-0.1,0.1-0.1,0.3-0.1
				c0,0.4,0,0.5,0.1,0.5c0.1-0.4,0.1-0.6,0-0.7c-0.3-0.2-0.4-0.2-0.5,0C231.1,112,231.1,112,231.2,112.1z M231.6,109.2
				c0.5-0.5,0.5-0.8,0-0.8C231.4,108.8,231.4,109.1,231.6,109.2z M231.6,113.3c0.4,0,0.5-0.1,0.5-0.4
				C232,112.9,231.8,113.1,231.6,113.3z M232.7,108.9c0.1-0.2,0.1-0.4-0.1-0.6c-0.1-0.2-0.2-0.4-0.2-0.6c-0.3,0.1-0.4,0.2-0.3,0.5
				C232.2,108.4,232.4,108.7,232.7,108.9z M232.7,111.1c0-0.1,0.1-0.2,0.2-0.3c0.1-0.1,0.2-0.2,0.1-0.4c-0.2,0.1-0.3,0-0.3-0.1
				c0-0.2-0.1-0.3-0.2-0.3C232.4,110.6,232.5,111,232.7,111.1z M232.7,107.3c0.2,0.1,0.3,0,0.5-0.3c0.1-0.3,0.1-0.4-0.1-0.5
				c0,0.1-0.1,0.2-0.3,0.4C232.6,107,232.6,107.1,232.7,107.3z M232.7,106h0.3v-0.4h-0.3V106z M232.9,111.9c0.3,0.1,0.4,0,0.4-0.4
				c0.1-0.1,0-0.2-0.1-0.3C233.2,111.3,233.1,111.5,232.9,111.9z M233.7,108.9l-0.3-0.1c-0.1,0-0.2,0-0.3,0c-0.1,0.2,0,0.3,0.3,0.4
				C233.6,109,233.7,108.9,233.7,108.9z M233.5,107.7c0-0.2,0.2-0.4,0.7-0.8c0.5-0.4,0.6-0.8,0.5-1.2c0,0.3-0.2,0.6-0.7,1
				C233.5,107.1,233.3,107.4,233.5,107.7z M233.5,106.4c0.2,0.1,0.4,0,0.5-0.3c0.2-0.3,0.1-0.5-0.3-0.5c0.1,0.3,0,0.4-0.1,0.4
				C233.5,106.1,233.5,106.2,233.5,106.4z M233.7,108.5h0.7c0-0.4-0.1-0.7-0.4-0.7c0.1,0.2,0,0.3-0.1,0.4
				C233.8,108.3,233.7,108.4,233.7,108.5z M234.5,110.1h0.3v-0.4h-0.3V110.1z M234.7,107.7c0.2-0.1,0.3,0,0.3,0.1
				c0,0.2,0.2,0.2,0.3,0.1c-0.2-0.2-0.2-0.4-0.1-0.6c0.1-0.2,0-0.4-0.1-0.5L234.7,107.7z M235.4,105.6l0.1-0.1
				c0.3-0.4,0.3-0.6,0-0.7c0,0.1,0,0.2-0.1,0.3C235.1,105.3,235.1,105.5,235.4,105.6z M235.5,103c-0.2,0-0.3,0-0.3,0.1
				C235.4,103.2,235.5,103.1,235.5,103z M235.2,104.4h0.3V104h-0.3V104.4z M235.6,106.5l0.1-0.1h0.1c0-0.4-0.1-0.4-0.4-0.3
				C235.5,106.4,235.5,106.5,235.6,106.5z M235.9,109.2v0.3c0.2,0.1,0.3,0,0.3-0.2c0-0.2,0-0.3-0.2-0.3
				C236,109.1,236,109.2,235.9,109.2z M236,104.5c0.3,0,0.5-0.2,0.7-0.5C236.2,104,236,104.1,236,104.5z M237.1,102.1H237
				c-0.3,0.3-0.3,0.4,0,0.4C237.1,102.4,237.1,102.3,237.1,102.1c1.4-1.2,2.5-2.2,3.1-3.2C239.3,99.3,238.3,100.4,237.1,102.1z
				 M237.5,104.5c-0.4-0.1-0.5,0-0.5,0.4c-0.1,0-0.1,0.1-0.1,0.3c0.1,0,0.1-0.1,0.1-0.3c0.2,0.1,0.3,0,0.3-0.1
				C237.3,104.6,237.4,104.5,237.5,104.5l0.1,0.1c0.1,0.1,0.2,0.1,0.3,0.1v-0.4C237.7,104.4,237.6,104.4,237.5,104.5z M237.1,103
				c0.4,0.1,0.7-0.1,0.8-0.5c0-0.2,0-0.3-0.1-0.3c0,0.1-0.1,0.2-0.3,0.4C237.3,102.8,237.2,102.9,237.1,103z M238.4,79.4
				c-0.1-0.1-0.2-0.1-0.4,0c0.1-0.1,0.2-0.1,0.3-0.1L238.4,79.4z M238.8,103c0.1-0.3,0.2-0.3,0.2-0.1c0,0.2,0.2,0.3,0.3,0.2
				c0-0.2,0.1-0.3,0.3-0.5c0.2-0.1,0.3-0.3,0.3-0.5c-0.8,0.2-1.3,0.4-1.3,0.5C238.7,102.8,238.7,102.9,238.8,103z M239.4,101.1
				c0.2-0.4,0.3-0.6,0.3-0.7c-0.4-0.1-0.5,0-0.5,0.4C239.1,101,239.2,101.1,239.4,101.1z M239.6,79.6c0.3,0,0.5-0.2,0.7-0.5
				C239.9,79,239.6,79.2,239.6,79.6z M239.6,104.8c0.4,0,0.5-0.1,0.5-0.3C240,104.5,239.8,104.6,239.6,104.8z M239.9,100.1
				c0.2,0,0.3-0.1,0.3-0.4l-0.1,0.1C240,99.9,239.9,100,239.9,100.1z M240.2,102.1c0.3,0,0.5-0.1,0.7-0.4c0.1-0.1,0-0.2-0.1-0.3
				c0,0.1-0.1,0.1-0.3,0.1C240.2,101.7,240.1,101.9,240.2,102.1z M240.7,103c-0.3,0-0.4,0-0.4,0.1
				C240.6,103.2,240.7,103.1,240.7,103z M240.4,98.7c0-0.1,0.1-0.2,0.3-0.3c0.2-0.2,0.2-0.3,0-0.4l-0.1,0.1
				C240.3,98.5,240.3,98.6,240.4,98.7z M240.4,79.2c0.1,0,0.2,0,0.3,0c0.2,0.1,0.3,0.1,0.3,0.1c0,0,0.1-0.2,0.1-0.3
				C240.8,78.9,240.6,79,240.4,79.2z M240.7,99.5c0.1-0.2,0.2-0.4,0.5-0.6c0.2-0.2,0.3-0.4,0.3-0.5
				C240.5,98.7,240.3,99.1,240.7,99.5z M241,101.1c0.4-0.2,0.5-0.3,0.5-0.4h-0.4l-0.1,0.1C241,101,241,101.1,241,101.1z M241.1,97.9
				c0.3-0.1,0.5-0.2,0.6-0.5c0.1-0.2,0.1-0.4-0.1-0.6C241.5,97,241.3,97.4,241.1,97.9z M243.4,78.8c-0.2,0.1-0.5,0.1-0.9,0.1
				c-0.4,0-0.7,0-0.8,0.2c0.3,0.2,0.9,0.2,1.9,0.1c1-0.1,1.7-0.2,2-0.1c0-0.3-0.2-0.4-0.5-0.4c-0.3,0-0.6,0-0.9,0.1
				C243.8,78.8,243.6,78.8,243.4,78.8z M241.7,80.2c0.3,0,0.5-0.1,0.7-0.4C241.9,79.6,241.7,79.8,241.7,80.2z M242.3,99.3h0.3
				l0.1-0.1c0.1-0.1,0.1-0.2,0-0.3h-0.4V99.3z M242.6,96c0.2,0,0.4-0.1,0.5-0.3C242.9,95.8,242.8,95.9,242.6,96z M242.7,80
				c0.4,0.2,0.7,0.1,0.7-0.3C242.9,79.7,242.6,79.8,242.7,80z M245.7,79.6c-1.1,0-1.7,0-1.7,0.1c0.2,0.1,0.5,0.2,0.9,0.2
				C245.3,79.9,245.6,79.8,245.7,79.6z M243.9,95.1c0-0.1,0-0.2,0.1-0.3l0.1-0.1C244.1,94.5,244,94.7,243.9,95.1z M245.9,79
				c0.6,0.1,1,0,1.1-0.1l-0.3-0.3c0,0.1-0.1,0.1-0.4,0.1C246.1,78.8,245.9,78.8,245.9,79z M246.6,79.8c0.2-0.2,0.1-0.3-0.1-0.3
				c-0.3,0-0.4,0-0.4,0.2L246.6,79.8z M251.7,79.7c-0.3-0.3-0.6-0.4-1.1-0.4c-0.5,0-1.1,0-1.8,0.1c-0.7,0-1.3,0.1-1.6,0.1
				c0.3,0.3,1,0.4,2.3,0.3C250.8,79.6,251.5,79.6,251.7,79.7z M253.9,80c0-0.2-0.1-0.3-0.3-0.3c-0.2,0-0.5-0.1-0.7-0.1
				c-0.3,0-0.5,0-0.7-0.1c0,0.2,0.1,0.3,0.2,0.3c0.1,0,0.3,0.1,0.6,0.1C253.5,79.8,253.8,79.9,253.9,80z"/>
		</g>
		<g>
			<path class="st0" d="M74.6,172.7h-3.4c-0.2,0-0.4-0.2-0.4-0.4c0-0.2,0.2-0.4,0.4-0.4l0,0h7.6c0.2,0,0.4,0.2,0.4,0.4
				c0,0.2-0.2,0.4-0.4,0.4h-3.4v9.9c0,0.2-0.1,0.4-0.4,0.4c-0.2,0-0.4-0.1-0.4-0.4c0,0,0,0,0-0.1L74.6,172.7z"/>
			<path class="st0" d="M80.4,172.3c0-0.2,0.2-0.4,0.4-0.4c0.2,0,0.4,0.2,0.4,0.4v4.6h6v-4.6c0-0.2,0.2-0.4,0.4-0.4
				c0.2,0,0.4,0.2,0.4,0.4v10.3c0,0.2-0.2,0.4-0.4,0.4c-0.2,0-0.4-0.2-0.4-0.4l0,0v-4.9h-6v4.9c0,0.2-0.2,0.4-0.4,0.4
				c-0.2,0-0.4-0.2-0.4-0.4l0,0V172.3z"/>
			<path class="st0" d="M89.8,182.5v-10.2c0-0.2,0.2-0.4,0.4-0.4H96c0.2,0,0.4,0.2,0.4,0.4c0,0.2-0.2,0.4-0.4,0.4h-5.4v4.2h4.7
				c0.2,0,0.4,0.2,0.3,0.4c0,0.2-0.2,0.3-0.3,0.3h-4.7v4.6h5.5c0.2,0,0.4,0.2,0.4,0.4s-0.2,0.4-0.4,0.4l0,0h-5.9
				C90,182.9,89.8,182.7,89.8,182.5z"/>
			<path class="st0" d="M102.2,172.4c0-0.2,0.2-0.4,0.4-0.4c0.2,0,0.4,0.2,0.4,0.4v9.6h5.7c0.2,0,0.4,0.2,0.3,0.4
				c0,0.2-0.2,0.3-0.3,0.3h-6.1c-0.2,0-0.4-0.2-0.4-0.4V172.4z"/>
			<path class="st0" d="M120.1,172.4c0-0.2,0.2-0.4,0.4-0.4h0.1c0.2,0,0.3,0.1,0.4,0.2l6.9,9.2v-9c0-0.2,0.1-0.4,0.3-0.4
				c0.2,0,0.4,0.1,0.4,0.3c0,0,0,0,0,0.1v10.1c0,0.2-0.1,0.3-0.3,0.3c0,0,0,0,0,0h-0.1c-0.2,0-0.3-0.1-0.4-0.3l-7-9.3v9.2
				c0,0.2-0.1,0.4-0.3,0.4c-0.2,0-0.4-0.1-0.4-0.3c0,0,0,0,0-0.1V172.4z"/>
			<path class="st0" d="M118,172h-0.1c-0.2,0-0.3,0.1-0.4,0.2l-6.9,9.2l-0.7,1c-0.1,0.1,0,0.3,0.1,0.4c0,0,0.1,0,0.1,0h0.1
				c0.2,0,0.3-0.1,0.4-0.3l2.1-2.8h4.9v2.7c0,0.2,0.1,0.4,0.3,0.4c0.2,0,0.4-0.1,0.4-0.3c0,0,0,0,0-0.1v-10
				C118.4,172.2,118.2,172,118,172z M113.3,179.1l4.4-5.8v5.8H113.3z"/>
			<path class="st0" d="M130.4,172.5c0-0.2,0.2-0.4,0.4-0.4h2.9c3,0,5.1,2.3,5.1,5.3v0c0,3-2.1,5.4-5.1,5.4h-2.9
				c-0.2,0-0.4-0.2-0.4-0.4V172.5z M133.6,182c2.7,0,4.4-2,4.4-4.6v0c0-2.5-1.7-4.6-4.4-4.6h-2.5v9.2H133.6z"/>
			<path class="st0" d="M140.4,172.4c0-0.2,0.1-0.4,0.4-0.4c0.2,0,0.4,0.1,0.4,0.4c0,0,0,0,0,0.1v10c0,0.2-0.1,0.4-0.4,0.4
				c-0.2,0-0.4-0.1-0.4-0.4c0,0,0,0,0-0.1V172.4z"/>
			<path class="st0" d="M142.8,172.4c0-0.2,0.2-0.4,0.4-0.4h0.1c0.2,0,0.3,0.1,0.4,0.2l6.9,9.2v-9c0-0.2,0.2-0.4,0.4-0.4
				c0.2,0,0.4,0.2,0.4,0.4v0v10.1c0,0.2-0.1,0.3-0.3,0.3l0,0H151c-0.2,0-0.3-0.1-0.4-0.3l-7-9.3v9.2c0,0.2-0.2,0.4-0.4,0.4
				c-0.2,0-0.4-0.2-0.4-0.4v0L142.8,172.4z"/>
			<path class="st0" d="M152.9,177.5L152.9,177.5c0-2.9,2.2-5.6,5.5-5.6c1.7,0,2.7,0.4,3.8,1.2c0.1,0.1,0.2,0.2,0.2,0.3
				c0,0.2-0.2,0.4-0.4,0.4c-0.1,0-0.2,0-0.3-0.1c-0.9-0.7-2.1-1.1-3.3-1.1c-2.7,0-4.6,2.2-4.6,4.8v0c0,2.8,1.8,4.8,4.7,4.8
				c1.3,0,2.5-0.4,3.5-1.2V178h-3.4c-0.2,0-0.4-0.1-0.4-0.3c0-0.2,0.1-0.4,0.3-0.4c0,0,0,0,0.1,0h3.8c0.2,0,0.4,0.2,0.4,0.4v3.5
				c0,0.2-0.1,0.4-0.3,0.5c-1.2,0.9-2.6,1.4-4.1,1.4C155,183,152.9,180.5,152.9,177.5z"/>
			<path class="st0" d="M57.8,172.1h-0.1c-0.2,0-0.3,0.1-0.4,0.2l-6.9,9.2l-0.7,1c-0.1,0.1,0,0.3,0.1,0.4c0,0,0.1,0,0.1,0H50
				c0.2,0,0.3-0.1,0.4-0.3l2.1-2.8h4.9v2.7c0,0.2,0.1,0.4,0.3,0.4c0.2,0,0.4-0.1,0.4-0.3c0,0,0,0,0-0.1v-10
				C58.2,172.2,58,172.1,57.8,172.1z M53,179.1l4.4-5.8v5.8H53z"/>
			<path class="st0" d="M62.8,172.7h-3.4c-0.2,0-0.4-0.2-0.4-0.4c0-0.2,0.2-0.4,0.4-0.4l0,0h7.6c0.2,0,0.4,0.2,0.4,0.4
				c0,0.2-0.2,0.4-0.4,0.4h-3.4v9.9c0,0.2-0.1,0.4-0.4,0.4c-0.2,0-0.4-0.1-0.4-0.4c0,0,0,0,0-0.1L62.8,172.7z"/>
		</g>
		<path class="st0" d="M64.7,197.8c0.2-0.2,0.3-0.3,0.6-0.3c0,0.1,0,0.2,0.1,0.4c0,0,0,0.1,0.1,0.1c0.1,0,0.2,0,0.4,0
			c0-0.1,0-0.2,0-0.2c-0.1-0.1-0.2-0.2-0.4-0.3c-0.2-0.1-0.3-0.2-0.3-0.3c0.4-0.1,0.7-0.1,0.9,0.1c-0.1,0.1-0.1,0.3,0,0.6
			c0.3,0,0.6,0.1,0.8,0.2c0.1,0,0.2,0,0.3,0c0.1-0.1,0.2-0.2,0.3-0.3c0.1,0.2,0.4,0.2,0.8,0.2c0.4,0,0.8-0.1,1.1-0.2
			c0.3-0.1,0.5-0.2,0.5-0.3c0.2,0.5,1,0.5,2.5-0.1l0-0.1c-0.1,0-0.1-0.1-0.2-0.1c-0.3,0.1-0.5,0.1-0.7,0c0.3-0.1,0.5-0.1,0.7,0
			l0.8-0.2c0.2,0.3,0.5,0.5,0.9,0.4c0.5-0.1,0.8-0.1,0.9-0.1c-0.2,0.1-0.3,0.2-0.2,0.3c0.1,0,0.2,0,0.3-0.1c0.4-0.2,0.5-0.3,0.3-0.6
			c0.2-0.1,0.4,0.1,0.5,0.4c0.3,0,0.5-0.1,0.6-0.3c-0.2,0.1-0.4-0.1-0.5-0.4c0.4-0.5,0.6-0.5,0.7-0.2c-0.1,0-0.2,0.2-0.2,0.5
			c0,0.3,0.1,0.5,0.3,0.6c0-0.3,0.2-0.5,0.4-0.7c0.3-0.2,0.4-0.4,0.5-0.5c-0.2,0.2-0.1,0.4,0.1,0.4c0.3-0.1,0.6-0.1,0.9,0
			c0.3,0,0.6,0.1,1,0.3c0.4,0.1,0.7,0.2,0.8,0.2c0.2,0,0.3-0.1,0.3-0.3c0.1-0.2,0.2-0.3,0.2-0.3c0.4,0.2,0.8,0.3,1.2,0.2
			c0.5-0.1,0.8-0.4,1-0.7l0-0.2c-1.1-0.4-2.1-0.3-3.2,0.2c-0.4-0.1-1.4-0.1-2.9,0c-1.5,0.1-2.5,0.1-3-0.1c6.5-0.3,10.5-0.5,12.2-0.5
			c-0.1,0.1-0.1,0.2,0,0.2c0.1,0,0.2,0.1,0.2,0.1c-0.3,0.1-0.6,0-1-0.1c-0.4-0.2-0.7-0.2-1.1,0c0,0.2,0,0.3-0.2,0.3l0,0.2
			c0.2-0.1,0.3,0,0.3,0.3c-0.2-0.1-0.3-0.2-0.3-0.3c-0.1,0-0.2,0-0.3-0.1c-0.2-0.1-0.3-0.2-0.5-0.1c0,0.2,0,0.2-0.2,0.1
			c0,0.2,0,0.3-0.1,0.4c-0.1,0.1-0.1,0.3,0,0.4c0.2,0,0.3,0,0.4-0.2c0.1-0.1,0.2-0.2,0.2-0.2c0,0.2,0.2,0.3,0.3,0.3
			c0.2,0.1,0.4,0.1,0.7,0.1c0.3,0,0.5,0,0.5,0c-0.1-0.2-0.1-0.3,0-0.3c0.1-0.1,0.3-0.1,0.5-0.2c0-0.1,0-0.2,0.1-0.2
			c0,0.1,0,0.2-0.1,0.2c0.5,0.1,0.8,0.2,0.9,0.3c0.1,0,0.2-0.1,0.4-0.2c0.2-0.1,0.3-0.2,0.5-0.1c-0.2-0.1-0.3-0.4-0.2-0.8
			c-0.1,0-0.2,0-0.4-0.1c0.2-0.1,0.4,0,0.4,0.1c0.1-0.1,0.3,0.1,0.4,0.5c0.1,0,0.2-0.1,0.3-0.3c0.2-0.2,0.3-0.1,0.3,0.1
			c-0.1,0.1-0.2,0.2-0.4,0.3c-0.2,0.1-0.3,0.2-0.4,0.3c0,0.1,0.2,0.2,0.5,0.2c0.3,0,0.3,0.2,0,0.4c0.3-0.1,0.5-0.1,0.7,0
			c0-0.1,0-0.2-0.2-0.2l0-0.2l0.6-0.4c0.2,0.1,0.4,0.2,0.7,0.3c1.4,0.3,1.9,0,1.6-0.9c-0.1,0-0.2,0.1-0.4,0.2
			c-0.2,0.1-0.3,0.1-0.3,0c0.2-0.2,0.3-0.4,0.5-0.5c0.4,0.2,0.6,0.2,0.8,0.2c0.8-0.5,1.2-0.9,1.3-1.2c0.2,0,0.4,0,0.6-0.1l0.1,0.4
			c0.9-0.5,1.9-0.6,2.8-0.3c-0.2,0.1-0.7,0.1-1.4,0.2c-0.7,0.1-1.2,0.1-1.5,0.3c1.5,0.2,2.9,0.2,4.2-0.1c0-0.1,0-0.1-0.1-0.3
			c0-0.1,0-0.1,0.1-0.2c0.1,0,0.2,0,0.4-0.1c0.2-0.1,0.3-0.1,0.4,0c-0.1,0.1,0,0.2,0.1,0.3c0.2,0.1,0.1,0.2-0.1,0.3
			c0.1,0,0.3,0.1,0.5,0.1c0.5,0.1,0.7,0.2,0.5,0.4c0.1,0,0.2-0.1,0.4-0.1c0.2,0,0.3-0.1,0.4,0c0.1,0,0.1,0.1,0.1,0.3
			c-0.2,0-0.3,0-0.5-0.1c-0.2-0.1-0.3,0-0.5,0.1c0,0.2,0.2,0.3,0.5,0.4c0.3,0.1,0.3,0.2-0.1,0.4c0.2,0,0.4-0.1,0.5-0.3
			c0.1-0.2,0.2-0.3,0.3-0.3c0,0.1,0.1,0.1,0.4,0c0.1,0.1,0.1,0.2-0.1,0.2c-0.1,0.1-0.2,0.1-0.2,0.2c0.6,0.3,0.9,0.1,0.7-0.5
			c0.2,0,0.3,0.1,0.3,0.4c0.1,0.1,0.2,0.2,0.4,0.2c0.3-0.1,0.4-0.3,0.2-0.6c-0.2-0.3-0.2-0.5,0-0.6c0.1,0.2,0.3,0.4,0.8,0.6
			c0.1-0.1,0.2-0.2,0-0.3c-0.1-0.1,0-0.2,0.2-0.2c0-0.1-0.1-0.2-0.2-0.2c-0.4,0-0.5-0.1-0.4-0.2c0.3-0.1,0.6,0.1,0.9,0.5
			c0.3-0.1,0.6-0.2,0.8-0.3c0.3,0,0.5-0.1,0.6-0.3c0.2,0.3,0.6,0.3,1.2,0.3c0.6-0.1,0.9,0,1,0.2l0.7-0.2c0-0.1-0.1-0.1-0.2-0.1
			l-0.1-0.1l0.7-0.2c0.1,0,0.1,0.1,0.2,0.2c0,0.1,0,0.2,0.1,0.3c1-0.4,2.1-0.4,3.1,0c-0.2,0.1-0.8,0.1-1.9,0c-1-0.1-1.8,0.1-2.4,0.3
			c0-0.1,0-0.1-0.1-0.2c-0.1-0.1-0.1-0.1-0.1-0.2c-0.5,0.1-1.1,0.1-1.9,0.1c-0.8-0.1-1.4,0-1.8,0.2c0.2,0.1,0.3,0.2,0.3,0.3
			c0,0.1,0.1,0.2,0.1,0.3l0.2-0.1c0.1,0,0.1-0.1,0.1-0.2s0-0.2,0.1-0.2c0.1,0,0.2,0.1,0.4,0.3c0.8-0.1,1.8-0.2,3.1-0.2
			c1.3,0,2.2-0.1,2.8-0.2c0,0.2,0,0.3,0.2,0.4c0.1,0.1,0.2,0.2,0.3,0.3c0.2-0.1,0.6-0.1,1.1-0.1c0.5,0,0.9,0,1.1-0.2
			c-0.2,0-0.4-0.2-0.8-0.4c0.2,0,0.4,0,0.8,0c0.4,0,0.7,0,1,0c0.3,0,0.5,0.1,0.7,0.2c-0.5,0.1-0.9,0.1-1.2,0l0.1,0.4
			c0.3-0.2,1-0.2,1.9,0c0-0.2,0-0.3-0.2-0.4c-0.2,0-0.3-0.1-0.3-0.2c0.2,0,0.4,0,0.6-0.1c0.3-0.1,0.5-0.1,0.6-0.1
			c0,0.1,0,0.2-0.2,0.3c-0.1,0.2-0.1,0.2,0.1,0.3c0.3-0.1,0.7-0.1,1.2,0c0.5,0.1,0.9,0,1.2-0.2c-0.1,0-0.3-0.1-0.7-0.1
			c-0.4,0-0.6-0.1-0.7-0.3c0.4,0.1,1,0.1,1.8,0c0.8,0,1.4,0,1.8,0.1l-0.2,0.2c0,0.1,0,0.1,0.1,0.1c0,0,0.1,0,0.1,0.1
			c0.1,0,0.3-0.1,0.5-0.3c0.2-0.1,0.4-0.2,0.5-0.3c0.1,0,0.3,0,0.4,0.2c-0.5,0.1-0.7,0.2-0.7,0.3c1.9,0.2,3.3,0.2,4.4,0.1
			c0.6,0.3,1.8,0.4,3.5,0.3c1.7-0.1,2.8-0.1,3.4,0c0.4-0.1,0.6-0.2,0.8-0.3c0,0.1,0,0.1-0.1,0.2c-0.1,0.1,0,0.2,0.1,0.3
			c0.5-0.1,1.1-0.1,1.8-0.1c0.7,0,1.6,0,2.5,0.1c1,0,1.7,0,2.3,0c-0.1-0.2-0.1-0.4,0-0.4c0,0.2,0.2,0.3,0.4,0.4
			c0.2,0.1,0.4,0.1,0.6,0.1c0.2,0,0.4,0,0.6,0c0.2,0,0.2,0.1,0.2,0.3c0.2-0.1,0.5-0.1,0.8-0.2c0.3-0.1,0.6-0.1,0.6-0.1
			c-0.1,0.1-0.1,0.1-0.2,0.1c-0.1,0-0.1,0.1-0.2,0.2c1-0.4,1.6-0.4,1.7,0c0.4-0.2,1.1-0.2,1.9-0.1c0.8,0.1,1.5,0.1,2-0.1
			c2.5,0.2,4.5,0.2,6.1-0.2c1.1-1.4,1.2-2.5,0.2-3.3c0.2-0.1,0.3-0.3,0.3-0.4c0-0.2,0-0.3-0.1-0.4c-0.1-0.1-0.1-0.2-0.2-0.4
			c-0.1-0.2-0.1-0.3-0.2-0.4c-1.7,0.4-3.7,0.3-6,0c-0.6,0-1-0.1-1.1-0.2c-2,0-3.2-0.2-3.6-0.5c-0.5,0.2-1.2,0.2-2.2,0
			c-0.9-0.2-1.7-0.2-2.3,0.1c-0.7-0.6-1.6-0.7-2.7-0.2c0,0.1,0.2,0.2,0.4,0.4c0.2,0.1,0.4,0.3,0.4,0.5c-0.1,0-0.1,0-0.1,0.1
			c0,0,0,0.1-0.1,0.1c-4.1-0.1-10-0.1-17.7,0c-7.7,0.1-12.8,0.1-15.4,0.1c-2.8,0.1-7.3,0.3-13.6,0.5c-6.3,0.2-11.9,0.4-16.8,0.8
			c-4.9,0.4-9.8,1-14.8,1.7c-0.7-0.3-1.2-0.8-1.3-1.4c-1.3-0.1-2.3-0.1-2.9,0.1c-0.1,0-0.1,0.1-0.2,0.2c-0.1,0.1-0.2,0.1-0.3,0.1
			c-0.1,0-0.2,0-0.2,0c-0.1,0-0.2,0-0.4,0c-0.2,0.2-0.6,0.4-1.3,0.5c-1.2,1-1.4,2.1-0.7,3.2c0.2,0.2,0.8,0.6,1.6,1
			c3.5-0.3,7-0.5,9.9-0.6C64.5,197.9,64.6,197.9,64.7,197.8z M75,196.5c-0.1,0.1-0.2,0.1-0.3,0c0-0.1,0.1-0.1,0.4-0.2
			C75.2,196.4,75.1,196.4,75,196.5z M82.1,196c0,0.1,0,0.1-0.1,0.2c-0.1,0-0.1,0.1-0.1,0.2c-0.1-0.1-0.1-0.2-0.1-0.4
			C82,196,82.1,196,82.1,196z M82.6,195.6c0,0,0,0,0.1,0l0,0.2c-0.1,0.1-0.2,0-0.3-0.2C82.5,195.6,82.6,195.6,82.6,195.6z
			 M81.1,195.6c0,0.1,0,0.2,0.1,0.3c0.1,0.1,0.2,0.1,0.2,0.2c-0.6,0-0.9,0.1-0.9,0.1c-0.2-0.1-0.3-0.2-0.3-0.4
			C80.6,195.9,80.9,195.8,81.1,195.6z M79,196.3l-0.1-0.1c-0.1,0-0.3,0.1-0.3,0.1c0.1-0.1,0.1-0.2,0-0.5L79,196.3z M86.8,195.3
			l0.2,0c-0.1,0.1-0.2,0.2-0.3,0.3c-0.2,0-0.3-0.1-0.3-0.2C86.6,195.3,86.8,195.3,86.8,195.3z M90.8,195.7l0,0.2l-0.2,0.1l0-0.2
			L90.8,195.7z M132,195.5c-0.2,0-0.3,0.1-0.5,0c-0.2,0-0.4,0-0.5,0C131.1,195.3,131.5,195.3,132,195.5z M124.9,195.6
			c-0.3,0-0.5-0.1-0.4-0.3c0.1-0.1,0.3-0.1,0.4,0c0.1,0.1,0.2,0.1,0.3,0.1C125.1,195.6,125,195.6,124.9,195.6z M127.4,195.4
			c0.2,0,0.4,0,0.5,0c0,0.2-0.2,0.2-0.6,0.1l-0.1-0.1C127.3,195.3,127.3,195.3,127.4,195.4z M125.8,195.5c-0.2,0-0.4,0-0.5,0
			c0.1-0.3,0.3-0.4,0.8-0.2C126.1,195.5,125.9,195.6,125.8,195.5z M126.6,195.1l-0.2,0.1c0-0.1-0.1-0.1-0.2,0l-0.1-0.3l0.3-0.1
			c0,0.1,0.1,0.2,0.2,0.1L126.6,195.1z M132.1,193.3l0.1,0.3l-0.2,0.1l-0.1-0.3L132.1,193.3z M125.3,195.1c0.1-0.1,0-0.1-0.1-0.1
			c0-0.1,0.1-0.1,0.4-0.2C125.6,195,125.5,195.1,125.3,195.1z M124.3,195.5c-0.4,0-0.6-0.1-0.7-0.2
			C124.1,195.2,124.3,195.3,124.3,195.5z M111.7,195.6c-0.2,0.1-0.3,0-0.3-0.1c0.4-0.2,0.7-0.3,0.8-0.1
			C112.3,195.5,112.1,195.5,111.7,195.6z M116.1,194.9c-1.1-0.1-2,0-2.7,0.2c-0.2-0.1-0.3-0.2-0.3-0.4c-0.2,0-0.3,0.1-0.3,0.3
			c-0.1,0.2-0.2,0.2-0.4,0.1c0-0.5,0.4-0.7,1.2-0.6c0.8,0.1,1.3,0.1,1.5-0.1c0.3,0.1,0.9,0.1,1.7,0.1c0.8,0,1.3,0,1.8,0.2
			C118.1,195,117.3,195,116.1,194.9z M123.3,193.8c0,0.1-0.1,0.2-0.3,0.2c-0.2,0-0.3,0-0.4,0C122.5,193.6,122.7,193.5,123.3,193.8z
			 M120.1,195c-0.6,0-1.1-0.1-1.5-0.1c0.3-0.1,0.6-0.2,0.9-0.2c0.3,0,0.7,0,1.2,0c0.4,0,0.7,0,0.9,0l0,0.2c-0.1,0.1-0.1,0.1-0.1,0.2
			C121.3,195.1,120.8,195.1,120.1,195z M124.2,193.7l0.5-0.1c0.2,0.1,0.2,0.2-0.1,0.3C124.3,194,124.2,193.9,124.2,193.7z
			 M125.4,193.7c-0.1,0.2-0.3,0.3-0.4,0.3C125,193.8,125.1,193.7,125.4,193.7z M128.8,193.3c0-0.1-0.1-0.2-0.3-0.1
			c0.1-0.1,0.2-0.1,0.4-0.2C129,193,128.9,193.1,128.8,193.3z M126.1,193c0.9,0.1,1.7,0.1,2.3-0.1l-0.1,0.2c-0.1,0-0.1,0.1-0.1,0.1
			c-0.2,0-0.4,0.1-0.8,0.1c-0.4,0-0.6,0-0.8,0c-0.2,0-0.4,0.1-0.5,0.2c-0.2,0-0.3-0.1-0.4-0.2c-0.1-0.1-0.2-0.2-0.3-0.2
			c-0.2,0.2-0.7,0.2-1.4,0C124.5,192.9,125.2,192.9,126.1,193z M123.8,193c0.1,0,0.1,0.1-0.1,0.2c-0.1,0.1-0.2,0.1-0.2,0.2
			c-0.3-0.2-0.8-0.2-1.5-0.1c-0.7,0.1-1.2,0.1-1.5-0.1C121,193,122,193,123.8,193z M118,193.2c0.2,0,0.5,0,0.8-0.1
			c0.3-0.1,0.6-0.1,0.8-0.2c0.2,0,0.4,0,0.5,0.1c-0.3,0.1-0.6,0.1-0.9,0.1c-0.3,0-0.6,0.1-0.8,0.1c-0.1,0.1-0.1,0.2,0,0.3
			c0.1,0.1,0.1,0.2,0,0.3c0-0.2-0.3-0.2-0.6-0.1c-0.4,0.1-0.6,0.1-0.6,0l-0.1,0.1c-0.1,0.1-0.1,0.1-0.2,0.1c-0.1-0.2-0.1-0.3,0-0.3
			c0.1-0.1,0.3-0.1,0.5-0.2l-0.1,0.1c-0.1,0.1-0.1,0.1-0.1,0.2l0.7-0.2C118,193.5,118,193.4,118,193.2z M104.6,194.7
			c-0.2,0-0.3-0.1-0.2-0.2c0.1,0,0.2,0,0.2,0c0.1,0,0.2,0,0.2,0C104.8,194.7,104.8,194.7,104.6,194.7z M108.8,193.8
			c-0.2,0-0.3,0-0.4,0c0-0.1,0.2-0.2,0.4-0.2c0.2,0,0.4,0,0.5-0.1C109.4,193.7,109.2,193.8,108.8,193.8z M112.5,193.1
			c0.1,0.1,0,0.2-0.3,0.3c0-0.1,0-0.1,0-0.1c0,0,0,0,0-0.1L112.5,193.1z M110.9,193.9c-0.1,0-0.2-0.1-0.3-0.1c-0.1,0-0.2,0-0.3,0
			c0-0.1,0.1-0.1,0.2-0.1C110.8,193.6,110.9,193.7,110.9,193.9z M109.5,193.2c0.3,0.1,0.5,0.1,0.6,0.1c0.1,0.1,0.1,0.2-0.1,0.2
			c-0.1,0.1-0.2,0.1-0.2,0.2c-0.2-0.3-0.5-0.4-0.8-0.4C109.1,193.2,109.3,193.1,109.5,193.2z M108.8,193.4c-0.3-0.1-0.4-0.1-0.4-0.3
			C108.6,193.2,108.7,193.3,108.8,193.4z M102.1,194.6c0.2,0,0.3,0,0.5,0c-0.1,0.2-0.1,0.3,0,0.6c-0.2,0.1-0.4,0.2-0.7,0.1
			c-0.2,0-0.4,0-0.5,0.1c-0.2-0.1-0.2-0.2-0.1-0.3c0.2-0.2,0.2-0.3,0.2-0.3C101.7,194.6,101.9,194.6,102.1,194.6z M97.6,194.5
			c-0.2-0.1-0.3-0.1-0.5-0.1l0.2-0.6C97.4,193.9,97.5,194.1,97.6,194.5z M99.9,194.2c-0.2,0-0.4-0.1-0.4-0.1c0.1,0,0.3-0.1,0.6-0.1
			c0.2-0.1,0.5-0.1,0.7-0.1c0,0.1,0,0.2-0.2,0.3C100.4,194.2,100.2,194.3,99.9,194.2z M103.3,193.8c-0.1,0.1-0.2,0.2-0.4,0.2
			c-0.2,0.1-0.3,0.1-0.4,0.1c0-0.2-0.1-0.3-0.2-0.2c0.1-0.1,0.1-0.1,0.3-0.2c0.1,0,0.2,0,0.4,0C103.1,193.8,103.2,193.8,103.3,193.8
			z M102.1,194.2c-0.2,0-0.3-0.1-0.4-0.2c0-0.1,0.1-0.1,0.2-0.1c0.1,0,0.1,0,0.2,0C102.1,194.1,102.1,194.1,102.1,194.2z
			 M103.6,193.4c0.2,0.1,0.3,0.1,0.4,0.1c0,0.1-0.2,0.2-0.3,0.1c-0.2-0.1-0.3-0.1-0.4-0.1C103.3,193.3,103.4,193.3,103.6,193.4z
			 M101.4,193.6c0.1,0.2,0.1,0.3,0.1,0.4c0,0.1,0,0.2-0.1,0.2c-0.2,0-0.3,0-0.3-0.2c-0.1-0.2-0.1-0.3-0.1-0.5c0-0.2,0.1-0.3,0.2-0.3
			C101.2,193.4,101.3,193.5,101.4,193.6z M100,193.6l-0.3,0.1l0-0.2c-0.1,0-0.2,0-0.3,0c-0.1,0-0.3,0-0.4,0.1l0.1-0.1l0.6-0.1l0,0.1
			C99.8,193.5,100,193.5,100,193.6z M102.3,192.7l-0.3,0.1C102,192.7,102.1,192.7,102.3,192.7z M98.8,193.6c-0.1,0-0.2,0-0.4,0
			c-0.1,0-0.1,0-0.2,0c0,0.1,0,0.1,0,0.2c0-0.1,0-0.1,0-0.2c0-0.1,0.1-0.2,0.2-0.3C98.7,193.3,98.8,193.4,98.8,193.6z M65.6,194.5
			c0.1,0,0.1,0.1,0.2,0.2C65.7,194.8,65.6,194.7,65.6,194.5z M69.7,195.2c0.2,0,0.3,0,0.4,0c0.1,0.1,0.2,0.1,0.3,0.1
			c0.1,0.1-0.1,0.2-0.5,0.3L69.7,195.2z M68.9,195.7c-0.3,0-0.4-0.1-0.2-0.3c0.1,0,0.2,0,0.2,0l-0.1,0.1
			C68.8,195.6,68.9,195.6,68.9,195.7z M71.2,195.1c0.1,0,0.2,0,0.2,0c0.3,0,0.5,0,0.4,0.2c-0.3,0.1-0.5,0.2-0.5,0.3
			C71.2,195.6,71.2,195.4,71.2,195.1z M72.6,195c0.2-0.1,0.4-0.1,0.5-0.1c0.1,0.2-0.1,0.3-0.5,0.3c-0.1,0-0.2-0.1-0.2,0
			C72.2,195.1,72.3,195.1,72.6,195z M72.6,195.8c-0.2,0.2-0.7,0.3-1.4,0.3c-0.7,0-1.2,0-1.6-0.1C71.5,195.9,72.5,195.8,72.6,195.8z
			 M73.6,195c0.1,0,0.2,0,0.3,0c0.1,0,0.2,0,0.4,0c0.2,0,0.3,0,0.5-0.1c0,0.2-0.1,0.3-0.2,0.3c-0.1,0-0.3,0-0.5,0
			c-0.2,0-0.4,0-0.6,0.1C73.4,195.1,73.5,195.1,73.6,195z M66.4,197.2l-0.1-0.4c0.3-0.1,0.5-0.1,0.5,0.1
			C66.8,197.1,66.7,197.2,66.4,197.2z M67,196.8c0.3,0,0.5,0.2,0.5,0.4C67.2,197.2,67.1,197.1,67,196.8z M67.9,197.6
			c-0.2,0-0.2-0.1-0.2-0.4c0-0.2,0-0.4,0-0.5c0.2,0,0.3,0,0.4,0.1c0.1,0.1,0.3,0.1,0.4,0.1c0,0.1,0,0.2-0.1,0.1
			c-0.2,0-0.4,0-0.5,0.1c0,0.1,0.2,0.1,0.4,0.1c0.2-0.1,0.3,0,0.3,0.2C68.6,197.3,68.3,197.4,67.9,197.6z M72.1,196.5
			c0.2,0,0.5,0,0.7,0c0,0.1-0.1,0.2-0.3,0.3c-0.2,0.1-0.5,0.1-0.7,0c-0.2,0-0.4-0.1-0.4-0.2C71.6,196.5,71.8,196.5,72.1,196.5z
			 M70.4,196.8c-0.2,0-0.2,0.1-0.2,0.2l-0.3-0.1l0-0.2l0.6-0.1C70.4,196.6,70.4,196.7,70.4,196.8z M75.9,194.7
			c0,0.3-0.2,0.4-0.5,0.6C75.3,195,75.5,194.8,75.9,194.7z M76.8,195.1L77,195c0,0.1,0.1,0.1,0.2,0c0,0.1-0.1,0.2-0.2,0.2
			C76.8,195.2,76.7,195.2,76.8,195.1z M78.5,195l-0.8,0.2c0-0.1,0-0.2,0-0.3c0.1-0.1,0-0.2-0.1-0.3c0.1,0,0.2,0,0.4,0
			c0.2,0,0.3,0,0.4,0c0.1,0,0.2,0,0.3-0.1c0.3,0.1,0.4,0.2,0.5,0.4C78.7,195.1,78.4,195.1,78.5,195z M83.2,194.9
			c-0.1-0.4,0.1-0.5,0.7-0.3c0,0.1-0.1,0.1-0.3,0.2C83.4,194.9,83.3,194.9,83.2,194.9z M84.9,194.7c-0.2,0-0.3-0.1-0.4,0l0.6-0.1
			C85.1,194.7,85.1,194.8,84.9,194.7z M85.2,194.7c0-0.1,0.1-0.1,0.2-0.1c0-0.1-0.1-0.2-0.2-0.1c0.1-0.2,0.2-0.2,0.3-0.1l0.2,0.2
			C85.9,194.8,85.7,194.9,85.2,194.7z M87.2,194.4l-0.1-0.3l0.2-0.1l0.1,0.3L87.2,194.4z M88.4,194.2c0.1,0.2,0.2,0.3,0.5,0.2
			c0,0.1,0,0.1-0.1,0.1c-0.1,0-0.3,0-0.4,0.1c-0.2,0-0.3,0.1-0.3,0.1C88,194.5,88.1,194.3,88.4,194.2z M86.4,194.9
			c0.2,0,0.4,0.1,0.4,0.3C86.6,195.2,86.4,195.1,86.4,194.9z M89.5,194.7c0.1-0.1,0.1-0.2-0.1-0.3c-0.2-0.1-0.3-0.2-0.3-0.3
			c0.2,0,0.3,0,0.4,0.1c0.1,0,0.2,0.1,0.3,0.1c0,0,0.2,0,0.4-0.1c0,0.1,0.1,0.2,0.1,0.3c0.2,0.1,0.2,0.2,0.2,0.2c-0.1,0-0.3,0-0.5,0
			C89.7,194.6,89.6,194.6,89.5,194.7z M90.4,195.2c-0.2,0.1-0.3,0.3-0.3,0.4c-0.1,0-0.1,0-0.1-0.1c-0.1-0.1-0.2-0.1-0.4,0
			c0,0.2-0.1,0.3-0.4,0.3c-0.3,0-0.5,0.1-0.5,0.1c-0.1,0-0.1-0.1,0-0.2c0.1-0.3,0.2-0.4,0.5-0.5c0.1,0.2,0.2,0.3,0.4,0.3
			c0-0.1,0-0.2,0.2-0.3c-0.1-0.1-0.3-0.1-0.7,0c-0.4,0.1-0.6,0.1-0.7,0c0.2-0.2,0.6-0.3,1.1-0.3c0.6,0,0.9-0.1,1.2-0.1
			C90.7,194.9,90.6,195,90.4,195.2z M95.4,193.4c0.3,0,0.5,0,0.6,0c0.1,0.2-0.2,0.3-0.7,0.3c-0.2,0-0.3,0-0.4,0
			C94.9,193.5,95.1,193.4,95.4,193.4z M93,194c0,0,0,0,0.1,0c0,0.1-0.1,0.2-0.4,0.3c0-0.1,0-0.1,0.1-0.2l0.1-0.1
			C93,194,93,194,93,194z M95.6,192.5l0.1,0.3c-0.2-0.1-0.3-0.1-0.5-0.1C95.2,192.6,95.4,192.5,95.6,192.5z M93.2,193.7
			c-0.8,0.2-1.2,0.1-1.4-0.1c0.2,0.1,0.4,0.1,0.7,0C92.8,193.5,93,193.5,93.2,193.7z M90.8,193.8c0,0.1,0.1,0.2,0.1,0.4
			c0.2,0.1,0.5,0.1,0.8-0.1l0.1,0.5c-0.4-0.3-0.8-0.2-1.2,0.1c-0.1-0.1-0.1-0.5,0-1.1C90.8,193.6,90.8,193.7,90.8,193.8z
			 M89.4,193.7c0.4,0.1,0.6,0.1,0.8,0c-0.3,0.3-0.8,0.3-1.5,0.1C88.7,193.7,89,193.6,89.4,193.7z M88.2,193.7c0,0.1,0.1,0.1,0.2,0
			c0,0.1-0.1,0.2-0.2,0.2c-0.2,0-0.3,0-0.2-0.2L88.2,193.7z M87.3,193.9c-0.3,0.2-0.8,0.3-1.3,0.2c-0.5-0.1-0.9,0-1.3,0.1
			C85,193.8,85.8,193.7,87.3,193.9z M82.8,194.6c0.2,0.1,0.3,0.2,0.3,0.3c-0.3-0.1-0.7-0.1-1.3,0c-0.6,0.1-1.2,0.1-1.6,0.1
			c-0.4,0-0.7-0.1-0.8-0.4c0,0.1,0.1,0.1,0.4,0.1c0.2,0,0.3-0.1,0.3-0.3c0.2,0,0.3,0.1,0.3,0.3c0.3-0.2,0.7-0.3,1.1-0.2
			c0.4,0.1,0.7,0.1,0.9,0L82.8,194.6z M84.2,194l-0.5,0.1C83.8,194,84,193.9,84.2,194z M82.9,194c0,0.1,0,0.1,0,0.2
			c0,0.1,0,0.1,0,0.2c-0.3-0.1-0.8-0.1-1.3-0.1c-0.5,0-1,0-1.2,0C80.5,194,81.3,193.9,82.9,194z M80.1,194c-0.1,0.1-0.1,0.1-0.1,0.2
			c0-0.2,0-0.3,0.2-0.3L80.1,194z M79.4,194.1l0,0.2l-0.2,0.1l0-0.2L79.4,194.1z M79,194.3c0,0.1,0,0.2-0.1,0.1c-0.2,0-0.3,0-0.4,0
			c0-0.1,0-0.2,0.2-0.2C78.9,194.2,79,194.2,79,194.3z M81.9,193l0,0.2l-0.3,0.1l0-0.2L81.9,193z M75.7,194.4c0.6,0,1.1,0,1.6-0.2
			c-0.2,0.2-0.7,0.4-1.5,0.4c-0.8,0.1-1.3,0-1.5-0.1C74.6,194.4,75.1,194.4,75.7,194.4z M73.9,194.5c-0.8,0.3-1.4,0.3-1.8,0
			L73.9,194.5z M69.3,195c0-0.1,0.1-0.1,0.2-0.1l0.2-0.1C69.6,195,69.5,195.1,69.3,195z M68.8,194.9c-0.7,0.4-1.3,0.4-1.9,0.2
			C68.1,194.9,68.7,194.8,68.8,194.9z M66,195.6c0.1,0,0.2,0,0.2,0c0.1,0,0.2,0,0.3-0.1c0,0.2-0.2,0.3-0.5,0.4L66,195.6z
			 M70.8,194.7c0.2,0,0.3-0.1,0.5-0.1c0.2,0,0.2,0,0.2-0.1c0,0.1,0,0.2,0.2,0.2c0,0.2-0.2,0.3-0.5,0.2
			C70.8,194.9,70.8,194.8,70.8,194.7z M63.4,196.8c0-0.1,0.1-0.1,0.3-0.2c0.1,0.1,0,0.2-0.2,0.2C63.5,196.8,63.5,196.8,63.4,196.8z
			 M63.9,196.6c0.5-0.1,1.4-0.2,2.6-0.3c1.2-0.1,2-0.3,2.6-0.3c-0.7,0.3-1.3,0.5-1.7,0.6c-0.4,0.1-1,0.1-1.8,0.1
			C64.7,196.6,64.2,196.6,63.9,196.6z"/>
	</g>
</g>
</svg>
