<?xml version="1.0" encoding="utf-8"?>
<!-- Generator: Adobe Illustrator 22.0.1, SVG Export Plug-In . SVG Version: 6.00 Build 0)  -->
<svg version="1.1" id="Layer_1" xmlns="http://www.w3.org/2000/svg" xmlns:xlink="http://www.w3.org/1999/xlink" x="0px" y="0px"
	 viewBox="0 0 255.1 255.1" style="enable-background:new 0 0 255.1 255.1;" xml:space="preserve">
<style type="text/css">
	.st0{fill:#FFFFFF;}
</style>
<g>
	<path class="st0" d="M248,157.5c-5.7,6.7-13.3,10.3-21.9,11.7c-15.5,2.6-29.4-1.4-41.8-11c-1.8-1.4-3.4-3-5.2-4.6
		c4.8-5.9,9.5-11.8,14.2-17.6c2.2,1.9,4.3,3.9,6.6,5.6c6,4.3,12.5,7.1,20,6.5c1.7-0.1,3.4-0.5,5-1.2c5.7-2.4,6.8-10.3,1.6-13.8
		c-3.4-2.3-7.3-3.8-11.2-5.2c-6.6-2.4-13.1-4.8-19.1-8.6c-16.6-10.3-17.8-33.7-4.2-46.2c7.3-6.7,16-9.5,25.8-9.4
		c12.8,0.1,23.9,4.7,33.8,12.6c0.3,0.3,0.7,0.5,1.1,0.9c-4.7,6.1-9.2,12-13.7,17.9c-2.9-1.9-5.6-3.9-8.5-5.6
		c-4.4-2.7-9.1-4.4-14.4-4.1c-5.1,0.3-8.3,3.7-8.1,8.6c0.1,2,0.8,3.8,2.5,4.8c3.3,1.9,6.6,3.7,10.1,5.2c6.5,2.9,13.3,5.3,19.7,8.5
		c7.1,3.5,12.4,8.9,14,17C256.3,139.7,254.9,149.4,248,157.5z"/>
	<path class="st0" d="M75.3,140.9c-1.3,13.9-9.6,22.5-22.4,26.7c-14.5,4.8-28.5,2.7-41.6-5c-3.8-2.2-7-5.3-10.6-8
		c-0.9-0.7-1-1.3-0.2-2.2c4.5-5.5,8.9-11,13.3-16.4c2.3,2,4.5,4.1,7,5.8c5.8,4.2,12.3,6.8,19.6,6.2c1.5-0.1,2.9-0.5,4.3-0.9
		c3.2-1.1,5.1-3.3,5.4-6.8c0.2-3.4-0.9-6.2-3.9-7.8c-3.4-1.8-7-3.4-10.6-4.7c-6.4-2.3-12.9-4.6-18.7-8.4c-7.3-4.7-12-11.1-13.4-19.8
		C1.5,86.8,7.4,74.9,19,68.4c7.3-4,15.1-5.1,23.2-4.5c11.6,0.9,21.5,5.7,30.5,12.9c0.1,0.1,0.1,0.2,0.3,0.5
		c-4.6,5.9-9.1,11.8-13.6,17.7c-2.9-2-5.7-4-8.6-5.7c-4.3-2.6-8.9-4.3-14.1-4.1c-5,0.3-8.5,3.7-8.3,8.4c0.1,2.8,1.7,4.7,3.9,5.9
		c3.4,1.8,6.8,3.4,10.3,4.9c5.7,2.5,11.6,4.6,17.2,7.3C72.6,118.3,76.6,127.3,75.3,140.9z"/>
	<rect x="115.9" y="65.2" class="st0" width="24.3" height="103.3"/>
</g>
</svg>
