<?xml version="1.0" encoding="utf-8"?>
<!-- Generator: Adobe Illustrator 22.0.1, SVG Export Plug-In . SVG Version: 6.00 Build 0)  -->
<svg version="1.1"
	 id="svg2816" inkscape:version="0.47 r22583" sodipodi:docname="Locator_Map_TfGM.pdf" xmlns:cc="http://creativecommons.org/ns#" xmlns:dc="http://purl.org/dc/elements/1.1/" xmlns:inkscape="http://www.inkscape.org/namespaces/inkscape" xmlns:rdf="http://www.w3.org/1999/02/22-rdf-syntax-ns#" xmlns:sodipodi="http://sodipodi.sourceforge.net/DTD/sodipodi-0.dtd" xmlns:svg="http://www.w3.org/2000/svg"
	 xmlns="http://www.w3.org/2000/svg" xmlns:xlink="http://www.w3.org/1999/xlink" x="0px" y="0px" viewBox="0 0 200 50"
	 style="enable-background:new 0 0 200 50;" xml:space="preserve">
<style type="text/css">
	.st0{fill:#FFFFFF;}
</style>
<defs>
	
	
		<inkscape:perspective  id="perspective2824" inkscape:persp3d-origin="0.5 : 0.33333333 : 1" inkscape:vp_x="0 : 0.5 : 1" inkscape:vp_y="0 : 1000 : 0" inkscape:vp_z="1 : 0.5 : 1" sodipodi:type="inkscape:persp3d">
		</inkscape:perspective>
</defs>
<sodipodi:namedview  bordercolor="#666666" borderopacity="1" gridtolerance="10" guidetolerance="10" id="namedview2818" inkscape:current-layer="g6812" inkscape:cx="78.299947" inkscape:cy="18.246093" inkscape:pageopacity="0" inkscape:pageshadow="2" inkscape:window-height="1000" inkscape:window-maximized="1" inkscape:window-width="1920" inkscape:window-x="-8" inkscape:window-y="-8" inkscape:zoom="6.9772577" objecttolerance="10" pagecolor="#ffffff" showgrid="false">
	</sodipodi:namedview>
<path id="path6820" class="st0" d="M94.1,34c-0.2-0.2-0.5-0.3-0.9-0.4c-0.3-0.1-0.7-0.1-1.1-0.1c-0.2,0-0.4,0-0.7,0
	c-0.3,0-0.5,0-0.8,0.1c-0.2,0-0.5,0.1-0.7,0.1c-0.2,0-0.4,0.1-0.5,0.1c-0.1,0-0.2,0.1-0.2,0.3l0.2,0.9c0,0.1,0.1,0.2,0.2,0.2
	c0,0,0.1,0,0.3,0c0.2,0,0.3-0.1,0.6-0.1c0.2,0,0.4-0.1,0.7-0.1c0.2,0,0.4,0,0.6,0c0.3,0,0.6,0,0.8,0.1s0.3,0.2,0.4,0.3
	c0.1,0.1,0.2,0.3,0.2,0.5c0,0.2,0.1,0.4,0.1,0.7V37l-1.3,0.1c-0.4,0-0.9,0.1-1.3,0.2c-0.4,0.1-0.8,0.3-1.1,0.5
	c-0.3,0.2-0.5,0.5-0.7,0.9c-0.2,0.4-0.3,0.8-0.3,1.3c0,0.8,0.2,1.4,0.6,1.8c0.4,0.4,1,0.6,1.6,0.6c0.5,0,1-0.1,1.4-0.2
	c0.4-0.2,0.8-0.4,1.1-0.6l0.2,0.5c0,0.1,0,0.1,0.1,0.1c0,0,0.1,0.1,0.2,0.1h0.8c0.1,0,0.2-0.1,0.2-0.2v-6.1c0-0.5-0.1-0.9-0.2-1.2
	C94.5,34.4,94.3,34.2,94.1,34 M93.2,40.4c-0.2,0.2-0.5,0.3-0.8,0.5c-0.3,0.1-0.7,0.2-1,0.2c-0.4,0-0.6-0.1-0.8-0.3
	c-0.2-0.2-0.3-0.6-0.3-1c0-0.9,0.5-1.4,1.4-1.4l1.5-0.1C93.2,38.2,93.2,40.4,93.2,40.4z M97.6,24.8c0.4,0,0.8,0,1.2-0.2
	c0.4-0.1,0.7-0.3,1-0.5c0.3-0.2,0.5-0.5,0.7-0.8c0.2-0.3,0.2-0.7,0.2-1.1c0-0.3,0-0.5-0.1-0.7c-0.1-0.2-0.2-0.4-0.3-0.6
	c-0.2-0.2-0.3-0.4-0.6-0.5c-0.2-0.2-0.6-0.3-0.9-0.5l-0.9-0.4c-0.5-0.2-0.8-0.4-0.9-0.6c-0.2-0.2-0.2-0.4-0.2-0.6
	c0-0.3,0.1-0.5,0.3-0.7c0.2-0.2,0.5-0.2,0.9-0.2c0.2,0,0.4,0,0.6,0c0.2,0,0.4,0.1,0.6,0.1c0.2,0,0.3,0.1,0.5,0.1c0.1,0,0.2,0,0.3,0
	c0.1,0,0.1,0,0.2,0c0,0,0-0.1,0.1-0.1l0.2-0.9c0-0.1,0-0.2-0.2-0.2c-0.3-0.1-0.6-0.1-0.9-0.2c-0.4-0.1-0.7-0.1-1.1-0.1
	c-0.9,0-1.6,0.2-2.2,0.6c-0.5,0.4-0.8,1-0.8,1.8c0,0.5,0.1,0.9,0.4,1.3c0.3,0.4,0.7,0.7,1.4,1l0.9,0.5c0.5,0.2,0.8,0.4,0.9,0.6
	c0.2,0.2,0.2,0.5,0.2,0.8c0,0.3-0.1,0.5-0.4,0.7c-0.3,0.2-0.6,0.2-1,0.2c-0.2,0-0.5,0-0.7,0c-0.2,0-0.5-0.1-0.7-0.1
	c-0.2,0-0.4-0.1-0.6-0.1c-0.2,0-0.3-0.1-0.3-0.1c-0.1,0-0.2,0.1-0.2,0.2L95,24.2c0,0.1,0,0.2,0.1,0.3c0.1,0,0.2,0.1,0.4,0.1
	c0.2,0.1,0.4,0.1,0.6,0.1c0.2,0,0.5,0.1,0.7,0.1C97.1,24.8,97.4,24.8,97.6,24.8 M149.8,24.7h1.2c0.1,0,0.2-0.1,0.2-0.2v-6.7
	c0.4-0.1,0.8-0.2,1.2-0.2c0.4,0,0.7-0.1,0.9-0.1c0.2,0,0.3-0.1,0.3-0.2l0.2-1.1c0-0.1,0-0.1,0-0.2c0,0,0-0.1-0.1-0.1
	c-0.1,0-0.1,0-0.2,0h-0.2c-0.2,0-0.6,0.1-0.9,0.2c-0.4,0.1-0.8,0.3-1.3,0.6l-0.1-0.4c0-0.1,0-0.1-0.1-0.1c0,0-0.1,0-0.2,0h-0.9
	c-0.1,0-0.2,0.1-0.2,0.2v8.2C149.5,24.6,149.6,24.7,149.8,24.7 M109.1,38.2c0-0.1,0.1-0.3,0.1-0.7c0-0.6-0.1-1.2-0.2-1.7
	c-0.1-0.5-0.3-0.9-0.6-1.3c-0.3-0.3-0.6-0.6-1-0.8c-0.4-0.2-0.9-0.3-1.4-0.3c-0.5,0-1,0.1-1.4,0.3c-0.4,0.2-0.8,0.4-1.1,0.8
	c-0.3,0.4-0.6,0.8-0.8,1.4c-0.2,0.6-0.3,1.3-0.3,2.1c0,1.5,0.3,2.6,1,3.3s1.5,1.1,2.7,1.1c0.5,0,0.9,0,1.4-0.1
	c0.5-0.1,1-0.2,1.4-0.4c0.1-0.1,0.2-0.1,0.1-0.3l-0.3-0.9c0-0.1-0.1-0.1-0.1-0.1c-0.1,0-0.1,0-0.2,0c-0.3,0.1-0.7,0.2-1.1,0.3
	c-0.4,0.1-0.7,0.1-1.1,0.1c-0.3,0-0.6,0-0.9-0.1c-0.3-0.1-0.5-0.2-0.7-0.5c-0.2-0.2-0.4-0.5-0.5-0.8c-0.1-0.3-0.2-0.8-0.2-1.3h4.7
	C109,38.3,109.1,38.3,109.1,38.2 M104.1,37.1c0.1-1.5,0.7-2.3,1.7-2.3c0.3,0,0.6,0.1,0.8,0.2c0.2,0.1,0.4,0.3,0.5,0.5
	c0.1,0.2,0.2,0.4,0.3,0.7c0.1,0.3,0.1,0.6,0.1,0.9C107.5,37.1,104.1,37.1,104.1,37.1z M101.3,33.7h-2.3v-2c0-0.1-0.1-0.2-0.2-0.2
	l-1.2,0.2c-0.1,0-0.2,0.1-0.2,0.2v1.8h-0.9c-0.1,0-0.2,0.1-0.2,0.2v0.9c0,0.1,0.1,0.2,0.2,0.2h0.9V40c0,0.9,0.2,1.5,0.5,1.9
	c0.3,0.3,0.9,0.5,1.6,0.5c0.1,0,0.3,0,0.5,0c0.2,0,0.3,0,0.5-0.1c0.2,0,0.3-0.1,0.5-0.1c0.2,0,0.3-0.1,0.4-0.1
	c0.1,0,0.2-0.1,0.1-0.2l-0.2-0.8c0-0.1-0.1-0.2-0.2-0.2c-0.1,0-0.2,0-0.5,0.1c-0.3,0.1-0.5,0.1-0.8,0.1c-0.3,0-0.5-0.1-0.6-0.3
	c-0.1-0.2-0.2-0.6-0.2-1.1v-4.7h2.3c0.1,0,0.2-0.1,0.2-0.2v-0.9C101.5,33.7,101.4,33.7,101.3,33.7 M79.8,33.6c-0.1,0-0.1,0-0.2,0
	h-0.2c-0.2,0-0.6,0.1-0.9,0.2c-0.4,0.1-0.8,0.3-1.3,0.6L77,33.8c0-0.1,0-0.1-0.1-0.1c0,0-0.1,0-0.2,0h-0.9c-0.1,0-0.2,0.1-0.2,0.2
	V42c0,0.1,0.1,0.2,0.2,0.2h1.2c0.1,0,0.2-0.1,0.2-0.2v-6.7c0.4-0.1,0.8-0.2,1.2-0.2c0.4,0,0.7-0.1,0.9-0.1c0.2,0,0.3-0.1,0.3-0.2
	l0.2-1.1c0-0.1,0-0.1,0-0.2C79.9,33.6,79.8,33.6,79.8,33.6 M73.3,12.7H65c-0.1,0-0.2,0.1-0.2,0.2v1c0,0.1,0.1,0.2,0.2,0.2h3.3v10.3
	c0,0.1,0.1,0.2,0.2,0.2h1.2c0.1,0,0.2-0.1,0.2-0.2V14.2h3.3c0.1,0,0.2-0.1,0.2-0.2v-1C73.5,12.8,73.4,12.7,73.3,12.7 M125.2,17.4
	h0.9v5.1c0,0.9,0.2,1.5,0.5,1.9c0.3,0.3,0.9,0.5,1.6,0.5c0.1,0,0.3,0,0.5,0c0.2,0,0.3,0,0.5-0.1c0.2,0,0.3-0.1,0.5-0.1
	c0.2,0,0.3-0.1,0.4-0.1c0.1,0,0.2-0.1,0.1-0.2l-0.2-0.8c0-0.1-0.1-0.2-0.2-0.2c-0.1,0-0.2,0-0.5,0.1c-0.3,0.1-0.5,0.1-0.8,0.1
	c-0.3,0-0.5-0.1-0.6-0.3c-0.1-0.2-0.2-0.6-0.2-1.1v-4.7h2.3c0.1,0,0.2-0.1,0.2-0.2v-0.9c0-0.1-0.1-0.2-0.2-0.2h-2.3v-2
	c0-0.1-0.1-0.2-0.2-0.2l-1.2,0.2c-0.1,0-0.2,0.1-0.2,0.2v1.8h-0.9c-0.1,0-0.2,0.1-0.2,0.2v0.9C125,17.3,125,17.4,125.2,17.4
	 M73.2,35.8h-1.3c-0.1,0-0.2,0.1-0.2,0.2v4.7c-0.2,0.1-0.4,0.1-0.7,0.2c-0.3,0-0.6,0.1-1,0.1c-0.7,0-1.2-0.1-1.7-0.3
	c-0.4-0.2-0.8-0.5-1.1-0.9c-0.3-0.4-0.5-0.9-0.6-1.5c-0.1-0.6-0.2-1.3-0.2-2.1c0-0.7,0.1-1.4,0.2-1.9c0.1-0.6,0.3-1,0.6-1.4
	c0.3-0.4,0.6-0.7,1-0.9c0.4-0.2,0.9-0.3,1.5-0.3c0.4,0,0.8,0,1.2,0.1c0.4,0.1,0.7,0.1,1.1,0.2c0.1,0,0.2,0,0.2-0.2l0.3-1
	c0-0.1,0-0.2-0.2-0.3c-0.3-0.1-0.6-0.2-1.1-0.3c-0.5-0.1-0.9-0.1-1.4-0.1c-1.7,0-3,0.5-3.9,1.6c-0.9,1.1-1.4,2.7-1.4,4.9
	c0,2,0.4,3.4,1.3,4.4c0.9,0.9,2.2,1.4,3.8,1.4c0.3,0,0.7,0,1-0.1c0.3,0,0.6-0.1,0.9-0.1c0.3,0,0.5-0.1,0.7-0.2
	c0.2-0.1,0.4-0.1,0.5-0.2c0.1,0,0.1-0.1,0.2-0.1c0.1,0,0.1-0.1,0.1-0.3V36C73.4,35.9,73.3,35.8,73.2,35.8 M80.8,24.8
	c0.5,0,1-0.1,1.4-0.2c0.4-0.2,0.8-0.4,1.1-0.6l0.2,0.5c0,0.1,0,0.1,0.1,0.1c0,0,0.1,0.1,0.2,0.1h0.8c0.1,0,0.2-0.1,0.2-0.2v-6.1
	c0-0.5-0.1-0.9-0.2-1.2c-0.1-0.3-0.3-0.6-0.5-0.7c-0.2-0.2-0.5-0.3-0.9-0.4c-0.3-0.1-0.7-0.1-1.1-0.1c-0.2,0-0.4,0-0.7,0
	c-0.3,0-0.5,0-0.8,0.1s-0.5,0.1-0.7,0.1c-0.2,0-0.4,0.1-0.5,0.1c-0.1,0-0.2,0.1-0.2,0.3l0.2,0.9c0,0.1,0.1,0.2,0.2,0.2
	c0,0,0.1,0,0.3,0c0.2,0,0.3-0.1,0.6-0.1c0.2,0,0.4-0.1,0.7-0.1c0.2,0,0.4,0,0.6,0c0.3,0,0.6,0,0.8,0.1c0.2,0.1,0.3,0.2,0.4,0.3
	c0.1,0.1,0.2,0.3,0.2,0.5c0,0.2,0,0.4,0,0.7v0.5l-1.3,0.1c-0.4,0-0.9,0.1-1.3,0.2c-0.4,0.1-0.8,0.3-1.1,0.5
	c-0.3,0.2-0.5,0.5-0.7,0.9c-0.2,0.4-0.3,0.8-0.3,1.3c0,0.8,0.2,1.4,0.6,1.8S80.2,24.8,80.8,24.8 M81.6,20.7l1.5-0.1v2.2
	c-0.2,0.2-0.5,0.3-0.8,0.5c-0.3,0.1-0.7,0.2-1,0.2c-0.4,0-0.6-0.1-0.8-0.3s-0.3-0.6-0.3-1C80.2,21.3,80.7,20.8,81.6,20.7 M87.4,38.2
	c0-0.1,0.1-0.3,0.1-0.7c0-0.6-0.1-1.2-0.2-1.7c-0.1-0.5-0.3-0.9-0.6-1.3c-0.3-0.3-0.6-0.6-1-0.8c-0.4-0.2-0.9-0.3-1.4-0.3
	c-0.5,0-1,0.1-1.4,0.3c-0.4,0.2-0.8,0.4-1.1,0.8c-0.3,0.4-0.6,0.8-0.8,1.4c-0.2,0.6-0.3,1.3-0.3,2.1c0,1.5,0.3,2.6,1,3.3
	c0.6,0.7,1.5,1.1,2.7,1.1c0.5,0,0.9,0,1.4-0.1c0.5-0.1,1-0.2,1.4-0.4c0.1-0.1,0.2-0.1,0.1-0.3l-0.3-0.9c0-0.1-0.1-0.1-0.1-0.1
	c-0.1,0-0.1,0-0.2,0c-0.3,0.1-0.7,0.2-1.1,0.3C85.3,41,85,41,84.7,41c-0.3,0-0.6,0-0.9-0.1c-0.3-0.1-0.5-0.2-0.7-0.5
	c-0.2-0.2-0.4-0.5-0.5-0.8c-0.1-0.3-0.2-0.8-0.2-1.3h4.7C87.2,38.3,87.3,38.3,87.4,38.2 M82.4,37.1c0.1-1.5,0.7-2.3,1.7-2.3
	c0.3,0,0.6,0.1,0.8,0.2c0.2,0.1,0.4,0.3,0.5,0.5c0.1,0.2,0.2,0.4,0.3,0.7c0.1,0.3,0.1,0.6,0.1,0.9C85.8,37.1,82.4,37.1,82.4,37.1z
	 M90.4,17.3c0.4,0,0.7,0.1,1,0.3c0.2,0.2,0.3,0.7,0.3,1.3v5.5c0,0.1,0.1,0.2,0.2,0.2h1.2c0.1,0,0.2-0.1,0.2-0.2v-6
	c0-0.5-0.1-0.8-0.2-1.2c-0.1-0.3-0.3-0.6-0.5-0.8c-0.2-0.2-0.5-0.3-0.8-0.4c-0.3-0.1-0.6-0.1-1-0.1c-0.5,0-0.9,0.1-1.3,0.2
	c-0.4,0.2-0.8,0.3-1.2,0.5l-0.1-0.4c0-0.1,0-0.1-0.1-0.1c0,0-0.1,0-0.2,0h-0.9c-0.1,0-0.2,0.1-0.2,0.2v8.2c0,0.1,0.1,0.2,0.2,0.2
	h1.2c0.1,0,0.2-0.1,0.2-0.2v-6.6c0.2-0.1,0.5-0.3,0.9-0.4C89.7,17.4,90.1,17.3,90.4,17.3 M77.4,17.5c0.2,0,0.3-0.1,0.3-0.2l0.2-1.1
	c0-0.1,0-0.1,0-0.2c0,0,0-0.1-0.1-0.1c-0.1,0-0.1,0-0.2,0h-0.2c-0.2,0-0.6,0.1-0.9,0.2c-0.4,0.1-0.8,0.3-1.3,0.6l-0.1-0.4
	c0-0.1,0-0.1-0.1-0.1c0,0-0.1,0-0.2,0h-0.9c-0.1,0-0.2,0.1-0.2,0.2v8.2c0,0.1,0.1,0.2,0.2,0.2H75c0.1,0,0.2-0.1,0.2-0.2v-6.7
	c0.4-0.1,0.8-0.2,1.2-0.2C76.8,17.5,77.1,17.5,77.4,17.5 M171.8,38.2c0-0.1,0.1-0.3,0.1-0.7c0-0.6-0.1-1.2-0.2-1.7
	c-0.1-0.5-0.3-0.9-0.6-1.3c-0.3-0.3-0.6-0.6-1-0.8c-0.4-0.2-0.9-0.3-1.4-0.3c-0.5,0-1,0.1-1.4,0.3c-0.4,0.2-0.8,0.4-1.1,0.8
	c-0.3,0.4-0.6,0.8-0.8,1.4c-0.2,0.6-0.3,1.3-0.3,2.1c0,1.5,0.3,2.6,1,3.3c0.6,0.7,1.5,1.1,2.7,1.1c0.5,0,0.9,0,1.4-0.1
	c0.5-0.1,1-0.2,1.4-0.4c0.1-0.1,0.2-0.1,0.1-0.3l-0.3-0.9c0-0.1-0.1-0.1-0.1-0.1c-0.1,0-0.1,0-0.2,0c-0.3,0.1-0.7,0.2-1.1,0.3
	c-0.4,0.1-0.7,0.1-1.1,0.1c-0.3,0-0.6,0-0.9-0.1c-0.3-0.1-0.5-0.2-0.7-0.5c-0.2-0.2-0.4-0.5-0.5-0.8c-0.1-0.3-0.2-0.8-0.2-1.3h4.7
	C171.6,38.3,171.7,38.3,171.8,38.2 M166.8,37.1c0.1-1.5,0.7-2.3,1.7-2.3c0.3,0,0.6,0.1,0.8,0.2c0.2,0.1,0.4,0.3,0.5,0.5
	c0.1,0.2,0.2,0.4,0.3,0.7c0.1,0.3,0.1,0.6,0.1,0.9H166.8L166.8,37.1z M178.5,38.5c-0.2-0.2-0.3-0.4-0.6-0.5
	c-0.2-0.2-0.6-0.3-0.9-0.5l-0.9-0.4c-0.5-0.2-0.8-0.4-0.9-0.6c-0.2-0.2-0.2-0.4-0.2-0.6c0-0.3,0.1-0.5,0.3-0.7
	c0.2-0.2,0.5-0.2,0.9-0.2c0.2,0,0.4,0,0.6,0c0.2,0,0.4,0.1,0.6,0.1c0.2,0,0.3,0.1,0.5,0.1c0.1,0,0.2,0,0.3,0c0.1,0,0.1,0,0.2,0
	c0,0,0-0.1,0.1-0.1l0.2-0.9c0-0.1,0-0.2-0.2-0.2c-0.3-0.1-0.6-0.1-0.9-0.2c-0.4-0.1-0.7-0.1-1.1-0.1c-0.9,0-1.6,0.2-2.2,0.6
	c-0.5,0.4-0.8,1-0.8,1.8c0,0.5,0.1,0.9,0.4,1.3c0.3,0.4,0.7,0.7,1.4,1l0.9,0.5c0.5,0.2,0.8,0.4,0.9,0.6c0.2,0.2,0.2,0.5,0.2,0.8
	c0,0.3-0.1,0.5-0.4,0.7c-0.3,0.2-0.6,0.2-1,0.2c-0.2,0-0.5,0-0.7-0.1c-0.2,0-0.5-0.1-0.7-0.1c-0.2,0-0.4-0.1-0.6-0.1
	c-0.2,0-0.3-0.1-0.3-0.1c-0.1,0-0.2,0.1-0.2,0.2l-0.2,0.9c0,0.1,0,0.2,0.1,0.3c0.1,0,0.2,0.1,0.4,0.1c0.2,0.1,0.4,0.1,0.6,0.1
	c0.2,0,0.5,0.1,0.7,0.1c0.3,0,0.5,0,0.8,0c0.4,0,0.8-0.1,1.2-0.2c0.4-0.1,0.7-0.3,1-0.5c0.3-0.2,0.5-0.5,0.7-0.8
	c0.2-0.3,0.2-0.7,0.2-1.1c0-0.3,0-0.5-0.1-0.7C178.7,38.9,178.6,38.7,178.5,38.5 M162.5,34.1c-0.2-0.2-0.5-0.3-0.8-0.4
	s-0.6-0.1-1-0.1c-0.4,0-0.9,0.1-1.3,0.2c-0.4,0.1-0.8,0.3-1.2,0.5v-3.7c0-0.1-0.1-0.2-0.2-0.2H157c-0.1,0-0.2,0.1-0.2,0.2V42
	c0,0.1,0.1,0.2,0.2,0.2h1.2c0.1,0,0.2-0.1,0.2-0.2v-6.6c0.2-0.1,0.5-0.3,0.9-0.4c0.3-0.1,0.7-0.2,1-0.2c0.4,0,0.7,0.1,1,0.3
	c0.2,0.2,0.4,0.7,0.4,1.3V42c0,0.1,0.1,0.2,0.2,0.2h1.2c0.1,0,0.2-0.1,0.2-0.2v-6c0-0.5-0.1-0.8-0.2-1.2
	C162.9,34.5,162.8,34.3,162.5,34.1 M106,15.9c-0.5,0-0.9,0.1-1.3,0.3c-0.4,0.2-0.7,0.3-0.9,0.5l-0.1-0.4c0-0.1,0-0.1-0.1-0.1
	c0,0-0.1,0-0.2,0h-0.9c-0.1,0-0.2,0.1-0.2,0.2v12.1c0,0.1,0.1,0.2,0.2,0.2h1.2c0.1,0,0.2-0.1,0.2-0.2v-3.9c0.6,0.2,1.1,0.4,1.6,0.4
	c1.1,0,2.1-0.4,2.7-1.2c0.7-0.8,1-2,1-3.5c0-1.4-0.3-2.4-0.8-3.1C107.9,16.3,107,15.9,106,15.9 M107,22.7c-0.3,0.5-0.8,0.8-1.5,0.8
	c-0.3,0-0.6,0-0.8-0.1c-0.3-0.1-0.5-0.2-0.7-0.3v-5.2c0.2-0.1,0.5-0.3,0.8-0.4c0.3-0.1,0.6-0.2,1-0.2c0.7,0,1.1,0.3,1.4,0.8
	c0.3,0.5,0.4,1.3,0.4,2.5C107.5,21.5,107.4,22.2,107,22.7 M144.1,15.9c-0.5,0-1,0.1-1.5,0.3c-0.4,0.2-0.8,0.5-1.1,0.8
	c-0.3,0.4-0.6,0.9-0.7,1.4c-0.2,0.6-0.3,1.3-0.3,2.1c0,1.5,0.3,2.6,0.9,3.2c0.6,0.7,1.5,1,2.6,1c0.5,0,1-0.1,1.5-0.3
	c0.4-0.2,0.8-0.5,1.1-0.8c0.3-0.4,0.6-0.9,0.7-1.4c0.2-0.6,0.3-1.3,0.3-2.1c0-1.5-0.3-2.6-0.9-3.2C146.2,16.3,145.3,15.9,144.1,15.9
	 M145.5,22.7c-0.3,0.5-0.8,0.8-1.4,0.8c-0.3,0-0.6-0.1-0.8-0.2c-0.2-0.1-0.4-0.3-0.6-0.6c-0.1-0.3-0.3-0.6-0.3-1
	c-0.1-0.4-0.1-0.9-0.1-1.5c0-0.9,0.1-1.7,0.4-2.2s0.7-0.8,1.4-0.8c0.3,0,0.6,0.1,0.9,0.2c0.2,0.1,0.4,0.3,0.6,0.6
	c0.1,0.3,0.3,0.6,0.3,1c0.1,0.4,0.1,0.9,0.1,1.5C146,21.5,145.8,22.2,145.5,22.7 M198.9,33.7c0,0,0-0.1-0.1-0.1c-0.1,0-0.1,0-0.2,0
	h-0.2c-0.2,0-0.6,0.1-0.9,0.2c-0.4,0.1-0.8,0.3-1.3,0.6l-0.1-0.4c0-0.1,0-0.1-0.1-0.1c0,0-0.1,0-0.2,0h-0.9c-0.1,0-0.2,0.1-0.2,0.2
	V42c0,0.1,0.1,0.2,0.2,0.2h1.2c0.1,0,0.2-0.1,0.2-0.2v-6.7c0.4-0.1,0.8-0.2,1.2-0.2c0.4,0,0.7-0.1,0.9-0.1c0.2,0,0.3-0.1,0.3-0.2
	l0.2-1.1C198.9,33.8,198.9,33.7,198.9,33.7 M192.8,38.2c0-0.1,0-0.3,0-0.7c0-0.6-0.1-1.2-0.2-1.7c-0.1-0.5-0.3-0.9-0.6-1.3
	c-0.3-0.3-0.6-0.6-1-0.8c-0.4-0.2-0.9-0.3-1.4-0.3c-0.5,0-1,0.1-1.4,0.3c-0.4,0.2-0.8,0.4-1.1,0.8c-0.3,0.4-0.6,0.8-0.8,1.4
	c-0.2,0.6-0.3,1.3-0.3,2.1c0,1.5,0.3,2.6,1,3.3c0.6,0.7,1.5,1.1,2.7,1.1c0.5,0,0.9,0,1.4-0.1c0.5-0.1,1-0.2,1.4-0.4
	c0.1-0.1,0.2-0.1,0.1-0.3l-0.3-0.9c0-0.1-0.1-0.1-0.1-0.1c-0.1,0-0.1,0-0.2,0c-0.3,0.1-0.7,0.2-1.1,0.3c-0.4,0.1-0.7,0.1-1.1,0.1
	c-0.3,0-0.6,0-0.9-0.1c-0.3-0.1-0.5-0.2-0.7-0.5c-0.2-0.2-0.4-0.5-0.5-0.8c-0.1-0.3-0.2-0.8-0.2-1.3h4.7
	C192.7,38.3,192.8,38.3,192.8,38.2 M187.8,37.1c0.1-1.5,0.7-2.3,1.7-2.3c0.3,0,0.6,0.1,0.8,0.2c0.2,0.1,0.4,0.3,0.5,0.5
	c0.1,0.2,0.2,0.4,0.3,0.7c0.1,0.3,0.1,0.6,0.1,0.9C191.2,37.1,187.8,37.1,187.8,37.1z M185,33.7h-2.3v-2c0-0.1-0.1-0.2-0.2-0.2
	l-1.2,0.2c-0.1,0-0.2,0.1-0.2,0.2v1.8h-0.9c-0.1,0-0.2,0.1-0.2,0.2v0.9c0,0.1,0.1,0.2,0.2,0.2h0.9V40c0,0.9,0.2,1.5,0.5,1.9
	c0.3,0.3,0.9,0.5,1.6,0.5c0.1,0,0.3,0,0.5,0c0.2,0,0.3,0,0.5-0.1c0.2,0,0.3-0.1,0.5-0.1c0.2,0,0.3-0.1,0.4-0.1
	c0.1,0,0.2-0.1,0.1-0.2l-0.2-0.8c0-0.1-0.1-0.2-0.2-0.2c-0.1,0-0.2,0-0.5,0.1c-0.3,0.1-0.5,0.1-0.8,0.1c-0.3,0-0.5-0.1-0.6-0.3
	c-0.1-0.2-0.2-0.6-0.2-1.1v-4.7h2.3c0.1,0,0.2-0.1,0.2-0.2v-0.9C185.2,33.7,185.1,33.7,185,33.7 M154.9,40.9c0-0.1-0.1-0.1-0.1-0.1
	c-0.1,0-0.1,0-0.2,0c-0.5,0.2-0.9,0.3-1.4,0.3c-0.3,0-0.6-0.1-0.9-0.2c-0.3-0.1-0.5-0.3-0.7-0.6c-0.2-0.3-0.3-0.6-0.4-1
	c-0.1-0.4-0.1-0.9-0.1-1.5c0-0.9,0.2-1.6,0.5-2.1c0.3-0.5,0.9-0.8,1.5-0.8c0.3,0,0.6,0,0.8,0.1c0.2,0,0.4,0.1,0.6,0.1
	c0.1,0,0.2,0,0.2-0.2l0.2-1c0-0.1,0-0.2-0.2-0.3c-0.2-0.1-0.4-0.1-0.7-0.2c-0.3,0-0.6-0.1-0.9-0.1c-0.5,0-1,0.1-1.5,0.3
	c-0.5,0.2-0.9,0.5-1.2,0.9c-0.3,0.4-0.6,0.9-0.8,1.5c-0.2,0.6-0.3,1.3-0.3,2.1c0,1.4,0.3,2.5,0.9,3.2c0.6,0.7,1.5,1,2.7,1
	c0.3,0,0.7,0,1.1-0.1c0.4-0.1,0.7-0.2,1-0.3c0.1-0.1,0.2-0.1,0.1-0.3C155.2,41.7,154.9,40.9,154.9,40.9z M121.3,24.5v-6.7
	c0.4-0.1,0.8-0.2,1.2-0.2c0.4,0,0.7-0.1,0.9-0.1c0.2,0,0.3-0.1,0.3-0.2l0.2-1.1c0-0.1,0-0.1,0-0.2c0,0,0-0.1-0.1-0.1
	c-0.1,0-0.1,0-0.2,0h-0.2c-0.2,0-0.6,0.1-0.9,0.2c-0.4,0.1-0.8,0.3-1.3,0.6l-0.1-0.4c0-0.1,0-0.1-0.1-0.1c0,0-0.1,0-0.2,0h-0.9
	c-0.1,0-0.2,0.1-0.2,0.2v8.2c0,0.1,0.1,0.2,0.2,0.2h1.2C121.3,24.7,121.3,24.6,121.3,24.5 M114.3,15.9c-0.5,0-1,0.1-1.5,0.3
	c-0.4,0.2-0.8,0.5-1.1,0.8c-0.3,0.4-0.6,0.9-0.7,1.4c-0.2,0.6-0.3,1.3-0.3,2.1c0,1.5,0.3,2.6,0.9,3.2c0.6,0.7,1.5,1,2.6,1
	c0.5,0,1-0.1,1.5-0.3c0.4-0.2,0.8-0.5,1.1-0.8c0.3-0.4,0.6-0.9,0.7-1.4c0.2-0.6,0.3-1.3,0.3-2.1c0-1.5-0.3-2.6-0.9-3.2
	C116.3,16.3,115.5,15.9,114.3,15.9 M115.7,22.7c-0.3,0.5-0.8,0.8-1.4,0.8c-0.3,0-0.6-0.1-0.8-0.2c-0.2-0.1-0.4-0.3-0.6-0.6
	c-0.2-0.3-0.3-0.6-0.3-1c-0.1-0.4-0.1-0.9-0.1-1.5c0-0.9,0.1-1.7,0.4-2.2c0.3-0.5,0.7-0.8,1.4-0.8c0.3,0,0.6,0.1,0.9,0.2
	c0.2,0.1,0.4,0.3,0.6,0.6c0.2,0.3,0.3,0.6,0.3,1c0.1,0.4,0.1,0.9,0.1,1.5C116.1,21.5,116,22.2,115.7,22.7 M115.1,33.6
	c-0.1,0-0.1,0-0.2,0h-0.2c-0.2,0-0.6,0.1-0.9,0.2c-0.4,0.1-0.8,0.3-1.3,0.6l-0.1-0.4c0-0.1,0-0.1-0.1-0.1c0,0-0.1,0-0.2,0h-0.9
	c-0.1,0-0.2,0.1-0.2,0.2V42c0,0.1,0.1,0.2,0.2,0.2h1.2c0.1,0,0.2-0.1,0.2-0.2v-6.7c0.4-0.1,0.8-0.2,1.2-0.2c0.4,0,0.7-0.1,0.9-0.1
	c0.2,0,0.3-0.1,0.3-0.2l0.2-1.1c0-0.1,0-0.1,0-0.2C115.2,33.6,115.2,33.6,115.1,33.6 M130,30.3h-1.7c-0.1,0-0.2,0.1-0.3,0.2
	l-2.3,6.9l-2.3-6.9c0-0.1-0.1-0.2-0.3-0.2h-1.8c-0.1,0-0.2,0.1-0.2,0.2l-1,11.6c0,0.1,0.1,0.2,0.2,0.2h1.2c0.1,0,0.2-0.1,0.2-0.2
	l0.7-9.8l2.4,7c0,0.1,0.1,0.2,0.3,0.2h1c0.1,0,0.2-0.1,0.3-0.2l2.4-7l0.7,9.9c0,0.1,0.1,0.2,0.2,0.2h1.2c0.1,0,0.2-0.1,0.2-0.2
	l-1-11.6C130.2,30.3,130.2,30.3,130,30.3 M146.8,34.1c-0.2-0.2-0.5-0.3-0.8-0.4c-0.3-0.1-0.6-0.1-1-0.1c-0.5,0-0.9,0.1-1.3,0.2
	c-0.4,0.2-0.8,0.3-1.2,0.5l-0.1-0.4c0-0.1,0-0.1-0.1-0.1c0,0-0.1-0.1-0.2-0.1h-0.9c-0.1,0-0.2,0.1-0.2,0.2V42c0,0.1,0.1,0.2,0.2,0.2
	h1.2c0.1,0,0.2-0.1,0.2-0.2v-6.6c0.2-0.1,0.5-0.3,0.9-0.4c0.3-0.1,0.7-0.2,1-0.2c0.4,0,0.7,0.1,1,0.3c0.2,0.2,0.3,0.7,0.3,1.3V42
	c0,0.1,0.1,0.2,0.2,0.2h1.2c0.1,0,0.2-0.1,0.2-0.2v-6c0-0.5-0.1-0.8-0.2-1.2C147.2,34.5,147,34.3,146.8,34.1 M140,12.8
	c-0.2-0.1-0.4-0.1-0.7-0.2c-0.3-0.1-0.6-0.1-0.9-0.1c-0.8,0-1.4,0.3-1.8,0.8c-0.4,0.5-0.6,1.3-0.6,2.3v0.5h-0.9
	c-0.1,0-0.2,0.1-0.2,0.2v0.9c0,0.1,0.1,0.2,0.2,0.2h0.9v7.1c0,0.1,0.1,0.2,0.2,0.2h1.2c0.1,0,0.2-0.1,0.2-0.2v-7.1h1.9
	c0.1,0,0.2-0.1,0.2-0.2v-0.9c0-0.1-0.1-0.2-0.2-0.2h-1.9v-0.9c0-0.5,0.1-0.9,0.2-1.1c0.2-0.2,0.4-0.3,0.8-0.3c0.1,0,0.2,0,0.4,0
	c0.1,0,0.3,0,0.4,0.1c0.1,0,0.2,0.1,0.3,0.1c0.1,0,0.2,0,0.2,0c0.1,0,0.2-0.1,0.2-0.2l0.2-0.8c0-0.1,0-0.1,0-0.1
	C140.1,12.8,140.1,12.8,140,12.8 M138.1,34c-0.2-0.2-0.5-0.3-0.9-0.4c-0.3-0.1-0.7-0.1-1.1-0.1c-0.2,0-0.4,0-0.7,0
	c-0.3,0-0.5,0-0.8,0.1c-0.2,0-0.5,0.1-0.7,0.1c-0.2,0-0.4,0.1-0.5,0.1c-0.1,0-0.2,0.1-0.2,0.3l0.2,0.9c0,0.1,0.1,0.2,0.2,0.2
	c0,0,0.1,0,0.3,0c0.2,0,0.3-0.1,0.6-0.1c0.2,0,0.4-0.1,0.7-0.1c0.2,0,0.4,0,0.6,0c0.3,0,0.6,0,0.8,0.1s0.3,0.2,0.4,0.3
	c0.1,0.1,0.2,0.3,0.2,0.5c0,0.2,0,0.4,0,0.7V37l-1.3,0.1c-0.4,0-0.9,0.1-1.3,0.2c-0.4,0.1-0.8,0.3-1.1,0.5c-0.3,0.2-0.5,0.5-0.7,0.9
	c-0.2,0.4-0.3,0.8-0.3,1.3c0,0.8,0.2,1.4,0.6,1.8c0.4,0.4,1,0.6,1.6,0.6c0.5,0,1-0.1,1.4-0.2c0.4-0.2,0.8-0.4,1.1-0.6l0.2,0.5
	c0,0.1,0,0.1,0.1,0.1c0,0,0.1,0.1,0.2,0.1h0.8c0.1,0,0.2-0.1,0.2-0.2v-6.1c0-0.5-0.1-0.9-0.2-1.2C138.6,34.4,138.4,34.2,138.1,34
	 M137.3,40.4c-0.2,0.2-0.5,0.3-0.8,0.5c-0.3,0.1-0.7,0.2-1,0.2c-0.4,0-0.6-0.1-0.8-0.3c-0.2-0.2-0.3-0.6-0.3-1
	c0-0.9,0.5-1.4,1.4-1.4l1.5-0.1V40.4z M54.8,45l-2,0c-2.9,0-5.2-2.3-5.2-5.2V15.1c0-4-3.2-7.2-7.2-7.2s-7.2,3.2-7.2,7.2v24.7
	c0,2.9-2.3,5.2-5.2,5.2s-5.2-2.3-5.2-5.2l0,0V15.1l0,0c0-4-3.2-7.2-7.2-7.2s-7.2,3.2-7.2,7.2v24.7c0,2.9-2.3,5.2-5.2,5.2l-2,0
	c-0.2,0-0.4,0.2-0.4,0.4v4c0,0.2,0.2,0.4,0.4,0.4l2,0c5.5,0,10-4.5,10-10V15.1v0c0-1.3,1.1-2.4,2.4-2.4s2.4,1.1,2.4,2.4v24.7
	c0,5.5,4.5,10,10,10c5.5,0,10-4.5,10-10V15.1l0,0v0c0-1.3,1.1-2.4,2.4-2.4c1.3,0,2.4,1.1,2.4,2.4v24.7c0,5.5,4.5,10,10,10l2,0
	c0.2,0,0.4-0.2,0.4-0.4v-4C55.2,45.2,55,45,54.8,45 M40.4,0.3C35.2,0.3,30.7,3,28,7c-2.6-4-7.2-6.7-12.4-6.7
	C7.5,0.3,0.9,6.9,0.9,15.1v26.7c0,0.2,0.2,0.4,0.4,0.4h2h0c1.3,0,2.4-1.1,2.4-2.4V15.1c0-5.5,4.5-10,10-10s10,4.5,10,10v24.7v0
	c0,1.3,1.1,2.4,2.4,2.4c1.3,0,2.4-1.1,2.4-2.4v0V15.1c0-5.5,4.5-10,10-10c5.5,0,10,4.5,10,10v24.7v0c0,1.3,1.1,2.4,2.4,2.4h0h2
	c0.2,0,0.4-0.2,0.4-0.4V15.1C55.2,6.9,48.6,0.3,40.4,0.3"/>
</svg>
