<?xml version="1.0" encoding="utf-8"?>
<!-- Generator: Adobe Illustrator 22.0.1, SVG Export Plug-In . SVG Version: 6.00 Build 0)  -->
<svg version="1.1" id="Layer_1" xmlns="http://www.w3.org/2000/svg" xmlns:xlink="http://www.w3.org/1999/xlink" x="0px" y="0px"
	 viewBox="0 0 256 256" style="enable-background:new 0 0 256 256;" xml:space="preserve">
<style type="text/css">
	.st0{fill:#FFFFFF;}
</style>
<g>
	<path class="st0" d="M126.3,79.6l-14.3,0c-0.9,0-1.6-0.7-1.6-1.7c0-0.9,0.7-1.6,1.6-1.6l31.8,0c0.9,0,1.6,0.7,1.6,1.6
		c0,0.9-0.7,1.7-1.6,1.7l-14.3,0l0,42.5c0,0.9-0.7,1.6-1.6,1.6c-0.9,0-1.6-0.7-1.6-1.6L126.3,79.6z"/>
	<path class="st0" d="M179,101.6l-24.4,0v20.4c0,0.9-0.7,1.6-1.7,1.6c-0.9,0-1.6-0.7-1.6-1.6l0-44.1c0-0.9,0.7-1.6,1.6-1.6
		c0.9,0,1.7,0.7,1.7,1.6l0,20.5l24.4,0l0-20.4c0-0.9,0.7-1.6,1.6-1.6c1,0,1.7,0.7,1.7,1.6l0,44.2c0,0.9-0.7,1.6-1.7,1.6
		c-0.9,0-1.6-0.7-1.6-1.6L179,101.6z"/>
	<path class="st0" d="M191,77.9c0-0.9,0.7-1.6,1.6-1.6h0.1l24.2,0c0.9,0,1.6,0.7,1.6,1.6c0,0.9-0.7,1.7-1.6,1.7l-22.7,0l0,18.8
		l19.8,0c0.9,0,1.6,0.7,1.6,1.7c0,0.9-0.7,1.6-1.6,1.6h-19.8l0,18.7l22.7,0c0.9,0,1.6,0.7,1.6,1.7c0,0.9-0.7,1.6-1.6,1.6l-24.2,0
		h-0.2l-0.1,0c-0.8-0.1-1.5-0.7-1.5-1.6L191,77.9z"/>
	<path class="st0" d="M1.8,179.7H1.6c-0.9,0-1.6-0.7-1.6-1.6l0-44.2c0-0.9,0.8-1.6,1.6-1.6c0.9,0,1.7,0.7,1.7,1.6l0,42.5l22.7,0
		c0.9,0,1.7,0.7,1.7,1.7c0,0.9-0.7,1.6-1.7,1.6L1.8,179.7z"/>
	<path class="st0" d="M79.4,139.3l0,38.8c0,0.9-0.7,1.6-1.6,1.6c-0.9,0-1.6-0.7-1.6-1.6l0-43.5c-0.2-0.7,0-1.4,0.6-1.8
		c0.8-0.5,1.8-0.3,2.3,0.4l28.7,39.8l0-38.6c0-0.9,0.7-1.6,1.6-1.6c1,0,1.7,0.7,1.7,1.6l0,43.7c0,0.9-0.7,1.6-1.7,1.6
		c-0.6,0-1-0.2-1.3-0.6c-0.1-0.1-0.2-0.1-0.3-0.3L79.4,139.3z"/>
	<path class="st0" d="M121.4,179.7h-0.3c-0.8-0.1-1.5-0.7-1.5-1.6l0-44.2c0-0.9,0.7-1.6,1.6-1.6h0.2h8.7c13.1,0,23.7,10.7,23.7,23.8
		c0,13.1-10.6,23.6-23.7,23.6H121.4z M130.2,176.4c11.2,0,20.4-9.1,20.4-20.3c0-11.3-9.1-20.4-20.4-20.5l-7.2,0l0,40.8L130.2,176.4z
		"/>
	<path class="st0" d="M161.2,133.9c0-0.9,0.8-1.6,1.6-1.6c0.9,0,1.7,0.7,1.7,1.6l0,44.2c0,0.9-0.7,1.6-1.7,1.6
		c-0.9,0-1.6-0.7-1.6-1.6L161.2,133.9z"/>
	<path class="st0" d="M67.4,133.7C67.4,133.7,67.4,133.7,67.4,133.7c0-0.2-0.1-0.2-0.1-0.3c0,0,0,0,0-0.1c0-0.1-0.1-0.1-0.1-0.2
		c0,0,0-0.1-0.1-0.1c0,0,0-0.1-0.1-0.1c0-0.1-0.1-0.1-0.2-0.2c0,0,0,0,0,0c-0.1,0-0.1-0.1-0.2-0.1c0,0,0,0,0,0c0,0,0,0-0.1,0
		c-0.1,0-0.1-0.1-0.2-0.1c0,0,0,0-0.1,0c-0.1,0-0.2-0.1-0.3-0.1c0,0-0.1,0-0.1,0c-0.1,0-0.2,0-0.3,0c0,0,0,0,0,0c0,0-0.1,0-0.1,0
		c-0.1,0-0.1,0-0.2,0c-0.1,0-0.1,0-0.1,0c-0.1,0-0.1,0-0.2,0.1c0,0,0,0-0.1,0c-0.2,0.1-0.3,0.2-0.5,0.3c0,0,0,0,0,0
		c-0.1,0.1-0.1,0.1-0.2,0.2l-30.9,44.1c-0.5,0.7-0.3,1.8,0.5,2.3c0.7,0.5,1.8,0.3,2.3-0.4l8.1-11.5h19.8v10.6c0,0.9,0.7,1.6,1.6,1.6
		c0.9,0,1.7-0.7,1.7-1.6l0-44.2C67.4,133.8,67.4,133.8,67.4,133.7z M46.6,164.1l17.5-25l0,25H46.6z"/>
	<path class="st0" d="M176.4,139.3l0,38.8c0,0.9-0.7,1.6-1.6,1.6c-0.9,0-1.6-0.7-1.6-1.6l0-43.5c-0.2-0.7,0-1.4,0.6-1.8
		c0.7-0.5,1.8-0.3,2.3,0.4l28.7,39.8l0-38.6c0-0.9,0.7-1.6,1.6-1.6c0.9,0,1.7,0.7,1.7,1.6l0,43.7c0,0.9-0.7,1.6-1.7,1.6
		c-0.5,0-0.9-0.2-1.3-0.6c-0.1-0.1-0.2-0.1-0.3-0.3L176.4,139.3z"/>
	<path class="st0" d="M239.6,158.4c-1,0-1.7-0.7-1.7-1.6c0-1,0.7-1.7,1.7-1.7l14.6,0h0.2c0.8,0.1,1.5,0.8,1.5,1.7V173l0,0.3
		c-0.1,0.5-0.3,0.9-0.6,1.2c-4.2,3.3-9.5,5.2-15.3,5.2c-13.6-0.1-24.6-10.7-24.6-24.1c0-13.2,11-24,24.7-24c5.9,0,11.1,2,15.4,5.3
		c0.6,0.5,0.8,1.6,0.2,2.3c-0.5,0.7-1.6,0.8-2.4,0.3c-3.5-2.8-8.1-4.6-13.2-4.6c-11.9,0-21.3,9.3-21.3,20.6
		c0,11.5,9.5,20.8,21.3,20.8c4.6,0,9-1.5,12.5-4.1l0-13.9L239.6,158.4z"/>
</g>
<g>
</g>
<g>
</g>
<g>
</g>
<g>
</g>
<g>
</g>
</svg>
